<?xml version="1.0" encoding="utf-8"?>
<!-- Generator: Adobe Illustrator 26.5.0, SVG Export Plug-In . SVG Version: 6.00 Build 0)  -->
<svg version="1.1" id="Layer_1" xmlns="http://www.w3.org/2000/svg" xmlns:xlink="http://www.w3.org/1999/xlink" x="0px" y="0px"
	 viewBox="0 0 595.2755737 841.8898315" style="enable-background:new 0 0 595.2755737 841.8898315;" xml:space="preserve">
<style type="text/css">
	.st0{fill:none;}
</style>
<path class="st0" d="M269.3950195,724.7792969c-0.6791992,0-1.3837891-0.1132812-2.0942383-0.3359375
	c-0.1181641-0.0371094-0.46875-0.1591797-0.46875-0.1591797c-0.8115234-0.1035156-1.6201172-0.1972656-2.4282227-0.2900391
	c-1.7158203-0.1972656-3.4892578-0.4003906-5.2583008-0.703125c-2.6083984-0.4462891-4.9448242-1.3554688-6.9443359-2.7021484
	c-1.2426758-0.8378906-2.550293-1.6640625-3.8154297-2.4628906c-1.7128906-1.0820312-3.484375-2.2011719-5.1977539-3.4101562
	c-2.3457031-1.6552734-4.6044922-3.3173828-6.4526367-5.4462891c-1.578125-1.8183594-3.5419922-4.0810547-4.2783203-7.1943359
	c0,0,0,0-0.0004883,0c-0.0087891,0-0.0581055-0.0878906-0.1030273-0.1777344l-0.1098633-0.2216797
	c-2.0341797-4.1777344-2.0288086-8.5244141-1.7548828-12.2246094c0.3564453-4.8212891,2.4003906-8.9482422,6.0756836-12.2675781
	c2.4560547-2.2167969,3.1889648-5.2119141,3.5341797-9.0263672c0.1479492-1.6308594-0.3007812-2.875-1.5488281-4.2919922
	c-2.347168-2.6669922-3.8779297-5.8300781-5.0664062-8.5722656c-2.2817383-5.2675781-3.5566406-11.2382812-4.0112305-18.7910156
	c-0.1772461-2.9492188-0.53125-5.9785156-0.8735352-8.9091797l-0.0141602-0.1210938
	c-0.0405273-0.3476562-0.1748047-0.8017578-0.3164062-1.2832031c-0.1240234-0.4179688-0.2456055-0.8378906-0.3422852-1.2597656
	c-0.1352539-0.5908203-0.2402344-1.1884766-0.3442383-1.7861328l-0.1206055-0.6796875
	c-0.0336914-0.1865234-0.0600586-0.3730469-0.0849609-0.5605469c-0.012207-0.0947266-0.0209961-0.1914062-0.0419922-0.2832031
	c-0.2871094-0.7460938-0.5996094-1.5898438-0.9121094-2.4326172c-0.859375-2.3183594-1.7480469-4.7148438-2.7231445-6.9882812
	c-2.402832-5.6025391-4.6352539-10.5742188-6.8251953-15.1982422c-0.7255859-1.5332031-1.6259766-3.0136719-2.5791016-4.5820312
	c-0.3828125-0.6289062-0.7651367-1.2587891-1.1376953-1.8925781c-1.5175781-2.5859375-3.0463867-5.1660156-4.5966797-7.7324219
	c-0.4907227-0.8115234-1.0532227-1.6660156-1.824707-2.7705078c-2.453125-3.5146484-5.0024414-7.3095703-6.8447266-11.6484375
	c-0.6132812-1.4443359-1.3608398-2.8515625-2.1523438-4.3408203c-0.453125-0.8525391-0.9057617-1.7060547-1.3354492-2.5683594
	c-0.9863281-1.9804688-1.9692383-4.0253906-2.9208984-6.0791016c-0.3330078-0.7207031-0.4428711-1.4052734-0.5224609-1.9052734
	l-0.0424805-0.2539062l-0.1748047-0.9414062c-0.1977539-1.0458984-0.4018555-2.1279297-0.5249023-3.2597656
	c-0.125-1.1474609-0.0224609-2.2216797,0.0678711-3.1699219c0.1723633-1.8017578,0.4804688-3.6962891,1.484375-5.4863281
	c0.2075195-2.3671875,1.3754883-4.1611328,2.3359375-5.6367188c0.3154297-0.484375,0.6137695-0.9414062,0.8505859-1.3759766
	c1.3413086-2.4589844,2.7470703-4.9189453,4.1064453-7.296875c1.1816406-2.0683594,2.3637695-4.1357422,3.5146484-6.2216797
	c2.1035156-3.8085938,4.2895508-7.8769531,5.871582-12.0556641c1.1420898-3.0166016,2.2685547-6.0400391,3.3833008-9.0673828
	c-0.4882812-0.1757812-0.9848633-0.3349609-1.480957-0.4951172c-0.9511719-0.3056641-1.9345703-0.6220703-2.9306641-1.0566406
	c-0.9916992-0.4316406-1.8378906-0.9980469-2.5849609-1.4980469c-0.2973633-0.1992188-0.5942383-0.3994141-0.8979492-0.5849609
	c-2.1694336-1.3242188-7.7270508-4.7080078-7.7270508-4.7080078c-0.5854492,1.0439453-1.1616211,2.0751953-1.7314453,3.109375
	c-2.5541992,4.6376953-5.1020508,9.2792969-7.6401367,13.9248047c-0.2758789,0.5048828-0.5317383,1.0585938-0.8022461,1.6455078
	l-0.9731445,2.0898438c-0.8408203,1.8017578-1.6816406,3.6035156-2.4907227,5.4189453
	c-0.6113281,1.3720703-1.2026367,2.7519531-1.7944336,4.1318359c-0.5488281,1.28125-1.0981445,2.5615234-1.6621094,3.8359375
	c-0.7319336,1.6513672-1.3354492,2.8984375-1.9584961,4.0429688c-1.2460938,2.2900391-2.1918945,4.9785156-2.8916016,8.2216797
	c-0.9365234,4.3427734-1.5366211,7.8857422-1.8876953,11.1503906c-0.3466797,3.21875-0.5029297,6.5585938-0.6538086,9.7890625
	c-0.0517578,1.1142578-0.1040039,2.2294922-0.1635742,3.34375l-0.0180664,0.4248047
	c-0.0419922,1.0742188-0.0976562,2.5205078-0.921875,3.9677734c-0.6230469,3.2324219-1.2407227,6.4648438-1.8574219,9.6992188
	l-0.0024414,0.0585938c-0.0302734,0.3173828-0.0805664,0.8505859-0.3295898,1.4472656
	c-0.8867188,2.1113281-1.7851562,4.2099609-2.699707,6.3017578c-0.3916016,0.8955078-0.8120117,1.7832031-1.2329102,2.6699219
	c-0.8383789,1.7666016-1.6303711,3.4365234-2.1621094,5.1328125c-1.0180664,3.2529297-1.7885742,6.7109375-2.5336914,10.0556641
	l-0.3300781,1.4775391c-1.0942383,4.8740234-1.5078125,10.3466797-1.3012695,17.2207031
	c0.0297852,0.9951172,0.0083008,1.96875-0.0126953,2.9101562c-0.0214844,0.9707031-0.0419922,1.8876953-0.0078125,2.7841797
	l0.0053711,0.1386719c0.175293,4.5664062,0.3564453,9.2890625,0.3222656,13.9775391
	c-0.0161133,2.2226562,0.0458984,4.5107422,0.105957,6.7226562c0.0634766,2.3359375,0.1293945,4.75,0.1064453,7.1513672
	c-0.027832,2.8994141-0.059082,6.1865234-1.2509766,9.5292969c-0.3583984,1.0048828-0.5229492,2.2099609-0.6972656,3.4863281
	c-0.1069336,0.7802734-0.2172852,1.5878906-0.3793945,2.4111328c-0.0161133,0.0966797-0.0175781,0.2001953-0.0239258,0.3037109
	c-0.0356445,0.5498047-0.0966797,1.4882812-0.609375,2.4775391l0.1801758,0.5820312
	c0.6030273,1.8759766,1.0239258,3.0576172,2.0385742,3.6787109l0.5229492,0.3212891l0.3554688,0.5
	c0.7416992,1.0439453,1.5610352,2.046875,2.4282227,3.1083984c1.8525391,2.2666016,3.7685547,4.6113281,5.0859375,7.5800781
	c1.5361328,3.4580078,2.3300781,7.0537109,2.9541016,10.1523438c0.4707031,2.3378906,0.4790039,4.5927734,0.4472656,6.7011719
	c-0.0224609,1.4970703,0.0722656,3.0097656,0.1723633,4.6103516c0.0585938,0.9355469,0.1166992,1.8720703,0.1523438,2.8076172
	c0.0629883,1.6699219-0.4223633,4.5458984-4.3857422,5.0478516c-0.0170898,0.0019531-0.0336914,0.0039062-0.0488281,0.0058594
	c-1.2202148,1.1210938-2.6044922,1.6494141-3.8193359,2.0185547c-0.0126953,0.0068359-0.0649414,0.0332031-0.1181641,0.0566406
	c-0.1914062,0.0869141-0.3842773,0.171875-0.5810547,0.2431641c-0.0493164,0.0292969-0.2719727,0.2080078-0.434082,0.3388672
	c-0.7763672,0.625-2.0756836,1.671875-4.1210938,1.671875l-0.2089844-0.0039062
	c-0.2788086,0-0.909668,0.1113281-2.2548828,0.8486328c-1.6010742,0.8789062-3.1928711,1.0478516-4.472168,1.1845703
	c-0.5351562,0.0566406-1.0410156,0.1103516-1.4638672,0.2080078c-1.1928711,0.2744141-2.3955078,0.4082031-3.6762695,0.4082031
	c-2.9995117,0-5.7612305-0.7451172-8.4316406-1.4648438l-0.9584961-0.2578125
	c-1.5571289-0.4121094-3.1040039-0.8759766-4.6000977-1.3242188l-0.9526367-0.2851562
	c-0.5078125-0.1513672-1.2763672-0.3808594-2.0131836-0.8798828c-0.3120117-0.2119141-0.75-0.4160156-1.2133789-0.6328125
	c-0.90625-0.4228516-1.9995117-0.9335938-2.9912109-1.8515625c-0.1757812-0.046875-0.347168-0.0976562-0.5073242-0.1572266
	c-3.4731445-1.2958984-5.0380859-3.8808594-4.6542969-7.6855469c0.0307617-0.3027344,0.0693359-0.6064453,0.1083984-0.9101562
	c0.0791016-0.6181641,0.1542969-1.2011719,0.1206055-1.6337891c-0.097168-1.2382812-0.237793-2.4736328-0.3774414-3.7089844
	c-0.2109375-1.8613281-0.4287109-3.7861328-0.5063477-5.7392578c-0.0336914-0.8457031-0.0986328-1.6914062-0.1625977-2.5380859
	c-0.1850586-2.4462891-0.3769531-4.9755859,0.0737305-7.6425781c0.3193359-1.8925781,0.8378906-3.90625,2.453125-5.8046875
	c1.0883789-1.2792969,1.4057617-3.203125,1.5864258-5.0917969c0.2705078-2.8222656,0.3686523-5.6962891,0.4243164-7.8857422
	c0.03125-1.2314453-0.3334961-2.5107422-0.8129883-4.0546875c-0.6455078-2.0810547-1.015625-4.1835938-1.3730469-6.2167969
	l-0.1972656-1.1123047c-0.1923828-1.0673828-0.2954102-2.1064453-0.3950195-3.1103516
	c-0.0424805-0.4287109-0.0844727-0.8574219-0.1342773-1.2841797c-0.0854492-0.3886719-0.2241211-1.0449219-0.0722656-1.8330078
	c0.2768555-1.4287109,0.4248047-2.8974609,0.581543-4.453125c0.2314453-2.296875,0.4707031-4.6728516,1.1538086-7.0908203
	c0.9370117-3.3173828,1.9990234-7.0771484,2.2597656-10.7695312c0.2128906-3.0087891,0.3701172-6.0878906,0.5224609-9.0654297
	c0.0610352-1.1992188,0.1225586-2.3984375,0.1875-3.5976562c0.0180664-0.3300781,0.0283203-0.6591797,0.0390625-0.9882812
	c0.0180664-0.5595703,0.0371094-1.1191406,0.0810547-1.6757812c0.3330078-4.1894531,0.1708984-8.3408203-0.0009766-12.7363281
	c-0.0336914-0.8720703-0.0678711-1.7441406-0.0976562-2.6171875c-0.027832-0.8105469-0.0893555-1.6201172-0.1499023-2.4296875
	c-0.0620117-0.8339844-0.1240234-1.6669922-0.15625-2.5019531c-0.0268555-0.6738281,0.0512695-1.2861328,0.1137695-1.7773438
	c0.0244141-0.1933594,0.050293-0.3857422,0.0644531-0.5791016c0.0200195-0.28125,0.0551758-0.5673828,0.0913086-0.8535156
	c0.0292969-0.2314453,0.0737305-0.5810547,0.0644531-0.6992188c-0.2915039-1.3115234-0.6342773-2.6738281-0.9760742-4.0371094
	c-0.4145508-1.6494141-0.8427734-3.3554688-1.2006836-5.078125c-0.4223633-2.0292969-0.6855469-4.1503906-0.7832031-6.3037109
	c-0.1289062-2.8369141-0.1889648-5.7050781-0.2470703-8.4794922c-0.0273438-1.3193359-0.0551758-2.6386719-0.0898438-3.9570312
	c-0.0102539-0.3955078-0.015625-0.7919922-0.0209961-1.1875c-0.0141602-1.0458984-0.0273438-2.0341797-0.1367188-2.9619141
	c-0.3413086-2.8886719,0.5620117-5.3017578,1.359375-7.4296875c0.1254883-0.3359375,0.2514648-0.671875,0.3710938-1.0078125
	c0.3735352-1.0507812,0.7954102-2.0576172,1.203125-3.0322266c0.7768555-1.8554688,1.5102539-3.6074219,1.815918-5.4101562
	c0.2368164-1.3974609,0.5610352-2.7519531,0.8745117-4.0615234c0.3291016-1.375,0.6396484-2.6728516,0.8427734-3.9677734
	c0.1918945-1.2207031,0.2641602-2.4960938,0.3408203-3.8466797c0.0585938-1.0332031,0.1191406-2.1015625,0.2382812-3.1845703
	c0.203125-1.8554688-0.0898438-3.7939453-0.4003906-5.8466797c-0.0844727-0.5595703-0.1689453-1.1191406-0.2446289-1.6796875
	c-0.2983398-2.2148438-0.6777344-4.4804688-1.0444336-6.671875c-0.1625977-0.9716797-0.3251953-1.9423828-0.4819336-2.9150391
	l-0.0253906-0.125c-0.0439453-0.2119141-0.1103516-0.5302734-0.1323242-0.9101562l-0.1948242-3.4833984
	c-0.2255859,0.4091797-0.453125,0.8115234-0.6782227,1.2080078c-0.3046875,0.5390625-0.6098633,1.0771484-0.902832,1.6220703
	c-0.1777344,0.3310547-0.340332,0.6679688-0.5039062,1.0048828c-0.121582,0.25-0.2426758,0.5-0.3681641,0.7480469
	c-0.2143555,0.4248047-0.425293,0.8544922-0.6362305,1.2832031c-0.9399414,1.9121094-1.9121094,3.8896484-3.300293,5.7587891
	c-0.2089844,0.28125-0.4213867,0.7177734-0.6464844,1.1787109c-0.2265625,0.4648438-0.4833984,0.9912109-0.8115234,1.5214844
	c-0.7993164,1.2900391-1.6352539,2.5576172-2.4716797,3.8251953l-0.7924805,1.203125
	c-0.1171875,0.1787109-0.2358398,0.3271484-0.3374023,0.4443359c-1.1313477,2.6318359-2.7431641,4.8046875-4.3041992,6.9101562
	c-1.0703125,1.4423828-2.0810547,2.8056641-2.8896484,4.2490234c-1.1972656,2.1367188-2.6293945,4.078125-4.0141602,5.9560547
	c-0.5078125,0.6894531-1.0161133,1.3779297-1.5097656,2.0742188c-1.7387695,2.4492188-3.5029297,4.8798828-5.2675781,7.3105469
	l-0.2631836,0.3632812c-0.9897461,1.3642578-1.9897461,2.7226562-3.0092773,4.0664062l-0.7773438,1.0283203
	c-1.0405273,1.3798828-2.1162109,2.8056641-3.2539062,4.1845703c-0.5405273,0.6552734-1.0786133,1.3154297-1.6166992,1.9755859
	c-1.9936523,2.4443359-4.0546875,4.9726562-6.2895508,7.3378906c-1.9291992,2.0410156-3.9926758,3.9501953-5.987793,5.796875
	c-0.9824219,0.9091797-1.9648438,1.8183594-2.9316406,2.7431641c-0.5068359,0.4853516-0.9985352,0.9873047-1.4907227,1.4892578
	c-0.5927734,0.6054688-1.1865234,1.2099609-1.8017578,1.7910156c-0.5039062,0.4755859-1.0151367,0.8300781-1.4658203,1.1435547
	c-0.1728516,0.1201172-0.3466797,0.2402344-0.5141602,0.3671875c-0.4760742,0.3603516-0.9467773,0.7255859-1.4174805,1.0908203
	c-1.0307617,0.7988281-2.0966797,1.625-3.2119141,2.40625c-0.7861328,0.5507812-1.6030273,0.9746094-2.3237305,1.3486328
	c-0.28125,0.1455078-0.5625,0.2910156-0.8388672,0.4443359c-0.1850586,0.1025391-0.3759766,0.2041016-0.5668945,0.3056641
	c-0.300293,0.1591797-0.6020508,0.3164062-0.887207,0.4980469c-1.3081055,0.8359375-2.6118164,1.6787109-3.9155273,2.5214844
	c-1.0166016,0.65625-3.2060547,2.0673828-3.2060547,2.0673828c-0.4521484,0.2939453-1.0151367,0.6601562-1.7368164,0.9208984
	c-2.4160156,0.8720703-4.4545898,1.5927734-6.5458984,2.2714844c-1.2329102,0.4003906-2.3818359,0.5957031-3.512207,0.5957031
	c-0.5927734,0-1.1894531-0.0556641-1.7729492-0.1640625c-0.1342773-0.0244141-0.3095703-0.0371094-0.5356445-0.0371094
	c-0.2978516,0-0.5991211,0.0195312-0.9008789,0.0361328c-0.4155273,0.0234375-0.831543,0.0458984-1.2441406,0.0458984
	l-0.1362305-0.0009766c-3.15625-0.0341797-5.7871094-2.3769531-6.2539062-5.5712891
	c-0.4111328-2.8183594,0.2827148-5.3095703,0.8945312-7.5068359l0.1621094-0.5859375
	c0.6289062-2.2949219,1.7114258-4.1689453,2.7587891-5.9814453c0.7094727-1.2285156,1.3793945-2.3876953,1.8334961-3.5712891
	c0.3041992-0.7939453,0.7607422-1.3994141,1.0942383-1.8417969c0.1137695-0.1513672,0.2700195-0.3583984,0.3115234-0.4384766
	c0.5600586-1.1289062,1.1113281-2.3613281,1.7880859-3.9941406c0.0166016-0.0517578,0.0341797-0.1337891,0.0551758-0.2148438
	c0.1616211-0.6347656,0.5419922-2.1240234,1.9833984-3.0429688c2.1533203-3.5234375,4.3310547-7.3525391,5.7900391-11.5292969
	c0.3447266-0.9873047,0.746582-1.9140625,1.1352539-2.8105469c0.2924805-0.6748047,0.5864258-1.3486328,0.8432617-2.0361328
	l0.590332-1.578125c1.3911133-3.7158203,2.8291016-7.5576172,4.1445312-11.3505859
	c0.9189453-2.6503906,1.8032227-5.3125,2.6870117-7.9746094c1.1533203-3.4716797,2.3452148-7.0605469,3.6025391-10.5791016
	c1.0654297-2.9814453,1.878418-6.0605469,2.7558594-9.4882812c0.5205078-2.0332031,1.1191406-4.0537109,1.6977539-6.0087891
	c0.4077148-1.3759766,0.8154297-2.7529297,1.1967773-4.1367188c1.046875-3.796875,2.0449219-7.5664062,2.9667969-11.2041016
	c0.984375-3.8828125,1.7416992-7.0527344,2.3842773-9.9755859c0.3676758-1.6708984,0.6962891-3.3496094,1.0258789-5.0283203
	c0.3520508-1.7978516,0.7167969-3.65625,1.1259766-5.4931641c1.1611328-5.2060547,2.3989258-10.3798828,3.456543-14.7539062
	c0.371582-1.5351562,0.7783203-3.0615234,1.1850586-4.5878906c0.3388672-1.2705078,0.6772461-2.5400391,0.9941406-3.8154297
	c0.4326172-1.7392578,0.8447266-3.4833984,1.2568359-5.2275391c0.3520508-1.4882812,0.7041016-2.9775391,1.0683594-4.4628906
	c0.4438477-1.8115234,0.9023438-3.6181641,1.3613281-5.4257812c0.2993164-1.1796875,0.5991211-2.359375,0.8945312-3.5400391
	c0.1899414-0.7607422,0.3710938-1.5234375,0.5517578-2.2861328c0.34375-1.4472656,0.6987305-2.9438477,1.1171875-4.4287109
	c0.3608398-1.2797852,0.7167969-2.5605469,1.0722656-3.8417969c1.246582-4.4873047,2.5351562-9.1269531,4.0234375-13.6547852
	c1.2773438-3.8842773,3.0200195-7.5839844,4.5527344-10.7470703c2.1503906-4.4360352,4.4736328-8.7260742,6.7197266-12.8745117
	c1.7290039-3.1943359,3.8032227-6.9667969,6.0766602-10.7280273l0.8349609-1.3852539
	c2.1069336-3.4995117,4.2861328-7.1191406,6.7871094-10.5019531c2.9287109-3.9624023,6.5273438-7.9433594,11.0004883-12.1704102
	c0.449707-0.4248047,0.8945312-0.9335938,1.3657227-1.472168c0.715332-0.8183594,1.5263672-1.7456055,2.5195312-2.5463867
	c1.4614258-1.1787109,2.3500977-2.8603516,3.3793945-4.8076172c0.3588867-0.6787109,0.71875-1.3579102,1.1040039-2.0214844
	c0.3178711-0.5478516,0.6679688-1.0771484,1.0200195-1.605957c0.2094727-0.3149414,0.4194336-0.6293945,0.6186523-0.9501953
	c2.7275391-4.3891602,5.7080078-8.3608398,8.8583984-11.8051758l0.1289062-0.140625
	c2.5581055-2.796875,5.203125-5.6894531,8.465332-8.0585938c0.7329102-0.5327148,1.4589844-1.0761719,2.1855469-1.6201172
	c1.59375-1.1928711,3.2416992-2.4267578,4.9785156-3.5546875c1.2675781-0.8232422,2.5683594-1.5493164,3.8261719-2.2514648
	c1.3779297-0.769043,2.6791992-1.4956055,3.8925781-2.315918c1.9399414-1.3120117,3.9995117-1.9194336,5.8164062-2.4550781
	c0.5825195-0.171875,1.1655273-0.3427734,1.7416992-0.5390625c0.1694336-0.0576172,0.6870117-0.234375,0.8422852-0.3422852
	c1.6518555-1.668457,3.699707-2.3149414,5.4765625-2.7197266c1.4052734-0.3198242,2.8198242-0.6015625,4.2338867-0.8823242
	c1.4609375-0.2905273,2.9711914-0.5908203,4.4213867-0.9287109c3.9326172-0.9179688,7.8383789-1.0654297,11.8266602-1.1445312
	c0.2026367-0.0039062,0.4057617-0.0058594,0.6088867-0.0058594c2.3261719,0,4.6098633,0.2563477,6.8188477,0.5039062
	c1.003418,0.1123047,2.0073242,0.2255859,3.0102539,0.3125c0.6762695,0.0600586,1.2685547,0.2871094,1.7661133,0.6767578
	c0.1357422,0.1069336,0.1972656,0.1333008,0.3925781,0.1333008c0.3725586,0,0.921875-0.1289062,1.5039062-0.2651367
	c0.2392578-0.0561523,0.4790039-0.1123047,0.7197266-0.1635742l0.4887695-0.1054688
	c2.9907227-0.6430664,6.0830078-1.3076172,9.2324219-1.6708984c2.1391602-0.246582,4.2553711-0.2524414,6.3022461-0.2573242
	c0.7666016-0.0019531,1.5327148-0.0039062,2.2973633-0.019043c0.2817383-0.0053711,0.5649414-0.0146484,0.8486328-0.0239258
	c0.5078125-0.0166016,1.0161133-0.0327148,1.5229492-0.0327148c0.722168,0,1.331543,0.03125,1.9169922,0.0986328
	c1.4638672,0.1689453,2.9243164,0.3833008,4.3359375,0.590332c2.0131836,0.2954102,3.9140625,0.574707,5.8354492,0.7358398
	c3.4389648,0.2880859,6.5361328,1.3227539,9.5317383,2.3227539c0.8408203,0.28125,1.6811523,0.5620117,2.5263672,0.8237305
	c2.7094727,0.840332,5.3041992,1.9453125,7.8139648,3.0136719c0.800293,0.3408203,1.6000977,0.6816406,2.4023438,1.0126953
	c2.1455078,0.8867188,4.2885742,1.8320312,6.3608398,2.7470703l1.8349609,0.8081055
	c1.6186523,0.7119141,3.2900391,1.4462891,4.934082,2.2348633c1.5932617-1.7109375,3.3051758-3.4672852,5.2265625-5.362793
	c4.4360352-4.3759766,9.7578125-8.5415039,16.7490234-13.109375c0.4257812-0.277832,0.8496094-0.5585938,1.2724609-0.8388672
	c0.9179688-0.6083984,1.8349609-1.215332,2.7695312-1.7958984c0.53125-0.3300781,1.0439453-0.5136719,1.4189453-0.6479492
	c0.1103516-0.0390625,0.2226562-0.0727539,0.3261719-0.1235352c1.4697266-0.7333984,2.9345703-1.4755859,4.4003906-2.2177734
	l2.3427734-1.1845703c0.4785156-0.2412109,0.9511719-0.4956055,1.4248047-0.75
	c1.2041016-0.6474609,2.4501953-1.3164062,3.8398438-1.8325195c0.7685547-0.2851562,1.5458984-0.6499023,2.3691406-1.0356445
	c1.53125-0.7177734,3.2480469-1.5224609,5.2119141-1.9189453c1.2197266-1.6152344,2.4375-3.3076172,3.8740234-5.3701172
	c0.4892578-0.7011719,0.9550781-1.4174805,1.421875-2.1337891c0.4355469-0.6674805,0.8710938-1.3354492,1.3222656-1.9926758
	l1.0898438-1.5917969c1.6669922-2.4370117,3.3916016-4.9570312,5.15625-7.4086914
	c1.0429688-1.4501953,2.1640625-2.8251953,3.2490234-4.1552734l1.7568359-2.1689453
	c1.6875-2.0927734,3.4335938-4.2573242,5.2060547-6.3603516c0.4775391-0.565918,0.9492188-1.1376953,1.421875-1.7099609
	c1.6308594-1.9736328,3.3164062-4.0151367,5.2373047-5.871582c4.5566406-4.4038086,9.4521484-8.9326172,15.4082031-14.2539062
	c2.5107422-2.2416992,5.3183594-4.5029297,8.8388672-7.1162109c1.6699219-1.2397461,3.4140625-2.3413086,5.0996094-3.4067383
	c0.7685547-0.4853516,1.5371094-0.9707031,2.296875-1.4677734c0.28125-0.1850586,0.5595703-0.378418,0.8369141-0.5717773
	c0.3876953-0.2695312,0.7753906-0.5385742,1.1728516-0.7929688c0.3378906-0.2163086,0.6738281-0.4394531,1.0107422-0.6621094
	c0.9902344-0.6572266,2.015625-1.3369141,3.1640625-1.9204102c0.6806641-0.3457031,1.3603516-0.6962891,2.0400391-1.046875
	c2.7871094-1.4379883,5.6699219-2.925293,8.6943359-4.1147461c1.1748047-0.4619141,2.3271484-0.9760742,3.546875-1.5205078
	c2.6376953-1.1767578,5.3642578-2.3935547,8.4033203-3.0849609c0.2978516-0.0678711,0.7373047-0.2885742,1.2021484-0.5219727
	c0.6357422-0.3193359,1.3554688-0.6811523,2.2099609-0.9228516c1.2832031-0.3632812,2.5732422-0.6655273,3.8203125-0.9580078
	c1.8652344-0.4375,3.6259766-0.8505859,5.2978516-1.4370117c3.1513672-1.1044922,6.2929688-1.5239258,9.3310547-1.9296875
	c0.6328125-0.0844727,1.2666016-0.1689453,1.9003906-0.2602539c2.9501953-0.4233398,5.796875-0.6293945,8.7041016-0.6293945
	c0.6689453,0,1.3935547-0.09375,2.1601562-0.1933594c0.6708984-0.0869141,1.3642578-0.1767578,2.1025391-0.2192383
	c1.1308594-0.0654297,2.2529297-0.0820312,3.3369141-0.0981445c0.6308594-0.0092773,1.2617188-0.0185547,1.8916016-0.0375977
	c0.8056641-0.0244141,1.6103516-0.0581055,2.4150391-0.0917969c0.8603516-0.0356445,1.7207031-0.0712891,2.5810547-0.0966797
	l0.7626953-0.0229492c1.3574219-0.0415039,2.7158203-0.0820312,4.0732422-0.0820312c0,0,0.6435547,0.0029297,0.6445312,0.0029297
	c0.2255859,0,0.3017578-0.0253906,0.3027344-0.0253906l0.5820312-0.7460938
	c1.0371094-1.2626953,2.0742188-2.5258789,3.0947266-3.8017578c0.3554688-0.4438477,0.6972656-0.9023438,1.0380859-1.3598633
	c0.6611328-0.8857422,1.3447266-1.8017578,2.1513672-2.6826172c3.2568359-3.5522461,6.7226562-7.246582,10.3007812-10.9804688
	c1.1113281-1.159668,2.2978516-2.1870117,3.4443359-3.1806641l0.5595703-0.4863281
	c0.5126953-0.4462891,1.0195312-0.902832,1.5273438-1.359375c1.4912109-1.3417969,3.0332031-2.7294922,4.7675781-3.9433594
	c2.8945312-2.0253906,6.1162109-3.9799805,10.0585938-4.565918c0.5205078-0.0776367,1.0478516-0.1166992,1.5683594-0.1166992
	c0.5361328,0,1.0634766,0.0419922,1.5673828,0.1245117c3.0400391,0.4975586,5.0771484,2.9208984,5.0703125,6.0297852
	c-0.0039062,1.8574219-0.1464844,3.7207031-0.2724609,5.3647461c-0.0800781,1.0517578-0.453125,1.9643555-0.7529297,2.5444336
	c-0.9277344,1.7910156-1.5283203,3.7485352-2.1464844,6.1386719l-0.2978516,1.1318359
	c-0.4970703,1.8725586-0.9667969,3.6411133-1.1210938,5.3984375c-0.2226562,2.5214844,0.34375,4.8662109,1.7314453,7.1699219
	c0.7509766,1.2451172,1.6152344,1.6865234,3.3037109,1.6865234c0.1220703,0,0.2451172-0.0024414,0.3701172-0.0073242
	c0.3613281-0.0141602,0.7246094-0.0195312,1.0869141-0.0195312c0.3222656,0,1.5644531,0.015625,1.8613281,0.015625
	c0.4570312,0,0.9140625-0.0083008,1.3681641-0.0449219c1.5546875-0.1254883,3.1611328-0.3666992,4.5976562-0.6010742
	c0.5810547-0.5625,1.1679688-1.1220703,1.7539062-1.6816406c2.6162109-2.4951172,5.0869141-4.8520508,7.1835938-7.5634766
	c1.1152344-1.4414062,2.2763672-2.8588867,3.3994141-4.2299805c1.3291016-1.6220703,2.703125-3.2993164,3.9648438-4.9770508
	c1.5117188-2.0102539,2.9570312-4.1787109,4.3544922-6.2753906c0.4345703-0.6523438,0.8691406-1.3046875,1.3066406-1.9545898
	c1.2109375-1.7954102,4.2412109-3.3696289,6.4863281-3.3696289c0.8085938,0,1.5419922,0.1831055,2.1796875,0.5439453
	c1.5078125,0.8535156,2.5078125,2.2197266,3.3261719,3.4331055c2.7236328,4.0361328,2.5820312,8.3984375,2.1552734,11.7475586
	c-0.1279297,1.0083008-0.2480469,2.019043-0.3671875,3.0292969c-0.2851562,2.402832-0.5791016,4.8876953-0.9921875,7.3476562
	c-0.2705078,1.6088867-0.8828125,3.074707-1.421875,4.3681641l-0.2587891,0.6235352
	c-0.5869141,1.4345703-1.2041016,2.855957-1.8203125,4.2773438c-0.4716797,1.0859375-0.9423828,2.1713867-1.4003906,3.2631836
	c-0.0976562,0.2338867-0.1621094,0.4848633-0.2324219,0.7329102c-0.1582031,0.5507812-0.3535156,1.2363281-0.7177734,1.9335938
	c-1.2207031,2.3383789-2.5957031,4.8588867-4.2050781,7.7041016c-0.3720703,0.6582031-0.8193359,1.1801758-1.1787109,1.5991211
	c-0.1357422,0.1577148-0.2714844,0.3139648-0.3955078,0.4780273c-0.1123047,0.1484375-0.2392578,0.2988281-0.3720703,0.4492188
	c-0.1923828,1.2739258-0.7705078,2.3764648-1.7285156,3.2978516c-0.0556641,0.8666992-0.3466797,1.8432617-1.0234375,2.9052734
	c-0.9589844,1.5029297-1.2851562,3.4204102-1.6318359,5.4506836l-0.1738281,1.0068359
	c-0.3935547,2.1972656-0.7119141,4.4755859-1.0205078,6.6791992l-0.2773438,1.9667969
	c-0.4785156,3.3398438-0.5751953,5.8916016-0.3144531,8.2724609c0.1103516,1.0185547,0.1171875,1.9858398,0.1230469,2.921875
	c0.0058594,0.8598633,0.0117188,1.6723633,0.1005859,2.4125977c0.2919922,2.4257812,0.6650391,4.9057617,1.0253906,7.3041992
	c0.1708984,1.1362305,0.3417969,2.2724609,0.5058594,3.4091797c0.0498047,0.3461914,0.0878906,0.6953125,0.125,1.0439453
	c0.0380859,0.355957,0.0732422,0.7114258,0.1347656,1.0629883l0.0839844,0.4755859
	c0.2480469,1.4121094,0.4824219,2.7460938,0.7851562,4.0649414c0.6992188,3.0454102,1.4853516,7.6591797,0.2509766,12.5517578
	c-0.1269531,0.503418-0.2373047,1.0083008-0.3466797,1.5131836c-0.2949219,1.3491211-0.5986328,2.7441406-1.1914062,4.1953125
	c-1.4716797,3.6054688-3.6464844,6.6201172-5.75,9.5351562c-0.4365234,0.605957-0.8740234,1.2119141-1.3037109,1.8227539
	c-0.9091797,1.2900391-1.8613281,2.5512695-2.78125,3.7705078c-1.0927734,1.4472656-2.1240234,2.8134766-3.1005859,4.237793
	c-0.6171875,0.9003906-1.09375,2.0483398-1.5976562,3.2636719l-0.140625,0.3388672
	c-1.0253906,2.4594727-1.8808594,4.6630859-2.6171875,6.7368164c-0.3789062,1.0688477-0.7158203,2.1484375-1.0722656,3.2915039
	c-0.3984375,1.2783203-0.8105469,2.6005859-1.2890625,3.9125977c-1.1386719,3.1171875-1.8154297,6.3574219-2.5322266,9.7885742
	c-0.53125,2.5424805-1.0800781,5.1713867-1.8369141,7.7641602c-0.0683594,0.2358398-0.1171875,0.4799805-0.1689453,0.7236328
	c-0.1767578,0.8354492-0.4033203,1.9077148-1.0634766,2.9580078c0.1611328,1.8735352-0.2949219,3.5410156-0.671875,4.921875
	c-0.1650391,0.6025391-0.3203125,1.171875-0.4111328,1.6948242l-0.0537109,0.3085938
	c-0.5644531,3.2583008-1.0986328,6.3364258-0.8330078,9.3876953c0.0546875,0.6337891-0.0419922,1.1591797-0.1064453,1.5068359
	l-0.2519531,1.5336914c-0.5820312,3.5820312-1.1835938,7.2866211-2.421875,10.9267578
	c-0.2314453,0.6821289-0.4101562,1.4370117-0.5986328,2.2363281c-0.2890625,1.21875-0.5869141,2.4794922-1.1269531,3.7553711
	c-1.6113281,3.8081055-3.7050781,6.862793-6.3994141,9.3383789c-1.1025391,1.0136719-2.1523438,2.0722656-3.2626953,3.1928711
	c-0.7763672,0.7827148-1.5517578,1.5649414-2.3447266,2.3300781l-0.3642578,0.355957
	c-0.8085938,0.793457-1.7246094,1.6923828-2.9365234,2.3510742c-0.5625,0.3061523-1.1152344,0.6367188-1.6699219,0.9672852
	c-1.7763672,1.059082-3.7910156,2.2602539-6.2314453,2.8066406c-0.0263672,0.0141602-0.2382812,0.1293945-0.3935547,0.2138672
	c-0.3261719,0.1767578-0.7314453,0.3974609-1.2128906,0.578125c-2.4736328,0.9287109-4.9042969,1.0541992-6.9550781,1.0541992
	c-0.5712891,0-1.1464844-0.0107422-1.7255859-0.0229492c-1.515625-0.0322266-2.9345703-0.2275391-4.3076172-0.4165039
	c-0.9599609-0.1323242-1.8662109-0.2573242-2.7597656-0.3203125c-3.0205078-0.2143555-5.5712891-1.4023438-7.9257812-2.6005859
	c-0.3417969-0.1743164-1.4033203-0.7290039-1.4033203-0.7290039c-1.1757812-0.4619141-1.8964844-1.1806641-2.1865234-2.15625
	c-0.1005859-0.065918-0.2265625-0.1435547-0.3310547-0.2070312c-0.4667969-0.2871094-1.0478516-0.6435547-1.5996094-1.2050781
	c-1.1972656-1.2192383-2.2958984-2.5019531-3.3583984-3.7421875l-0.8232422-0.9580078
	c-1.4199219-1.6420898-2.3125-3.472168-3.0654297-5.2050781c-1.7265625-3.9750977-2.7480469-8.2709961-3.0371094-12.7680664
	c-0.2216797-3.4418945,0.3583984-6.8720703,1.7714844-10.4863281c0.4814453-1.2304688,0.7939453-2.5625,1.1523438-4.1762695
	l0.2617188-1.1518555c0.3818359-1.6616211,0.7421875-3.230957,0.8457031-4.7446289
	c0.1552734-2.253418,0.1005859-4.5537109-0.1621094-6.8364258c-0.2705078-2.3632812-0.6943359-4.7929688-1.1035156-7.1430664
	c-0.1806641-1.0375977-0.3613281-2.0756836-0.53125-3.1147461l-0.0244141-0.1582031l-0.25-0.690918
	c-0.9873047-2.7255859-1.9736328-5.4511719-2.9716797-8.1733398c-0.4921875,0.6157227-0.9472656,1.3525391-1.4414062,2.1860352
	c-0.7099609,1.1977539-1.3535156,2.4326172-2.0361328,3.7392578c-0.2578125,0.4936523-0.515625,0.9873047-0.7763672,1.4790039
	c0,0-0.2158203,0.3881836-0.2509766,0.4580078c-0.4277344,2.2573242-1.1972656,4.3066406-1.9423828,6.2905273l-0.1513672,0.4047852
	c-0.7412109,1.9804688-1.3330078,4.012207-1.9589844,6.1630859l-0.4580078,1.5639648
	c-0.7158203,2.4155273-1.4121094,4.8364258-2.1083984,7.2578125l-1.0761719,3.7348633
	c-0.1123047,0.3867188-0.2519531,0.871582-0.46875,1.3847656c-1.3144531,3.121582-2.1669922,6.3935547-3.0683594,9.8579102
	c-0.3994141,1.5341797-0.8125,3.1206055-1.2685547,4.6875c-0.4365234,1.5004883-0.6611328,3.1293945-0.8984375,4.8535156
	c-0.109375,0.7900391-0.21875,1.5800781-0.3476562,2.3637695l-0.0019531,0.0639648
	c-0.0107422,0.453125-0.0322266,1.3955078-0.6582031,2.3066406c0.0039062,0.0922852,0.1347656,0.6162109,0.2216797,0.9624023
	l0.1289062,0.5263672c1.2080078,5.1694336,3.0449219,10.0629883,4.9902344,15.2441406l0.7773438,2.0751953
	c2.71875,7.2924805,3.7714844,13.394043,3.3115234,19.2021484c-0.2402344,3.0332031-0.7060547,6.2026367-1.4248047,9.6918945
	c-0.2539062,1.2304688-0.7490234,2.2949219-1.1855469,3.234375c-0.2763672,0.5927734-0.5361328,1.1533203-0.6835938,1.6464844
	c-0.6337891,2.1269531-1.5253906,4.0615234-2.3876953,5.9326172c-0.3867188,0.8388672-0.7734375,1.6767578-1.1318359,2.5273438
	c-0.0244141,0.0576172-0.0449219,0.1289062-0.0654297,0.1992188c-0.8496094,2.8857422-2.1308594,5.4902344-3.3701172,8.0087891
	c-0.2509766,0.5097656-0.5019531,1.0205078-0.7490234,1.5322266c-0.828125,1.7148438-1.78125,3.3339844-2.7021484,4.9003906
	c-0.3388672,0.5742188-0.6767578,1.1494141-1.0078125,1.7275391c-0.3505859,0.6123047-0.6914062,1.2304688-1.0332031,1.8486328
	c-0.9189453,1.6669922-1.8691406,3.390625-3.0234375,5.03125c-1.3251953,1.8808594-2.4716797,3.7099609-3.5068359,5.5927734
	c-0.5771484,1.0517578-1.2128906,2.0351562-1.828125,2.9863281c-0.8378906,1.2958984-1.6289062,2.5195312-2.1796875,3.7666016
	c-0.6269531,1.4189453-0.9560547,3.1074219-1.3027344,4.8955078c-0.0839844,0.4277344-0.3232422,1.6201172-0.3232422,1.6201172
	c-0.2539062,1.2529297-0.5410156,2.6728516-1.3007812,4.125c-0.0849609,0.1640625-0.171875,0.7255859-0.2285156,1.0976562
	c-0.0449219,0.2871094-0.0898438,0.5742188-0.1445312,0.8564453l-0.0029297,0.0957031
	c-0.0126953,0.4716797-0.0371094,1.3515625-0.5751953,2.2392578c-0.4492188,0.7402344-0.6650391,1.6972656-0.9150391,2.8056641
	c-0.1113281,0.4902344-0.2226562,0.9824219-0.3544922,1.4697266c-0.7431641,2.7568359-1.6660156,5.4609375-2.5595703,8.0751953
	c-0.2597656,0.7617188-0.5195312,1.5224609-0.7744141,2.2841797c-0.1943359,0.5791016-0.4492188,1.0566406-0.6552734,1.4414062
	c-0.0888672,0.1669922-0.1865234,0.3310547-0.2529297,0.5068359c-0.1611328,0.4257812-0.2988281,0.8613281-0.4384766,1.2958984
	c-0.2158203,0.6777344-0.4404297,1.3779297-0.7441406,2.1025391c-0.7470703,1.7783203-1.53125,3.5400391-2.3164062,5.3017578
	l-0.7851562,1.7666016c-0.2099609,0.4755859-0.4248047,0.9492188-0.640625,1.4238281l-0.4951172,1.0947266
	c-0.0527344,0.1201172-0.0957031,0.2441406-0.1396484,0.3671875c-0.1904297,0.5224609-0.4501953,1.2382812-0.9951172,1.9296875
	c-1.2402344,1.5683594-2.03125,3.5429688-2.7958984,5.4511719c-0.1445312,0.3642578-0.3583984,0.9052734-0.7939453,1.4365234
	c-1.0107422,1.2333984-1.3779297,2.6328125-1.1542969,4.4033203c0.0419922,0.3330078,0.0996094,0.6083984,0.1738281,0.8203125
	c0.2783203,0.8017578,0.578125,1.5976562,0.8779297,2.3935547c0.6445312,1.7119141,1.3105469,3.4814453,1.7929688,5.3515625
	c0.8271484,3.2080078,1.3447266,6.4023438,1.7802734,9.3759766c0.3837891,2.6210938,0.6425781,5.3789062,0.7714844,8.1972656
	c0.1230469,2.7011719,0.1591797,5.4267578,0.1943359,8.0625c0.0136719,1.0351562,0.0273438,2.0703125,0.0458984,3.1054688
	c0.0175781,0.9541016,0.0458984,1.9072266,0.0732422,2.8613281c0.0673828,2.3017578,0.1376953,4.6826172,0.0546875,7.0664062
	c-0.1337891,3.8486328,0.6396484,7.6181641,1.4570312,11.6083984l0.1748047,0.8544922
	c0.2177734,1.0673828,0.4208984,2.1367188,0.6230469,3.2060547c0.3291016,1.7314453,0.6679688,3.5205078,1.0615234,5.2382812
	c0.4707031,2.0527344,1.0341797,4.1494141,1.5791016,6.1767578c0.2060547,0.7646484,0.4121094,1.5302734,0.6142578,2.2958984
	c0.2246094,0.8535156,0.4394531,1.7109375,0.6552734,2.5673828c0.5224609,2.0820312,1.015625,4.0478516,1.6464844,5.9755859
	c0.65625,2.0048828,1.4316406,4.0439453,2.1826172,6.015625c0.5449219,1.4316406,1.0888672,2.8632812,1.6005859,4.3066406
	c1.4638672,4.1220703,3.0136719,8.5234375,4.4511719,13.0224609c0.3789062,1.1835938,0.4882812,2.3496094,0.5859375,3.3789062
	c0.0400391,0.4257812,0.0791016,0.8535156,0.1425781,1.2734375c0.5498047,3.6503906,1.1044922,7.2998047,1.6767578,10.9472656
	c0.1650391,1.0537109,0.3466797,2.1054688,0.5273438,3.1572266c0.1416016,0.8251953,0.2841797,1.6503906,0.4189453,2.4765625
	c0.2197266,1.3486328,0.9091797,2.6757812,2.1074219,4.0566406c1.3691406,1.578125,2.8818359,3.0400391,4.4824219,4.5888672
	c0.4365234,0.4208984,0.8720703,0.8427734,1.3046875,1.2666016c0.6796875,0.6650391,1.3886719,1.3056641,2.0966797,1.9472656
	c1.5175781,1.3730469,3.0869141,2.7939453,4.4560547,4.4833984c0.2490234,0.3076172,0.5058594,0.6142578,0.7646484,0.921875
	c1.5859375,1.8925781,3.375,4.0283203,4.0908203,6.9990234c1.0957031,1.7226562,1.8017578,3.5087891,2.4863281,5.2402344
	c0.2919922,0.7392578,0.5839844,1.4794922,0.9082031,2.2041016c0.5078125,1.1376953,1.0400391,2.2646484,1.5712891,3.3916016
	l0.8203125,1.7460938c0.0839844,0.1806641,0.1542969,0.3652344,0.2207031,0.5507812
	c1.7441406,2.5107422,3.2773438,6.6777344,1.1210938,12.578125c-1.4228516,3.8925781-4.3085938,6.8720703-8.125,8.3886719
	c-0.2763672,0.1103516-0.5400391,0.2539062-0.8056641,0.3925781c-0.2822266,0.1474609-0.5654297,0.2949219-0.8535156,0.4287109
	c-0.7597656,0.3515625-1.9042969,0.8818359-3.2919922,0.8818359c-0.8720703,0-1.7255859-0.2050781-2.5429688-0.6123047
	c-0.1757812,0.0195312-0.3984375,0.0546875-0.5898438,0.0849609c-0.2089844,0.0341797-0.4150391,0.0664062-0.6113281,0.0917969
	c-0.8789062,0.1142578-1.7646484,0.2714844-2.703125,0.4384766c-1.9130859,0.3408203-3.8916016,0.6923828-5.9697266,0.6923828
	h-0.1455078c-3.359375-0.0263672-6.8173828-0.4238281-10.2792969-1.1796875
	c-2.5683594-0.5605469-4.8242188-1.5625-7.0048828-2.53125c-0.7480469-0.3320312-1.4941406-0.6640625-2.25-0.9736328
	c-2.0859375-0.8544922-4.0878906-2.3417969-5.6347656-4.1875c-2.7167969-3.2431641-4.2871094-6.9443359-5.5791016-10.4619141
	c-0.2861328-0.7802734-0.6220703-1.5595703-0.9765625-2.3857422c-0.4863281-1.1298828-0.9882812-2.2978516-1.3964844-3.5478516
	c-1.3173828-4.0449219-1.5341797-7.6884766-0.6621094-11.1376953c0.3535156-1.4003906,0.5527344-2.8691406,0.5751953-4.25
	c0.0224609-1.3857422-0.1132812-2.484375-0.4042969-3.2626953c-1.734375-4.640625-3.7763672-8.5683594-6.2431641-12.0068359
	c-0.9355469-1.3037109-1.7041016-2.6591797-2.4482422-3.9707031c-0.3085938-0.5429688-0.6162109-1.0869141-0.9355469-1.6230469
	c-0.1875-0.3164062-0.9267578-1.5917969-1.1162109-1.9101562c-2.4902344-4.1748047-4.2128906-8.5136719-5.1201172-12.8955078
	c-0.7705078-3.71875-1.3916016-7.0917969-1.8994141-10.3115234c-0.359375-2.2753906-0.6552734-4.5791016-0.9414062-6.8066406
	c-0.1728516-1.3486328-0.3466797-2.6972656-0.5341797-4.0429688c-0.0800781-0.5751953-0.1962891-1.1455078-0.3105469-1.7167969
	c-0.0976562-0.4892578-0.1953125-0.9785156-0.2783203-1.4697266c-0.2480469-1.4824219-0.4873047-2.9658203-0.7265625-4.4492188
	c-0.4853516-3.0185547-0.9873047-6.1396484-1.5693359-9.1699219c-0.3603516-1.8779297-0.8125-3.7929688-1.2685547-5.6689453
	c-0.0791016,0.1142578-0.1601562,0.2275391-0.2402344,0.3417969c-1.0488281,1.4804688-1.9384766,2.7363281-2.4355469,4.1806641
	c-0.4121094,1.1962891-1.0273438,2.2246094-1.5693359,3.1318359c-0.3271484,0.5458984-0.6357422,1.0625-0.8603516,1.546875
	c-0.5683594,1.2246094-1.0537109,2.5039062-1.5683594,3.8583984L356.71875,616.28125
	c-0.3046875,0.7919922-0.6308594,1.5791016-0.9580078,2.3652344c-0.7490234,1.8066406-1.4570312,3.5136719-1.8730469,5.2246094
	c-0.4462891,1.8359375-1.0361328,3.5859375-1.6074219,5.2783203c-0.5791016,1.7197266-1.1269531,3.34375-1.515625,5.0029297
	c-0.7460938,3.1845703-1.5,6.4033203-2.1269531,9.5791016c-0.3671875,1.8554688-0.5488281,3.7324219-0.7421875,5.7207031
	c-0.0849609,0.875-0.1699219,1.7490234-0.2705078,2.6210938c-0.2441406,2.1035156-0.5195312,4.4882812-1.1464844,6.8964844
	c-0.2001953,0.7724609-0.3515625,1.5878906-0.5117188,2.4521484c-0.0712891,0.3867188-0.1425781,0.7724609-0.21875,1.1582031
	l-0.0927734,0.4394531c-0.0576172,0.2695312-0.1123047,0.5244141-0.1279297,0.6943359l-0.0878906,0.9912109
	c-0.1787109,2.0039062-0.3632812,4.0761719-0.4931641,6.0996094c-0.2207031,3.4003906-0.0966797,5.7753906,1.1894531,7.8525391
	c0.5244141,0.8476562,0.7480469,1.7021484,0.9267578,2.3896484l0.0429688,0.1630859
	c0.2363281,0.8955078,0.5361328,1.5615234,0.9716797,2.1611328c0.9550781,1.3134766,1.5146484,2.7695312,2.0078125,4.0546875
	c0.9121094,2.3740234,1.5693359,4.2626953,2.1005859,6.0341797l0.5097656,1.671875
	c1.4511719,4.7382812,2.9521484,9.6367188,2.65625,15.0664062c-0.1660156,3.0712891-1.84375,5.2636719-4.7236328,6.1728516
	c-0.0576172,0.0244141-0.2568359,0.1376953-0.4013672,0.2216797l-0.3466797,0.1962891
	c-0.4189453,0.2314453-0.8339844,0.4960938-1.2490234,0.7597656c-1.1142578,0.7060547-2.3779297,1.5058594-3.8955078,1.9326172
	l-0.6582031,0.1855469c-3.2275391,0.9121094-6.5654297,1.8544922-10.2011719,1.8544922
	c-0.8974609,0-1.7900391-0.0595703-2.6503906-0.1767578c-0.6416016-0.0878906-1.3710938-0.0927734-2.1435547-0.0986328
	c-0.5527344-0.0039062-1.1054688-0.0097656-1.6552734-0.0380859c-0.2070312-0.0107422-0.4160156-0.0146484-0.625-0.0185547
	c-1.1123047-0.0214844-2.6210938-0.0517578-4.1591797-0.8916016c-0.1298828-0.0234375-0.2666016-0.03125-0.3994141-0.0449219
	c-0.1474609-0.015625-0.2939453-0.03125-0.4365234-0.0498047c-3.6855469-0.4736328-6.6552734-1.7363281-9.0761719-3.8603516
	c-0.4628906-0.4072266-1.0439453-0.796875-1.6591797-1.2099609c-0.7363281-0.4951172-1.5712891-1.0556641-2.3486328-1.7490234
	c-2.8037109-2.4990234-4.5898438-5.6640625-5.3066406-9.4033203c-0.1416016-0.7402344-0.3056641-1.4755859-0.46875-2.2119141
	c-0.2910156-1.3144531-0.5927734-2.6738281-0.7880859-4.0849609l-0.0673828-0.484375
	c-0.2734375-1.9472656-0.5830078-4.1542969-0.3164062-6.3681641c0.390625-3.2353516,1.1845703-6.3574219,1.9521484-9.3779297
	c0.2792969-1.0986328,0.7353516-2.0634766,1.1376953-2.9150391c0.2207031-0.4667969,0.4296875-0.9072266,0.5830078-1.3164062
	c1.1552734-3.0664062,1.8896484-5.9404297,2.2451172-8.7861328c0.1386719-1.1142578,0.0126953-2.2509766-0.4111328-3.6855469
	c-1.1855469-4.0175781-2.2265625-7.9794922-1.9541016-12.2880859c0.0908203-1.4453125,0.1503906-2.8935547,0.2099609-4.3417969
	l0.0634766-1.5029297c0.1445312-3.3457031,1.3330078-6.3164062,2.4355469-8.8388672
	c1.3525391-3.0917969,2.7958984-6.1855469,4.1923828-9.1777344c1.7011719-3.6455078,3.4609375-7.4160156,5.0410156-11.1582031
	l0.4365234-1.03125c1.7753906-4.1904297,3.453125-8.1474609,4.4316406-12.3642578
	c0.3134766-1.3525391,0.7294922-2.6376953,1.1318359-3.8818359c0.3222656-0.9921875,0.6259766-1.9296875,0.8681641-2.8671875
	c0.4804688-1.8525391,0.8964844-3.7900391,1.2988281-5.6640625l0.5712891-2.625
	c0.2109375-0.9453125,0.4101562-1.8388672,0.5292969-2.7070312c0.1806641-1.3144531,0.3271484-2.6328125,0.4726562-3.9521484
	c0.0957031-0.8632812,0.1914062-1.7265625,0.2958984-2.5888672c0.0488281-0.4013672,0.125-0.7998047,0.2041016-1.1972656
	c0.0517578-0.2578125,0.1054688-0.5136719,0.1357422-0.7734375c0.0888672-0.7753906,0.1582031-1.5478516,0.2275391-2.3212891
	c0.1425781-1.5820312,0.2890625-3.21875,0.5966797-4.8701172l0.3613281-1.9628906
	c0.7050781-3.8535156,1.4345703-7.8388672,2.5830078-11.7138672c0.7978516-2.6904297,1.9335938-5.2216797,3.0322266-7.6689453
	c0.5039062-1.1240234,1.0087891-2.2470703,1.4765625-3.3828125c0.9892578-2.3974609,1.9541016-4.8056641,2.9189453-7.2128906
	l0.5136719-1.2822266c-0.8710938-1.1455078-1.6533203-2.3017578-2.4101562-3.421875
	c-0.3671875-0.5439453-0.7353516-1.0878906-1.109375-1.6259766c-0.28125-0.4023438-0.5693359-0.8017578-0.8574219-1.2001953
	c-0.3925781-0.5439453-0.7841797-1.0869141-1.1621094-1.640625l-1.0898438-1.5927734
	c-1.5615234-2.2802734-3.1757812-4.6386719-4.7304688-6.9970703c-1.4345703-2.1748047-2.6738281-4.1689453-3.7880859-6.0957031
	c-1.1240234-1.9423828-2.2148438-3.9287109-3.2705078-5.8486328c-0.4746094-0.8642578-0.9482422-1.7275391-1.4267578-2.5888672
	l-1.9091797-3.4326172l-0.7871094,0.1074219c-2.1025391,0.2841797-4.1923828,0.5664062-6.2773438,0.8847656
	c-1.2744141,0.1943359-2.5458984,0.4130859-3.8164062,0.6328125c-1.9238281,0.3310547-3.9130859,0.6738281-5.9130859,0.9296875
	c-1.6972656,0.2177734-3.3769531,0.2861328-5.0009766,0.3535156c-0.6547852,0.0263672-1.309082,0.0527344-1.9624023,0.0898438
	l-0.7578125,0.0429688c-2.2148438,0.125-4.4291992,0.25-6.644043,0.3603516
	c-2.1137695,0.1064453-4.0234375,0.1972656-5.9814453,0.2421875l-0.1235352,0.0019531
	c-0.659668,0-1.2382812-0.1230469-1.6635742-0.2148438c-1.4296875,1.7109375-2.8227539,3.3447266-4.215332,4.9775391
	c-1.2919922,1.5146484-2.5834961,3.0283203-3.859375,4.5556641c-2.1503906,2.5761719-4.03125,4.9013672-5.7495117,7.1103516
	l-1.0629883,1.359375c-1.7060547,2.1777344-3.4697266,4.4296875-4.996582,6.7158203
	c-2.3027344,3.4482422-4.8676758,7.609375-6.4311523,12.3271484c-0.8989258,2.7138672-1.7670898,5.6044922-1.6479492,8.4970703
	c0.1787109,4.3554688,0.4448242,8.2119141,0.8139648,11.7900391c0.3134766,3.0458984,0.8041992,6.265625,1.4575195,9.5703125
	c0.2539062,1.2822266,0.668457,2.5800781,1.1074219,3.9541016c0.2314453,0.7246094,0.4628906,1.4492188,0.6738281,2.1787109
	c0.1557617,0.5400391,0.2993164,1.0830078,0.4423828,1.6259766c0.1801758,0.6865234,0.3598633,1.3730469,0.5727539,2.0488281
	l0.2260742,0.7167969c0.6962891,2.2109375,1.4160156,4.4970703,2.206543,6.6826172
	c0.1948242,0.5380859,0.3764648,1.0810547,0.5581055,1.6230469c0.4526367,1.3544922,0.8803711,2.6337891,1.5141602,3.7666016
	c0.762207,1.3623047,1.1572266,2.8076172,1.5058594,4.0830078c0.2016602,0.7392578,0.3925781,1.4384766,0.6313477,2.0478516
	c0.4306641,1.0996094,0.9384766,2.1835938,1.4765625,3.3310547c0.4082031,0.8720703,0.8164062,1.7441406,1.1943359,2.6279297
	c0.2709961,0.6347656,0.4194336,1.2480469,0.5390625,1.7412109c0.0742188,0.3076172,0.1445312,0.5976562,0.2167969,0.7773438
	c0.5981445,1.4882812,1.2133789,2.96875,1.8286133,4.4501953c0.6123047,1.4736328,1.2246094,2.9482422,1.8203125,4.4287109
	c0.2597656,0.6445312,0.3779297,1.2519531,0.4726562,1.7402344c0.0356445,0.1835938,0.0688477,0.3691406,0.1181641,0.5488281
	c0.2055664,0.7490234,0.418457,1.4980469,0.6313477,2.2460938c0.3618164,1.2734375,0.7236328,2.546875,1.0532227,3.828125
	c0.1582031,0.6171875,0.3330078,1.2324219,0.5073242,1.8496094c0.5405273,1.9072266,1.0986328,3.8798828,1.2670898,6.0009766
	c0.0522461,0.6640625,0.1665039,1.3632812,0.2871094,2.1044922c0.3007812,1.8417969,0.6411133,3.9287109,0.1557617,6.25
	c-0.1367188,0.6542969-0.0776367,1.5410156-0.0146484,2.4794922c0.0498047,0.7421875,0.1010742,1.5087891,0.0761719,2.328125
	c-0.0332031,1.0869141-0.1318359,2.1416016-0.2270508,3.1611328c-0.0649414,0.6914062-0.1298828,1.3818359-0.1713867,2.0742188
	c-0.050293,0.8378906-0.1357422,1.6767578-0.222168,2.5166016c-0.1972656,1.9150391-0.3837891,3.7236328-0.0668945,5.3652344
	c0.2290039,1.1875,0.6464844,2.4082031,1.0883789,3.7001953l0.2915039,0.8583984
	c0.3828125,1.140625,0.7866211,2.2753906,1.1899414,3.4091797c0.6630859,1.8662109,1.3491211,3.7949219,1.9443359,5.7519531
	c1.2021484,3.9511719,1.5537109,7.9580078,1.894043,11.8330078l0.0888672,1.0029297
	c0.2329102,2.6035156,0.0654297,5.109375-0.0957031,7.5332031c-0.1235352,1.8505859-0.2397461,3.5976562-0.1806641,5.3203125
	c0.1137695,3.2939453-0.0849609,5.8818359-0.6430664,8.3916016c-0.1347656,0.6083984-0.2529297,1.2197266-0.3710938,1.8291016
	c-0.4042969,2.0869141-0.8222656,4.2441406-1.8525391,6.4287109c-0.1430664,0.3046875-0.2739258,0.6132812-0.4042969,0.9199219
	c-0.5141602,1.2089844-1.097168,2.5800781-2.2856445,3.84375
	C272.3842773,724.4121094,270.6010742,724.7792969,269.3950195,724.7792969z"/>
<path class="st0" d="M128.6134491,491.2649536c-1.1311646,2.7035217-2.1987762,5.4360657-3.4163055,8.1000977
	c-0.7884598,1.7253418-1.8019867,3.3473206-2.702301,5.0222473c-0.3207779,0.5967712-0.6011887,1.2150879-0.906723,1.8201904
	c-1.1358871,2.2496033-2.1481094,4.5600586-3.6681213,6.6072083c-0.6532059,0.8796997-1.0172882,1.9680176-1.5994949,2.9077759
	c-1.0386963,1.6765137-2.141243,3.3135376-3.2229233,4.9632568c-0.134903,0.2057495-0.3617859,0.3653564-0.4507675,0.5849609
	c-1.6934891,4.1791992-5.0116882,7.312561-7.188797,11.1975098c-1.5297012,2.7296753-3.5337601,5.1956787-5.3535843,7.7598877
	c-1.8186264,2.562439-3.6661606,5.1045532-5.5115356,7.6479492c-0.9778595,1.3476562-1.965126,2.6889648-2.9714203,4.0155029
	c-1.3031387,1.7177124-2.5845261,3.4550171-3.9555359,5.1176758c-2.5482559,3.0903931-5.0261154,6.2543945-7.7726593,9.161499
	c-2.788559,2.9517212-5.8744736,5.6217041-8.8128052,8.4332275c-1.1142731,1.0661621-2.1571198,2.2073364-3.2781982,3.2659912
	c-0.5223923,0.4932861-1.1580811,0.8654785-1.7345886,1.3029175c-1.5103455,1.1459961-2.9846039,2.3431396-4.5363541,3.4297485
	c-0.9014091,0.6312256-1.9244652,1.0886841-2.8927917,1.6243286c-0.5405731,0.2990112-1.0992317,0.569519-1.6186676,0.9015503
	c-2.3291473,1.4887695-4.6449699,2.9983521-6.9711761,4.4917603c-0.4148254,0.2662964-0.8317413,0.5588379-1.2893143,0.723877
	c-2.1420479,0.7728271-4.2884064,1.5368652-6.4540672,2.2397461c-1.2295113,0.3991089-2.4704094,0.585144-3.8112526,0.3360596
	c-1.0732803-0.1993408-2.2179794,0.0056763-3.3305626-0.0065308c-1.7357445-0.019043-3.067791-1.2838135-3.3191147-3.0048828
	c-0.3503418-2.399231,0.3529892-4.5767212,0.9806137-6.8656616c0.9356766-3.4125366,3.2656822-6.0566406,4.4999924-9.2716675
	c0.2806511-0.7310181,0.9392891-1.3084717,1.2927132-2.0217285c0.6773758-1.3668823,1.2875748-2.7692261,1.8721809-4.1790161
	c0.3154564-0.7606812,0.2197456-1.737915,1.2818642-2.0524292c0.1832314-0.0542603,0.2938004-0.3796387,0.4223099-0.5893555
	c2.4069672-3.9273682,4.6567154-7.9294434,6.1847687-12.3041382c0.5675316-1.6248169,1.3531532-3.1721802,1.9564018-4.7859497
	c1.6154747-4.3214722,3.248394-8.6381226,4.7595215-12.996521c2.1360703-6.1608887,4.0859261-12.387146,6.2800636-18.5266113
	c1.1453094-3.2047119,1.9963341-6.4694214,2.8372803-9.7542725c0.8672028-3.3874207,1.9504471-6.7188721,2.8800888-10.0911255
	c1.0323181-3.744751,2.0288925-7.5000305,2.9832153-11.2654114c0.8476791-3.3446045,1.6651459-6.6984558,2.406189-10.0679932
	c0.7681503-3.4927368,1.371315-7.0219116,2.1495514-10.512207c1.0954056-4.9126892,2.2613602-9.8100586,3.4446793-14.7025452
	c0.6786804-2.8059998,1.4781799-5.5826111,2.1747284-8.3845215c0.8021927-3.2268677,1.5358047-6.4706726,2.327095-9.7003174
	c0.7322159-2.9885254,1.5060425-5.9668274,2.2525177-8.9518738c0.5523758-2.2089844,1.0291824-4.4388123,1.6464691-6.6292419
	c1.6362228-5.8061218,3.1756287-11.6467896,5.0582504-17.3735352c1.169632-3.5579224,2.7643051-6.9963684,4.4022598-10.375
	c2.0913391-4.3138733,4.3746185-8.5372009,6.6579132-12.7547913c1.9338455-3.5721436,3.9055786-7.1288147,6.0059662-10.6044617
	c2.3868408-3.9496155,4.7302017-7.953125,7.4673309-11.6561584c3.1454773-4.2554626,6.7882156-8.1252441,10.6483231-11.7727966
	c1.2968292-1.2254333,2.3302612-2.7527771,3.7082977-3.8641052c2.5399933-2.0484009,3.6436005-4.9855347,5.1944733-7.6582642
	c0.4924622-0.8486938,1.0742035-1.6450195,1.5926819-2.479248c2.509201-4.037384,5.3246918-7.8656921,8.5235596-11.3629761
	c2.5315704-2.7677002,5.0747986-5.5686951,8.1432953-7.7969971c2.3418427-1.700592,4.6112518-3.5118103,7.0350342-5.0857544
	c2.5211639-1.6371765,5.2781677-2.916626,7.7654877-4.5987854c2.1176605-1.4321289,4.5299683-1.8504333,6.8450623-2.6392517
	c0.6859589-0.2337646,1.444931-0.51474,1.9355011-1.0078125c1.1513672-1.1572571,2.594162-1.6296692,4.0819855-1.9685364
	c2.8786774-0.6556396,5.7957001-1.1444397,8.6704865-1.8152466c3.6923218-0.8616028,7.46698-0.992157,11.2049103-1.0662537
	c3.3665161-0.0667419,6.7457428,0.506897,10.1192169,0.7998047c0.0605621,0.005249,0.1321869,0.0154724,0.1769714,0.0508423
	c1.6374969,1.2930603,3.3398132,0.651062,5.0936432,0.2746582c3.1266479-0.6710205,6.2654266-1.3637085,9.4357758-1.7290955
	c2.745224-0.3164062,5.5411072-0.2021484,8.3149872-0.2572327c1.2958374-0.0257568,2.6068268-0.1244812,3.8863068,0.0232239
	c3.4272766,0.3956299,6.8294678,1.046936,10.2635803,1.3348999c4.0049896,0.3357849,7.6686249,1.8597412,11.4210358,3.0231323
	c3.3998718,1.0540771,6.6593018,2.5700989,9.9595032,3.9335938c2.5042725,1.034668,4.9795837,2.1399536,7.4597473,3.2320862
	c1.9204102,0.8456726,3.8466187,1.6818542,5.7354126,2.5943604c1.2402649,0.5991516,2.189209,0.4039917,3.1279297-0.6070251
	c1.7181396-1.8504944,3.4873962-3.6559448,5.2852783-5.4295654c4.9361267-4.8695984,10.4931946-8.951355,16.2826538-12.7332153
	c1.3276367-0.8672791,2.63797-1.7621155,3.9848022-2.5983276c0.4557495-0.282959,1.0149231-0.3932495,1.5003967-0.635498
	c2.2567749-1.125946,4.503479-2.2720642,6.7553101-3.4078979c1.6470032-0.8307495,3.2392883-1.8105164,4.9581604-2.4485779
	c2.5336304-0.9404907,4.8346863-2.4808655,7.5762329-2.9066467c0.4745789-0.0737305,0.9787598-0.5418396,1.293396-0.9601135
	c1.3718872-1.823761,2.6981506-3.6829529,4.0029297-5.5557556c0.9482117-1.3609924,1.8176575-2.7765808,2.7559204-4.1446838
	c2.0525208-2.9928589,4.0871887-5.9993896,6.206604-8.9445343c1.2580872-1.7481995,2.6510315-3.4004517,4.0059204-5.0776367
	c2.0084229-2.4861755,4.0057678-4.9824371,6.0653992-7.4258728c2.1028748-2.4947205,4.1131287-5.098587,6.4507446-7.3579407
	c5.0018311-4.8343811,10.1337585-9.5388641,15.3221436-14.1737061c2.7505798-2.4571381,5.6653137-4.7454224,8.6283569-6.9450378
	c2.3198547-1.722168,4.8299255-3.1876984,7.2511597-4.7738953c0.6686401-0.4380493,1.3111267-0.9163818,1.9841309-1.3473511
	c1.2946777-0.8291779,2.5501099-1.7409973,3.9153137-2.4345703c3.4559326-1.7557068,6.8771362-3.6295929,10.4742126-5.0442047
	c3.8283691-1.5055847,7.4515686-3.546814,11.5182495-4.4720917c1.2355347-0.2811127,2.3328552-1.1356506,3.5625-1.4835968
	c3.0837708-0.8726196,6.2813721-1.3936615,9.2948914-2.4504242c3.4844666-1.2218628,7.072937-1.5357513,10.6651306-2.0514832
	c2.7634888-0.3967438,5.5116882-0.5999298,8.2976685-0.5992737c1.4710388,0.0003357,2.9390564-0.3324432,4.414032-0.4174957
	c1.7131042-0.0987549,3.4327393-0.0801086,5.1489258-0.1323395c1.6646729-0.0506744,3.3282471-0.1390381,4.9929504-0.1880341
	c1.7859192-0.0525665,3.5730286-0.1191254,5.3588562-0.1008606c1.0634766,0.0108795,1.9375916-0.2846985,2.6128845-1.108017
	c1.2519836-1.5263977,2.508728-3.0491486,3.7418213-4.590744c1.0306091-1.2884064,1.9476013-2.6773224,3.059021-3.8896179
	c3.3762512-3.6827087,6.79776-7.3248596,10.2547302-10.9319916c1.187439-1.2390289,2.5117798-2.3505707,3.8081665-3.4806671
	c1.9896851-1.7344971,3.893219-3.6004944,6.0456848-5.1072388c2.6564636-1.8595276,5.4654541-3.5636597,8.7792664-4.0561981
	c0.7225342-0.1073914,1.4904175-0.1167908,2.2092285,0.0009155c1.5697021,0.2570496,2.5586548,1.4149628,2.5550537,3.0625763
	c-0.0037842,1.714859-0.1328735,3.4313507-0.2634888,5.1428223c-0.0363159,0.4755707-0.2069092,0.9699402-0.4284058,1.3974457
	c-1.1119385,2.146698-1.7803345,4.427475-2.3845215,6.7640076c-0.6009521,2.324295-1.2915649,4.619751-1.5030518,7.0181274
	c-0.2845459,3.2255249,0.4585571,6.1718292,2.151123,8.9807587c1.5084839,2.503418,3.663147,3.2337952,6.3602905,3.1282806
	c1.4787598-0.0578613,2.9680786,0.0624542,4.4398804-0.0560455c1.8064575-0.1454468,3.6049194-0.4246979,5.3942871-0.7216492
	c0.3745728-0.0621643,0.7357178-0.4109802,1.0335083-0.6994019c3.1884766-3.0875549,6.505249-6.0445557,9.239563-9.579834
	c2.4123535-3.1189575,5.019104-6.0892639,7.3884277-9.2391968c2.0311279-2.7002258,3.8621216-5.5521698,5.7521362-8.3568573
	c0.7645264-1.1345978,3.6004028-2.5137634,4.7000122-1.8913574c0.9454956,0.5351868,1.6828613,1.5602264,2.3171997,2.5003052
	c1.9976196,2.960495,2.1003418,6.2879028,1.666626,9.690033c-0.4361572,3.421875-0.7718506,6.8603821-1.3428955,10.2594757
	c-0.2508545,1.4937439-0.9170532,2.9319-1.4984131,4.3528748c-1.0316772,2.5214233-2.1582642,5.0038452-3.2105713,7.5170898
	c-0.331543,0.7916412-0.4494629,1.6833191-0.8426514,2.4365845c-1.3380737,2.5638885-2.7340088,5.0984802-4.1573486,7.6162567
	c-0.3587036,0.6344757-0.9119873,1.1570129-1.3569336,1.7452698c-0.3338013,0.4413757-0.8967285,0.9000549-0.9065552,1.3606262
	c-0.0308228,1.4435577-0.8664551,2.2270508-2.0708008,2.8682098c0.5498657,0.9860077,0.2150879,1.8389587-0.2835083,2.6208344
	c-1.4689941,2.3033905-1.7653198,4.9545593-2.2283936,7.5401001c-0.5197144,2.901886-0.895752,5.8299255-1.3137207,8.749527
	c-0.428772,2.9948425-0.6596069,5.9898224-0.328064,9.0242462c0.1940308,1.7758789,0.0147705,3.5939331,0.2279663,5.3660126
	c0.4335938,3.6040192,1.0222168,7.1893005,1.5400391,10.7832947c0.1052856,0.7311401,0.1470947,1.4724579,0.2753906,2.1989746
	c0.2768555,1.5684204,0.5429688,3.1412354,0.899231,4.6925964c0.8499146,3.7014771,1.2136841,7.3880005,0.2653809,11.1461487
	c-0.447937,1.7752686-0.6983032,3.5764465-1.4053345,5.308136c-1.6287231,3.9888306-4.2922363,7.3036194-6.7300415,10.7645874
	c-1.9142456,2.7176514-4.0245361,5.298645-5.9032593,8.0393982c-0.8616333,1.2570496-1.4417114,2.7246399-2.0335083,4.14505
	c-0.9471436,2.2729187-1.8511353,4.5671387-2.6741943,6.8875427c-0.8415527,2.3723755-1.4897461,4.8140869-2.3528442,7.1779175
	c-2.1035156,5.7612305-2.7217407,11.8861084-4.4302368,17.7412415c-0.3392334,1.1628113-0.3521729,2.4408264-1.2642212,3.4017944
	c-0.147522,0.155426-0.2213745,0.485321-0.1762695,0.7028198c0.475769,2.2939758-0.5762329,4.35849-0.9511719,6.5221558
	c-0.6002197,3.4640503-1.227478,6.9233398-0.9199829,10.467926c0.0251465,0.2900696-0.0515137,0.5918579-0.0999756,0.8850403
	c-0.65979,3.9910278-1.218689,7.9980164-2.531189,11.8570557c-0.6455078,1.8977051-0.8722534,3.9546814-1.6480103,5.7874451
	c-1.3200073,3.1184998-3.1227417,5.9623718-5.666687,8.2995605c-1.948761,1.7903748-3.7557068,3.7341309-5.6610718,5.5730591
	c-0.8313293,0.8023376-1.655365,1.6889954-2.6498108,2.2303467c-2.3182373,1.2618713-4.4661255,2.886261-7.1254272,3.4821472
	c-0.7007751,0.1570129-1.3182983,0.6529236-2.0049744,0.9108276c-2.4489746,0.9197998-4.9642334,0.8956909-7.5617981,0.8403931
	c-2.3502197-0.0500488-4.6061096-0.5662842-6.9197388-0.7302246c-2.4304199-0.1722412-4.6289062-1.1879883-6.7764587-2.2813721
	c-0.489624-0.2492676-0.9750366-0.5066833-1.4624634-0.7602234c-0.21521-0.111908-0.5921936-0.1919861-0.6209412-0.3399048
	c-0.2927551-1.5059814-1.7904358-1.7434082-2.6584778-2.6268921c-1.4232483-1.4485168-2.7212524-3.0213623-4.0517273-4.5593567
	c-1.1378784-1.3153381-1.8874207-2.8375549-2.5828552-4.4382019c-1.6377869-3.7695618-2.5338745-7.697876-2.7954407-11.7642517
	c-0.2037659-3.1678467,0.408783-6.2281189,1.5717163-9.2020264c0.5791626-1.4812622,0.9406433-3.0583496,1.2866211-4.6173706
	c0.4660645-2.1001892,1.0254517-4.2107849,1.1721191-6.3425293c0.1684875-2.4483337,0.1057739-4.9448853-0.1742554-7.3840027
	c-0.4000549-3.4839478-1.0885315-6.9347534-1.6549377-10.3995667c-0.0298462-0.1826477-0.0466919-0.3721313-0.1090393-0.5441589
	c-1.3586426-3.7504883-2.7153015-7.50177-4.0960083-11.2441711c-0.1642456-0.4451294-0.4655457-0.8397217-0.7330627-1.3100891
	c-2.6492615,0.9548035-4.0154419,3.0635986-5.2912903,5.2176208c-1.0296021,1.7383118-1.9316711,3.5524597-2.8803711,5.3382568
	c-0.202301,0.3808899-0.450592,0.7684937-0.5256042,1.1806641c-0.3991699,2.1949768-1.2005615,4.2478638-1.9792786,6.3287659
	c-0.9692688,2.5899353-1.6982727,5.2717896-2.4848938,7.9276123c-1.0849915,3.6632385-2.1256714,7.3395996-3.1888428,11.0093689
	c-0.1029968,0.3553162-0.2077332,0.7132263-0.3510132,1.0533752c-2.0204163,4.7960815-3.0087585,9.9059753-4.4538879,14.8738708
	c-0.7181702,2.4691467-0.9122009,5.0909729-1.3384705,7.6445312c-0.0606079,0.3629456,0.0254517,0.8121338-0.1596069,1.0820618
	c-0.8862,1.2929688-0.4122009,2.5260925-0.0984192,3.8693848c1.4203491,6.0799866,3.7043457,11.8565369,5.8777466,17.6858215
	c2.1447144,5.7519836,3.6243286,11.7022705,3.1324158,17.9179382c-0.247406,3.1263733-0.7395935,6.2496643-1.3726501,9.3225403
	c-0.3291626,1.598114-1.3334961,3.0453491-1.8056335,4.6285095c-0.8490601,2.847229-2.2660522,5.4391479-3.4090881,8.1529541
	c-0.0717468,0.1703796-0.1290283,0.3477478-0.1813049,0.5253296c-0.938324,3.1876831-2.5084839,6.1076965-3.9414062,9.076355
	c-1.067749,2.2121887-2.3869934,4.3038025-3.6107178,6.4396667c-1.2782593,2.2310486-2.4334412,4.5513611-3.9078674,6.6457825
	c-1.3381348,1.9007874-2.5629272,3.8394165-3.6809998,5.8743286c-1.3022766,2.3702698-3.0386047,4.5287476-4.1230469,6.9838562
	c-0.9317627,2.1095276-1.2807922,4.4928894-1.7515564,6.7831116c-0.2606812,1.2683105-0.470459,2.4964294-1.0895996,3.6800842
	c-0.4388428,0.8390198-0.4801941,1.8898315-0.6744995,2.8510437c-0.0854797,0.422821,0.0202026,0.9368286-0.1842957,1.2739868
	c-0.9497375,1.56604-1.1382141,3.3349304-1.6004333,5.050293c-0.927063,3.4406433-2.1482849,6.802887-3.2814941,10.1863098
	c-0.2137756,0.6382446-0.6303711,1.2064514-0.8694153,1.8387146c-0.4117737,1.0888367-0.6942749,2.229187-1.1439514,3.3005066
	c-0.9880371,2.354187-2.0445862,4.6796875-3.0775757,7.0148926c-0.3712769,0.8393555-0.7575989,1.6719971-1.1322021,2.5098267
	c-0.2488403,0.5565186-0.3856506,1.1985474-0.7511902,1.6611938c-1.4738464,1.8654175-2.3553162,4.0227661-3.224884,6.1939087
	c-0.090271,0.2254028-0.1786804,0.4668579-0.3292542,0.6506348c-1.6043091,1.9580688-2.1218262,4.2091675-1.810791,6.6798096
	c0.0607605,0.4827271,0.1576538,0.9711914,0.3166809,1.4296265c0.8683777,2.5039062,1.9399109,4.9532471,2.5992126,7.5095825
	c0.7663269,2.9717407,1.2715149,6.0211182,1.7166748,9.0621948c0.3826599,2.6140137,0.6230164,5.2591553,0.7435913,7.8988647
	c0.1685486,3.6912231,0.1709595,7.3901367,0.2376709,11.0858765c0.0587769,3.2567749,0.2419128,6.5184326,0.129303,9.7695923
	c-0.1557922,4.4981079,0.8047791,8.8182373,1.6902161,13.1651001c0.5777588,2.8365479,1.0540161,5.6954956,1.7003784,8.5158691
	c0.6585999,2.8739624,1.4641113,5.7144775,2.2157288,8.5668945c0.7666016,2.9094238,1.4179993,5.8574829,2.3522644,8.7125244
	c1.1465149,3.5038452,2.5733643,6.914856,3.8074341,10.3914185c1.5238953,4.2932129,3.0336609,8.5936279,4.4205933,12.9321289
	c0.4238586,1.3258667,0.4082642,2.7897949,0.6188965,4.1867065c0.5513306,3.6561279,1.1070251,7.3117676,1.6800537,10.9645386
	c0.296051,1.8873291,0.6413879,3.7668457,0.9487915,5.6524658c0.3494568,2.144104,1.4405518,3.970459,2.8023682,5.5397949
	c1.8482971,2.1298218,3.9354248,4.0553589,5.9550476,6.0327759c2.1068726,2.0629883,4.4780579,3.9029541,6.3203125,6.1755371
	c1.7146912,2.1152344,3.7454834,4.1522217,4.3312988,7.0131836c0.0244141,0.1191406,0.0697327,0.2427979,0.1369934,0.3431396
	c1.5201721,2.2674561,2.2736511,4.8855591,3.373291,7.34552c0.776947,1.7379761,1.6074829,3.4519043,2.4106445,5.1782837
	c0.1293945,0.2780762,0.1917114,0.6000977,0.3672485,0.8421631c2.2872009,3.1549072,2.0745239,6.7159424,0.8774414,9.9908447
	c-1.0820923,2.9603882-3.2745056,5.3828735-6.4149475,6.6304932c-0.6246948,0.24823-1.2054138,0.6049194-1.8169556,0.8887939
	c-1.1247864,0.5220337-2.1509094,0.9610596-3.471344,0.173584c-0.660614-0.3939819-1.7884216-0.0977173-2.6877136,0.0189209
	c-2.8067932,0.3640747-5.6081238,1.1281738-8.4064026,1.1057129c-3.2207642-0.0258789-6.4573669-0.4099121-9.6624451-1.1099854
	c-3.1180725-0.6810913-5.8797913-2.1706543-8.7573242-3.3500366c-1.63974-0.6721191-3.2237854-1.8478394-4.4745178-3.340271
	c-2.3822632-2.8428345-3.8046875-6.1461182-5.0618591-9.5682983c-0.7215881-1.9643555-1.68927-3.8433228-2.3360596-5.8291016
	c-1.0041809-3.0830688-1.4274597-6.2252197-0.6065063-9.4736328c0.4049072-1.6020508,0.6397095-3.2836914,0.6663818-4.9338989
	c0.0235596-1.456665-0.0904541-3.0162964-0.5935669-4.3623047c-1.6799316-4.4945068-3.7984924-8.7788086-6.6161194-12.7063599
	c-1.2164612-1.6956787-2.1720276-3.5787354-3.2428284-5.37854c-0.3776855-0.6348877-0.7406921-1.2783813-1.118988-1.9129028
	c-2.2267151-3.7348022-3.8764954-7.708252-4.7588196-11.9674683c-0.6990967-3.374939-1.3361816-6.7662354-1.8729858-10.1703491
	c-0.5656128-3.5865479-0.966217-7.1989746-1.4674988-10.7961426c-0.152832-1.0965576-0.4176636-2.177124-0.6012878-3.2700806
	c-0.7665405-4.5630493-1.4367371-9.1442871-2.3087158-13.6869507c-0.6605835-3.4414673-1.5768433-6.8336792-2.3694458-10.250061
	c-0.1235962-0.5326538-0.1945801-1.0775146-0.3208923-1.7921143c-0.3397217,0.2111816-0.6418152,0.2999268-0.781311,0.5013428
	c-1.1575317,1.6715698-2.2550964,3.3851318-3.4303894,5.0437622c-1.1034546,1.557312-2.1852417,3.0780029-2.8258667,4.9388428
	c-0.532196,1.5458984-1.6176147,2.8919678-2.3138733,4.3933716c-0.7707214,1.6618652-1.3930359,3.3937988-2.052124,5.105896
	c-1.0172729,2.6426392-2.2825623,5.2283325-2.9464722,7.9588013c-0.8514099,3.5015869-2.3053589,6.7935181-3.1281433,10.3057251
	c-0.7552185,3.2237549-1.5072021,6.4311523-2.1499939,9.6832275c-0.5641785,2.8544922-0.7208557,5.7302246-1.0497437,8.5776978
	c-0.2533875,2.1939087-0.513855,4.3504028-1.0693054,6.4857178c-0.3235168,1.2435913-0.5200195,2.5203857-0.7702332,3.7828979
	c-0.0957947,0.4835205-0.2225342,0.965332-0.2658081,1.4540405c-0.2113953,2.3855591-0.4328613,4.7709351-0.5874329,7.1605225
	c-0.2153931,3.329895-0.2207642,6.6294556,1.6334839,9.6247559c0.3172302,0.5124512,0.4624023,1.1450806,0.6194153,1.7400513
	c0.3009644,1.1401978,0.7280884,2.1709595,1.4459229,3.1584473c0.7416382,1.0202637,1.2098083,2.2637329,1.669281,3.4589233
	c0.7251282,1.8863525,1.4119568,3.7931519,1.993103,5.7279663c1.5413208,5.1315918,3.3434448,10.2124023,3.0438843,15.713562
	c-0.0951233,1.746521-0.9010925,2.9282837-2.6322632,3.4750977c-0.4532166,0.1431274-0.8675537,0.4174194-1.2895203,0.6500854
	c-1.5007324,0.8275757-2.9074097,1.9820557-4.5126343,2.4329224c-3.9975891,1.1229248-8.014801,2.362793-12.2905579,1.7786865
	c-1.3311157-0.1818237-2.6979065-0.0893555-4.0464172-0.1599121c-1.2147217-0.0635986-2.4455872,0.0731812-3.5940552-0.5977783
	c-0.5039368-0.2943726-1.1885071-0.3081055-1.7991028-0.3865356c-2.785553-0.3579102-5.3175659-1.2392578-7.4822693-3.1398926
	c-1.2373352-1.0863037-2.7618103-1.84729-3.9897156-2.9422607c-2.3110352-2.0609131-3.7691345-4.6605835-4.3578796-7.7310791
	c-0.3934021-2.0516357-0.9456787-4.0784302-1.2316284-6.1434326c-0.2785645-2.0119019-0.6159363-4.0952759-0.3763428-6.0806885
	c0.3658752-3.0324097,1.1255798-6.027832,1.880249-8.9978027c0.3439331-1.3536377,1.1234131-2.5907593,1.6212158-3.9124146
	c1.1546021-3.0655518,2.0066528-6.2133789,2.4140625-9.4730835c0.2097473-1.6786499-0.0275879-3.2696533-0.5106506-4.9067993
	c-1.0802917-3.6609497-2.0829468-7.3571167-1.8371277-11.2493896c0.1241455-1.9656372,0.1908875-3.9351196,0.2761841-5.9031372
	c0.1197205-2.7601318,1.1155701-5.3154907,2.1879578-7.7675781c2.987854-6.8321533,6.3474731-13.5040894,9.2477722-20.3712769
	c1.9109192-4.5245361,3.9043274-9.048645,5.0263672-13.8838501c0.5235901-2.2563477,1.400238-4.428772,1.9820862-6.6741333
	c0.6620178-2.5544434,1.1812134-5.1463013,1.7472229-7.7252808c0.2634888-1.2005615,0.5541077-2.4003906,0.7209167-3.6157837
	c0.3005981-2.1901855,0.507782-4.3930054,0.7746887-6.5880737c0.0812683-0.668396,0.2650757-1.3245239,0.3421021-1.9931641
	c0.268158-2.3274536,0.3651733-4.6849365,0.7927551-6.9815063c0.8346558-4.4833374,1.5784302-9.0135498,2.8711853-13.3726807
	c1.0963135-3.6967773,2.9264221-7.1743164,4.4060974-10.7595825c1.1701355-2.8352661,2.305542-5.6849365,3.4472351-8.5318604
	c0.385498-0.9611816,0.4466858-1.828186-0.276062-2.7637939c-1.2684937-1.6420288-2.382843-3.40271-3.5710754-5.1071777
	c-0.6588745-0.9451904-1.3529968-1.8659668-2.0028687-2.8171997c-1.9420776-2.8425903-3.8985291-5.6760254-5.7937317-8.5497437
	c-1.2844849-1.9477539-2.5270996-3.9272461-3.6953125-5.9464111c-1.6030273-2.7706299-3.117218-5.5926514-4.6708984-8.3918762
	c-0.9533386-1.7176514-1.9093628-3.4338074-2.9059143-5.2256165c-3.0742798,0.4259644-6.1142578,0.8142395-9.1430969,1.2758484
	c-3.2236328,0.4912109-6.4256287,1.1380615-9.6581421,1.5525513c-2.2319336,0.2862244-4.4995117,0.2967834-6.7515259,0.4239807
	c-2.4605713,0.1390381-4.9211426,0.2794495-7.3825378,0.4022827c-1.9659119,0.098114-3.9325867,0.1946411-5.900116,0.2394409
	c-0.5392151,0.0122681-1.082489-0.1656189-1.6243286-0.25354c-0.9386902-0.1523438-1.6173096,0.1717834-2.2443542,0.9267273
	c-2.7126465,3.2658081-5.5054626,6.4649353-8.2270508,9.7234802c-1.9756165,2.3654175-3.9217529,4.7576294-5.8146362,7.1895142
	c-2.1118469,2.7132568-4.2799683,5.3972168-6.186615,8.2521362c-2.7307434,4.0888672-5.2135162,8.3108521-6.7841034,13.0498047
	c-1.0403442,3.1390991-1.9338989,6.2620239-1.7981262,9.5640869c0.1643372,3.9967041,0.4173126,7.9962158,0.8273315,11.9743652
	c0.3400116,3.2990723,0.8556519,6.590332,1.4989929,9.8444214c0.4280548,2.1651611,1.2262268,4.2563477,1.842041,6.385498
	c0.3595734,1.243103,0.6471558,2.5080566,1.0360565,3.7414551c0.7933655,2.5161743,1.575531,5.0385742,2.4726105,7.5184937
	c0.7081451,1.9577026,1.2279205,3.961792,2.2758331,5.8347168c0.9733276,1.739563,1.221344,3.8692017,1.9612122,5.7595825
	c0.8036499,2.0533447,1.8384705,4.0150757,2.7060242,6.045166c0.3337708,0.7810669,0.4133911,1.6689453,0.7310486,2.4589844
	c1.1937561,2.96875,2.4546509,5.9104614,3.6494141,8.8787842c0.2486572,0.6178589,0.3022766,1.3115845,0.4802856,1.9608765
	c0.5513306,2.0113525,1.1531982,4.0095215,1.6720276,6.0290527c0.625824,2.4359131,1.4932251,4.8643188,1.6893616,7.3408813
	c0.1965027,2.480896,1.0409241,4.9041748,0.4974976,7.5026245c-0.3558044,1.7012329,0.0536499,3.5507202-0.000946,5.3300781
	c-0.0527344,1.7181396-0.2913818,3.4296265-0.394104,5.1472778c-0.1719971,2.8757935-0.7945862,5.7579956-0.240509,8.6306152
	c0.3242493,1.6810913,0.934021,3.312561,1.4817505,4.9440308c1.0181274,3.0328369,2.1779175,6.0210571,3.1081543,9.0797729
	c1.209259,3.9761353,1.4958191,8.1040649,1.8649597,12.2306519c0.3816223,4.2663574-0.4317017,8.4727783-0.2864075,12.6897583
	c0.0899658,2.6089478-0.0044556,5.0791016-0.572998,7.6369019c-0.5726013,2.5760498-0.8544312,5.1804199-2.0088501,7.6292725
	c-0.6507263,1.3803101-1.0713806,2.8287354-2.162384,3.9884644c-1.0517273,1.117981-2.2221069,1.4179688-3.6422424,0.9713135
	c-0.2914734-0.0916748-0.5793762-0.2201538-0.8783875-0.258667c-2.5575867-0.3295288-5.1324768-0.5540161-7.6717834-0.9879761
	c-2.0499268-0.3502808-4.0002289-1.0388794-5.7726898-2.2336426c-2.9552765-1.9919434-6.0493011-3.7824707-8.9593811-5.8356934
	c-2.102417-1.4833374-4.2485657-3.0405273-5.9172363-4.9623413c-1.4890137-1.7150269-3.0644684-3.5494385-3.6244659-5.9172974
	c-0.0840149-0.3552246-0.2734375-0.6888428-0.4355927-1.0219116c-1.6575165-3.4050903-1.7323914-7.0115356-1.4603271-10.6912842
	c0.3056946-4.1343384,2.0563507-7.5178223,5.0947266-10.2616577c3.2663422-2.949646,4.1369019-6.8434448,4.5113678-10.9822388
	c0.2316742-2.5606689-0.577713-4.6056519-2.2846985-6.545105c-1.9983215-2.2703857-3.3562164-4.991394-4.5654449-7.7824707
	c-2.4612274-5.6809082-3.401123-11.65625-3.7695465-17.7787476c-0.1849365-3.0732422-0.5450745-6.1378784-0.9024048-9.1975708
	c-0.1131897-0.9692993-0.4946747-1.9049072-0.7142944-2.8648682c-0.1767883-0.7728882-0.2950439-1.559082-0.4385223-2.3395996
	c-0.0778046-0.4233398-0.0912933-0.8706055-0.2408905-1.2666016c-1.2164917-3.2210693-2.3589935-6.4750977-3.7149963-9.637207
	c-2.2032623-5.1379395-4.4786682-10.2481079-6.8708344-15.300354c-1.0993805-2.3218384-2.5358276-4.4853516-3.8407745-6.7081909
	c-1.5244598-2.5967407-3.0594177-5.187561-4.6163483-7.7649536c-0.6055908-1.0024414-1.261734-1.9765015-1.932373-2.9372559
	c-2.4664001-3.5333252-4.844696-7.1029053-6.5436707-11.1036987c-1.0299072-2.4251709-2.3860626-4.7106323-3.5637665-7.074707
	c-0.9898224-1.9869385-1.9507904-3.9888306-2.8840485-6.0028687c-0.2015381-0.4349365-0.2476501-0.9469604-0.3345184-1.4290771
	c-0.2394867-1.3287964-0.5240326-2.6538696-0.6699219-3.9937134c-0.0915985-0.8413086-0.0089264-1.7105713,0.0721588-2.5599365
	c0.1637573-1.7153931,0.4430237-3.4067993,1.4682465-4.8671265c-0.0763855-2.6079712,1.721344-4.4127197,2.849884-6.4812012
	c2.474762-4.5357666,5.1160889-8.9805298,7.6137238-13.5041504c2.230896-4.0405884,4.4112854-8.1134033,6.0506744-12.443512
	c1.2632904-3.3367004,2.5071411-6.6808472,3.7375183-10.0298157c0.1673431-0.4554749,0.2060089-0.9581909,0.3383484-1.6058655
	c-0.6787567-0.3911438-1.3201294-0.8745422-2.0407715-1.1525269c-1.539856-0.5939331-3.1619263-0.986908-4.6710815-1.6441345
	c-1.1039581-0.4807434-2.0777283-1.2578735-3.1161804-1.8919983c-2.93927-1.7949524-5.8817596-3.5846252-8.8235931-5.3753967
	c-0.4686279-0.2852478-0.9403687-0.5653381-1.5689697-0.9429321c-1.1188354,2.000885-2.2000732,3.9102783-3.2585449,5.8322754
	c-2.5555725,4.6404724-5.1050415,9.2842712-7.6447906,13.9334412c-0.3842163,0.7032776-0.712738,1.4377747-1.0506439,2.1654663
	c-1.11409,2.3991089-2.2466583,4.7901917-3.3231354,7.2061462c-1.1791077,2.6463013-2.2864838,5.3245239-3.4595032,7.9735718
	c-0.5731964,1.2944336-1.1741638,2.581604-1.8504639,3.8242798c-1.5462341,2.8410645-2.5157166,5.9017944-3.1889648,9.0228271
	c-0.8165741,3.7854614-1.5236816,7.614563-1.9380798,11.4614258c-0.4750671,4.4102783-0.593277,8.8598022-0.8298798,13.2942505
	c-0.0593262,1.1119995-0.0044403,2.2244873-0.6407013,3.2155762c-0.0980682,0.152771-0.1659241,0.3374634-0.2004852,0.5165405
	c-0.6405334,3.3183594-1.2746582,6.6380615-1.9073639,9.9578857c-0.0578461,0.3035278-0.0379028,0.635437-0.1540985,0.9121704
	c-0.8782349,2.0914307-1.7709808,4.1768799-2.6795349,6.2554321c-1.1804199,2.7004395-2.6339264,5.3130493-3.5090332,8.1078491
	c-1.2063599,3.8526001-2.0422211,7.8265381-2.9281769,11.7729492c-1.3282013,5.9161377-1.5543671,11.927063-1.3729401,17.9677124
	c0.0572052,1.9047852-0.0926819,3.8162842-0.0195465,5.7199097c0.1789856,4.6582642,0.3593445,9.3123779,0.3253326,13.9783936
	c-0.0336761,4.6220703,0.2565765,9.2467041,0.2125397,13.8684082c-0.027298,2.8669434-0.0732269,5.7349854-1.0767517,8.5492554
	c-0.7117462,1.9960327-0.7794647,4.2171631-1.1941681,6.3261108c-0.1457062,0.7409668,0.0246735,1.5107422-0.5201416,2.2462158
	c-0.3194733,0.4312744-0.2675629,1.3299561-0.0730743,1.9155273c0.7470398,2.2492676,1.3085632,4.6425171,3.5546112,6.0176392
	c2.4062653,3.3867188,5.4886932,6.2730103,7.2180634,10.1681519c1.3612823,3.06604,2.1002502,6.2755127,2.7550201,9.5276489
	c0.4039154,2.0061646,0.4193878,4.020813,0.3885803,6.0645752c-0.0380402,2.5231323,0.2305756,5.0497437,0.3262024,7.576355
	c0.0520782,1.3757935-0.3979797,1.78479-1.764328,1.9575195c-0.5178833,0.0654297-1.1521149,0.2114258-1.4827881,0.559082
	c-0.8122559,0.8536377-1.811554,1.2468872-2.8814087,1.5715332c-0.2933502,0.0889282-0.5651245,0.2466431-0.8544464,0.3516235
	c-1.2663116,0.4597778-1.9269867,1.8872681-3.6300964,1.8278809c-1.2603455-0.0440063-2.6445923,0.5805664-3.8040161,1.2164917
	c-1.6516266,0.9058838-3.4546051,0.7049561-5.165451,1.0988159c-4.0303497,0.9280396-7.817627-0.2802124-11.6247711-1.2897949
	c-1.8329315-0.486145-3.6471863-1.0435791-5.4647827-1.5858765c-0.4093323-0.1221313-0.8401947-0.2525635-1.1873779-0.4879761
	c-1.3438263-0.911499-3.0346375-1.2362061-4.1659927-2.5270386c-0.2447128-0.2791138-0.7846298-0.2947388-1.1841125-0.4436646
	c-2.3147736-0.8630981-2.9519043-2.2142334-2.7141571-4.5717773c0.1033859-1.0253296,0.313942-2.0646362,0.2346725-3.0787964
	c-0.2435226-3.1156006-0.7527924-6.2161865-0.8768845-9.3338013c-0.1266403-3.1817627-0.6671143-6.371582-0.1283112-9.562439
	c0.2665634-1.5786743,0.6513214-3.0333252,1.7803268-4.3602905c1.6004639-1.8812256,2.0568924-4.3413086,2.2876358-6.7494507
	c0.2575607-2.6881104,0.3682938-5.394165,0.4367752-8.0950928c0.043663-1.722229-0.4307022-3.3590088-0.9467316-5.0211182
	c-0.7018204-2.2605591-1.060997-4.6329956-1.483223-6.9725952c-0.2503738-1.3873901-0.3384857-2.8039551-0.5013962-4.2071533
	c-0.0356598-0.3071289-0.1623154-0.6294556-0.1065445-0.9175415c0.7238235-3.7389526,0.6263123-7.5800781,1.6764984-11.2981567
	c1.050972-3.7207642,2.0906143-7.4840088,2.365448-11.3724976c0.299202-4.2332153,0.4831314-8.4746704,0.7129898-12.7127686
	c0.0467834-0.8627319,0.0467987-1.7286987,0.1151733-2.5894775c0.415802-5.2339478,0.0883789-10.463562-0.0912781-15.6931763
	c-0.0567017-1.6503296-0.2421722-3.2960815-0.3068085-4.9463501c-0.0262756-0.6708984,0.124115-1.34729,0.1728973-2.0227661
	c0.0568085-0.7862549,0.2664337-1.612915,0.103241-2.3546143c-0.6729584-3.0583496-1.5420456-6.074646-2.1792374-9.1395874
	c-0.3975296-1.9122314-0.634819-3.8781128-0.7235718-5.8299561c-0.1874619-4.1231689-0.2260666-8.2529907-0.33461-12.3799438
	c-0.0387878-1.4744873-0.0053024-2.9598999-0.1775436-4.4199829c-0.3024292-2.5635376,0.7666245-4.8043213,1.5770798-7.081543
	c1.0598068-2.9779053,2.6116104-5.7645264,3.1511917-8.9475708c0.4590302-2.7080078,1.2972565-5.3532715,1.723053-8.0646973
	c0.3709869-2.3624878,0.3360291-4.7856445,0.5970917-7.1692505c0.3069916-2.8031006-0.2853851-5.5202637-0.6538849-8.2540283
	c-0.4356079-3.2316284-1.0180664-6.4434509-1.5376587-9.6637573c-0.0393829-0.2440186-0.110199-0.4855652-0.1241913-0.7307129
	c-0.1965942-3.447113-0.3843384-6.8947754-0.5775452-10.3420715c-0.0858307-1.531311-0.1791382-3.0621948-0.2690582-4.5932312
	C128.9122925,491.3234863,128.7628784,491.29422,128.6134491,491.2649536z"/>
</svg>
