<?xml version="1.0" encoding="utf-8"?>
<!-- Generator: Adobe Illustrator 26.5.0, SVG Export Plug-In . SVG Version: 6.00 Build 0)  -->
<svg version="1.1" id="Layer_1" xmlns="http://www.w3.org/2000/svg" xmlns:xlink="http://www.w3.org/1999/xlink" x="0px" y="0px"
	 viewBox="0 0 595.2755737 841.8898315" style="enable-background:new 0 0 595.2755737 841.8898315;" xml:space="preserve">
<style type="text/css">
	.st0{fill:none;}
</style>
<path class="st0" d="M269.3961182,743.3786011c-2.1337891,0.0009766-4.2734375-0.2753906-6.3774414-0.8203125
	c-0.2368164-0.0273438-0.4755859-0.0546875-0.7138672-0.0820312c-1.8818359-0.2167969-4.0151367-0.4609375-6.2978516-0.8515625
	c-5.2177582-0.890625-10.0014496-2.7802734-14.2060394-5.6162109c-1.0083008-0.6796875-2.1435547-1.3964844-3.3457031-2.15625
	c-1.8227539-1.1513672-3.8886719-2.4560547-5.9912109-3.9394531c-3.0429688-2.1474609-6.5610352-4.7490234-9.7739258-8.4501953
	c-2.0288086-2.3359375-5.6142578-6.4638672-7.6455078-12.6630859c-3.5556641-7.9316406-3.4853516-15.5791016-3.1049805-20.7207031
	c0.5351562-7.2392578,3.0507812-13.8701172,7.3515625-19.4960938c-1.1782227-2.1113281-2.1074219-4.1259766-2.8735352-5.8935547
	c-3.1723633-7.3212891-4.9233398-15.2871094-5.5117188-25.0712891c-0.1269531-2.1054688-0.3759766-4.375-0.6533203-6.7666016
	c-0.1376953-0.4833984-0.2998047-1.0820312-0.4580078-1.7724609c-0.2368164-1.0380859-0.3979492-1.9453125-0.5166016-2.6289062
	c-0.0991211-0.2666016-0.1982422-0.5341797-0.2973633-0.8007812c-0.8154297-2.1992188-1.5859375-4.2763672-2.3764648-6.1210938
	c-2.3076172-5.3818359-4.4472656-10.1464844-6.5410156-14.5683594c-0.3110352-0.6572266-0.9970703-1.7851562-1.6606445-2.8769531
	c-0.4331055-0.7109375-0.8652344-1.4238281-1.2861328-2.140625c-1.4790039-2.5195312-2.96875-5.0341797-4.4794922-7.5361328
	c-0.2641602-0.4365234-0.6313477-0.9902344-1.1455078-1.7265625c-1.3339844-1.9101562-2.7519531-3.984375-4.1430664-6.2519531
	c-0.8398438,1.9941406-1.6987305,3.9960938-2.5708008,5.9931641c-0.4711914,1.078125-0.9711914,2.1396484-1.4746094,3.1992188
	c-0.4492188,0.9472656-1.0649414,2.2441406-1.215332,2.7158203c-0.7841797,2.5029297-1.4365234,5.4326172-2.1279297,8.5351562
	l-0.3383789,1.515625c-0.753418,3.3574219-1.0185547,7.2402344-0.8579102,12.5878906
	c0.0449219,1.4804688,0.0151367,2.8154297-0.0087891,3.8886719c-0.0146484,0.6503906-0.0297852,1.3222656-0.0166016,1.6552734
	c0.1870117,4.8662109,0.3774414,9.8242188,0.3408203,14.9570312c-0.0141602,1.9052734,0.0410156,3.9345703,0.0996094,6.0839844
	c0.0678711,2.5039062,0.1381836,5.0917969,0.1123047,7.8359375c-0.0327148,3.4257812-0.0810547,8.4697266-1.855957,14.1757812
	c0.0742188,0.0908203,0.1489258,0.1826172,0.2246094,0.2744141c2.2578125,2.7636719,5.3500977,6.5478516,7.6826172,11.8017578
	c2.1938477,4.9423828,3.309082,9.6630859,4.1879883,14.0283203c0.7949219,3.9492188,0.859375,7.453125,0.8115234,10.6533203
	c-0.0117188,0.7763672,0.0610352,1.9384766,0.1376953,3.1689453c0.0683594,1.0888672,0.1342773,2.1767578,0.175293,3.265625
	c0.394043,10.4785156-5.6865234,19.3447266-15.0268555,22.8310547c-1.3305664,0.7753906-2.5766602,1.3515625-3.6386719,1.7802734
	c-2.8852539,1.8808594-5.9262695,3.1103516-9.1074219,3.6894531c-3.9892578,1.7451172-7.46875,2.1162109-9.2822266,2.3095703
	c-2.3203125,0.4794922-4.7080078,0.7216797-7.1147461,0.7216797c-5.4667969,0-9.9833984-1.21875-13.2817383-2.1083984
	l-0.8779297-0.2353516c-1.8398438-0.4882812-3.5253906-0.9931641-5.1552734-1.4824219l-0.9438477-0.2822266
	c-0.96875-0.2890625-3.3359375-0.9951172-6-2.5859375c-0.9316406-0.4375-2.3789062-1.1367188-4.0332031-2.2216797
	c-10.0234375-4.6933594-15.6860352-14.7041016-14.5371094-26.0898438c0.0195312-0.1972656,0.0415039-0.3955078,0.0644531-0.5927734
	c-0.059082-0.5664062-0.1245117-1.1328125-0.1884766-1.6992188c-0.2373047-2.0908203-0.5053711-4.4619141-0.6103516-7.0947266
	c-0.0249023-0.6201172-0.0766602-1.2431641-0.1240234-1.8671875c-0.2314453-3.0566406-0.5488281-7.2421875,0.2802734-12.1513672
	c0.2910156-1.7207031,1.0561523-6.2529297,3.9907227-11.1005859c0.0791016-1.1298828,0.1313477-2.2636719,0.1689453-3.3447266
	c-0.9526367-3.1240234-1.4550781-5.9833984-1.8608398-8.2900391l-0.1821289-1.0283203
	c-0.324707-1.7988281-0.4838867-3.4082031-0.6005859-4.5820312c-0.0102539-0.1074219-0.0209961-0.2138672-0.03125-0.3203125
	c-0.2875977-1.6552734-0.6132812-4.6064453,0.0722656-8.1552734c0.1171875-0.6064453,0.2290039-1.7158203,0.3374023-2.7890625
	c0.2675781-2.6572266,0.6337891-6.2958984,1.7597656-10.2832031c0.6943359-2.4570312,1.4804688-5.2392578,1.6064453-7.0253906
	c0.1987305-2.8105469,0.34375-5.6464844,0.4975586-8.6494141c0.0629883-1.2373047,0.1264648-2.4746094,0.1933594-3.7109375
	c0.0102539-0.1914062,0.0151367-0.3837891,0.0209961-0.5761719c0.0273438-0.8525391,0.0629883-1.7050781,0.1303711-2.5537109
	c0.2456055-3.0908203,0.1044922-6.7070312-0.0449219-10.5361328c-0.0351562-0.9013672-0.0703125-1.8027344-0.1015625-2.7050781
	c-0.019043-0.5615234-0.0668945-1.1220703-0.1088867-1.6826172c-0.0786133-1.0527344-0.152832-2.1074219-0.1938477-3.1621094
	c-0.0522461-1.3251953,0.0083008-2.4951172,0.0883789-3.4052734c-0.0625-0.2490234-0.1254883-0.4990234-0.1879883-0.7490234
	c-0.4375-1.7421875-0.9331055-3.7167969-1.3676758-5.8076172c-0.6230469-2.9951172-1.0107422-6.1054688-1.1538086-9.2451172
	c-0.043457-0.9511719-0.0791016-1.8935547-0.1098633-2.8291016c-0.4135742,0.5039062-0.8232422,1.0068359-1.2329102,1.5087891
	c-2.0981445,2.5722656-4.4765625,5.4882812-7.1733398,8.3427734c-2.3564453,2.4951172-4.7563477,4.7158203-6.8735352,6.6748047
	c-0.9067383,0.8388672-1.8139648,1.6767578-2.7055664,2.5302734c-0.3647461,0.3496094-0.7163086,0.7128906-1.0703125,1.0742188
	c-0.7602539,0.7753906-1.5239258,1.5458984-2.3129883,2.2910156c-1.5200195,1.4345703-2.8901367,2.3867188-3.6264648,2.8974609
	c0,0-0.7592773,0.5820312-1.1196289,0.8623047c-1.1586914,0.8984375-2.472168,1.9169922-3.9697266,2.9648438
	c-1.7822266,1.2490234-3.4291992,2.1035156-4.4130859,2.6152344l-0.4111328,0.2148438
	c-0.2724609,0.1503906-0.5444336,0.2958984-0.8168945,0.4404297c-1.1484375,0.7353516-2.2924805,1.4755859-3.4365234,2.2148438
	c-1.0400391,0.671875-2.0805664,1.3447266-3.1230469,2.0136719c-0.8974609,0.5839844-2.8754883,1.8720703-5.6279297,2.8652344
	c-2.0942383,0.7548828-4.5429688,1.6298828-7.1113281,2.4638672c-3.0717773,0.9980469-6.1870117,1.5048828-9.2558594,1.5048828
	c-0.9824219,0-1.9677734-0.0517578-2.9472656-0.1542969c-0.5063477,0.0224609-1.0117188,0.0361328-1.5146484,0.0361328
	l-0.3217773-0.0019531c-12.383791-0.1396484-22.6665039-9.1728516-24.4648438-21.4804688
	c-0.9785156-6.7070312,0.496582-12.0117188,1.378418-15.1806641l0.1435547-0.5185547
	c1.2636719-4.6064453,3.2651367-8.0732422,4.5898428-10.3662109c0.230957-0.3994141,0.5371094-0.9306641,0.6796875-1.2001953
	c0.8183594-2.0595703,1.7963867-3.6816406,2.5615234-4.8056641c0.1000977-0.2236328,0.2036133-0.4609375,0.3125-0.7138672
	c1.1757812-3.7714844,2.9873047-6.6640625,5.0004883-8.8769531c1.152832-1.9882812,2.1948242-3.9921875,2.8505859-5.8701172
	c0.5673828-1.6240234,1.1552734-2.9814453,1.6274414-4.0712891c0.1660156-0.3828125,0.3408203-0.7617188,0.4868164-1.1523438
	l0.5913086-1.5800781c1.415041-3.7792969,2.751955-7.3486328,3.9936543-10.9296875
	c0.8911133-2.5712891,1.7490234-5.15625,2.6074219-7.7412109c1.1855469-3.5703125,2.4116211-7.2617188,3.7397461-10.9785156
	c0.800293-2.2382812,1.465332-4.7675781,2.2524414-7.8408203c0.6064453-2.3710938,1.2548828-4.5595703,1.8818359-6.6767578
	c0.3745117-1.2646484,0.7504883-2.5292969,1.1010742-3.7998047c1.0166016-3.6894531,1.9814453-7.3339844,2.8671875-10.8291016
	c0.9331055-3.6826172,1.6479492-6.6699219,2.2490234-9.4033203c0.3369141-1.5322266,0.637207-3.0732422,0.9389648-4.6132812
	c0.375-1.9130859,0.762207-3.8896484,1.2236328-5.9599609c1.1938477-5.3525391,2.4555664-10.6259766,3.5322266-15.0791016
	c0.40625-1.6787109,0.8491211-3.3476562,1.2939453-5.015625c0.3110352-1.1660156,0.6230469-2.3320312,0.9145508-3.5039062
	c0.4145508-1.6689453,0.8100586-3.34375,1.2060547-5.0195312c0.3632812-1.5371094,0.7270508-3.0742188,1.1030273-4.609375
	c0.4584961-1.8710938,0.9331055-3.7412109,1.4082031-5.6113281c0.2910156-1.1464844,0.5825195-2.2939453,0.8696289-3.4414062
	c0.1708984-0.6835938,0.3339844-1.3730469,0.4975586-2.0634766c0.3696289-1.5576172,0.7885742-3.3232422,1.3125-5.1821289
	c0.3549805-1.2592773,0.7045898-2.5185547,1.0546875-3.7783203c1.3032227-4.6914062,2.6508789-9.5429688,4.2739258-14.4814453
	c1.5615234-4.7485352,3.5595703-9.0805664,5.4868164-13.0546875c2.3251953-4.796875,4.8608398-9.4804688,7.0976562-13.6132812
	c1.8349609-3.3891602,4.043457-7.4033203,6.5161133-11.4946289l0.8120117-1.3476562
	c2.2241211-3.6938477,4.7446289-7.8803711,7.7714844-11.9750977c3.5439453-4.7944336,7.7929688-9.5219727,12.984375-14.4453125
	c0.1142578-0.1269531,0.2255859-0.2573242,0.3383789-0.3862305c0.7666016-0.8764648,1.8237305-2.0849609,3.2397461-3.3935547
	c0.0742188-0.1396484,0.1484375-0.2797852,0.215332-0.40625c0.4731445-0.8959961,0.9521484-1.7895508,1.4599609-2.6655273
	c0.6220703-1.0708008,1.2011719-1.9404297,1.6235352-2.5756836c0.1035156-0.1552734,0.2089844-0.3095703,0.3085938-0.4677734
	c3.3300781-5.3579102,7.0073242-10.2495117,10.9282227-14.5361328l0.1362305-0.1484375
	c2.8828125-3.1518555,6.4707031-7.0742188,11.2543945-10.5478516c0.659668-0.4790039,1.3134766-0.9697266,1.9677734-1.4594727
	c1.7524414-1.3120117,3.7387695-2.7993164,5.9960938-4.2646484c1.7871094-1.1606445,3.434082-2.0800781,4.8876953-2.8916016
	c1.0209961-0.5698242,1.9848633-1.1079102,2.5395508-1.4829102c3.8071289-2.574707,7.4819336-3.8339844,10.0024414-4.5986328
	c4.3881836-2.8701172,8.5268555-3.8125,10.1635742-4.1855469c1.668457-0.3798828,3.2265625-0.6899414,4.7333984-0.9892578
	c1.3745117-0.2734375,2.6728516-0.53125,3.8256836-0.800293c5.6933594-1.328125,10.871582-1.5322266,15.6879883-1.6269531
	c0.3222656-0.0063477,0.6484375-0.0097656,0.9746094-0.0097656c3.3657227,0,6.4296875,0.34375,8.8916016,0.6196289
	c0.8349609,0.09375,1.6699219,0.1894531,2.5043945,0.2626953c0.5024414,0.0429688,1.0009766,0.1020508,1.4951172,0.1777344
	c2.7241211-0.5717773,5.7099609-1.1474609,8.9125977-1.5166016c3.1743164-0.3657227,6.0595703-0.3735352,8.3774414-0.3793945
	c0.6611328-0.0019531,1.3217773-0.0024414,1.980957-0.015625l0.609375-0.0180664
	c0.7099609-0.0229492,1.4208984-0.0424805,2.1293945-0.0424805c1.4350586,0,2.7626953,0.0727539,4.0585938,0.2226562
	c1.7426758,0.2011719,3.3466797,0.4365234,4.8979492,0.6640625c1.7192383,0.2524414,3.3432617,0.4907227,4.6899414,0.6035156
	c5.6620941,0.4741211,10.4081879,2.0595703,13.8740082,3.2172852c0.7119141,0.237793,1.4233398,0.4775391,2.1386719,0.6992188
	c3.6147461,1.1206055,6.7905273,2.4731445,9.5922852,3.6660156c0.7382812,0.3144531,1.4760742,0.6289062,2.2163086,0.9345703
	c0.6694336,0.2763672,1.3300781,0.5546875,1.9829102,0.8330078c4.4819336-3.9755859,9.6240234-7.8300781,15.8491211-11.8964844
	l1.1538086-0.7607422c1.0766602-0.7138672,2.1552734-1.4248047,3.2524414-2.1054688
	c1.5361328-0.956543,2.9375-1.5849609,4.0913086-2.0336914c1.1767578-0.5898438,2.3505859-1.184082,3.5244141-1.7788086
	l2.3046875-1.1650391c0.3271484-0.1650391,0.65625-0.3442383,0.9863281-0.5219727
	c1.5136719-0.8129883,3.5859375-1.9267578,6.1796875-2.8896332c0.2724609-0.112793,0.6064453-0.2802734,0.9462891-0.4394531
	c0.4228516-0.1982422,0.8994141-0.421875,1.4267578-0.6586914c0.0966797-0.1391602,0.1953125-0.2802734,0.2949219-0.4233398
	c0.3808594-0.5463867,0.7431641-1.1083984,1.1083984-1.668457c0.5107422-0.7836914,1.0234375-1.5664062,1.5517578-2.3374023
	l1.0830078-1.5820312c1.7294922-2.5263672,3.5166016-5.1391602,5.4091797-7.7685547
	c1.3652344-1.8969727,2.7177734-3.5561523,3.9111328-5.0205078l1.7626953-2.1762695
	c1.7353516-2.1508789,3.5292969-4.375,5.4150391-6.612793c0.4355469-0.5170898,0.8681641-1.0400391,1.2998047-1.5634766
	c1.8681641-2.2607422,3.984375-4.8227539,6.6572266-7.4052734c4.6728516-4.5170898,9.8876953-9.3427734,15.9414062-14.7504883
	c2.9414062-2.6269531,6.1640625-5.2255859,10.1445312-8.1801758c2.2294922-1.6547852,4.3662109-3.0053711,6.2519531-4.1967773
	c0.6816406-0.4301758,1.3632812-0.8598633,2.0371094-1.3012695c0.1416016-0.09375,0.2802734-0.1923828,0.4199219-0.2895508
	c0.5761719-0.4008789,1.1552734-0.7973633,1.7460938-1.1757812c0.2626953-0.168457,0.515625-0.3374023,0.7685547-0.5053711
	c1.2275391-0.8139648,2.9091797-1.9291992,5.0146484-2.9990234c0.6523438-0.331543,1.2988281-0.6650391,1.9453125-0.9985352
	c3.0507812-1.5732422,6.5078125-3.3569336,10.4111328-4.8916016c0.78125-0.3071289,1.7470703-0.737793,2.7685547-1.1938477
	c2.6757812-1.1938477,5.9101562-2.637207,9.7998047-3.7172852c1.0878906-0.5195312,2.6308594-1.1875,4.5302734-1.7255859
	c1.6962891-0.4799805,3.2626953-0.847168,4.6455078-1.1713867c1.3056641-0.3061523,2.65625-0.6230469,3.3886719-0.8793945
	c4.9511719-1.7358398,9.4257812-2.3334961,13.0224609-2.8134766c0.5722656-0.0766602,1.1464844-0.152832,1.7197266-0.2353516
	c3.5966797-0.5166016,7.2304688-0.7910156,10.8076172-0.8168945c0.1035156-0.0131836,0.2060547-0.0273438,0.3095703-0.0405273
	c0.8525391-0.1108398,2.0214844-0.262207,3.4208984-0.3427734c1.5283203-0.0883789,2.9111328-0.1088867,4.1298828-0.1269531
	c0.5351562-0.0083008,1.0703125-0.0151367,1.6054688-0.03125c0.7177734-0.0219727,1.4365234-0.0522461,2.1542969-0.0820312
	c0.6542969-0.8457031,1.4355469-1.8085938,2.3544922-2.8105469c3.3544922-3.6591797,6.9150391-7.4550781,10.5742188-11.2724609
	c1.7021484-1.7768555,3.3525391-3.2070312,4.6777344-4.3564453l0.5322266-0.4614258
	c0.4375-0.3818359,0.8720703-0.7734375,1.3066406-1.1650391c1.7285156-1.5541992,3.8798828-3.4887695,6.5439453-5.3535156
	c4.265625-2.9868164,10.1660156-6.5654297,17.9941406-7.7275391c1.4199219-0.2109375,2.8681641-0.3183594,4.3007812-0.3183594
	c1.5439453,0,3.0869141,0.125,4.5859375,0.3710938c8.7988281,1.4399414,15.8222656,7.359375,18.9238281,15.2270508
	c4.7949219-6.4482422,13.2167969-10.7182617,21.3027344-10.7182617c4.0039062,0,7.9267578,1.0229492,11.3457031,2.9589844
	c5.4345703,3.0761719,8.4423828,7.5302734,9.5751953,9.2070312c6.9960938,10.3662109,5.6396484,21.0112305,5.1933594,24.5097656
	c-0.1230469,0.9667969-0.2373047,1.9321289-0.3525391,2.8979492c-0.3095703,2.6118164-0.6298828,5.3125-1.1142578,8.2050781
	c-0.625,3.7202148-1.8613281,6.6801758-2.5996094,8.4487305l-0.2089844,0.5058594
	c-0.6357422,1.5541992-1.3027344,3.0952148-1.9716797,4.6357422c-0.3261719,0.7504883-0.6523438,1.5014648-0.9726562,2.2543945
	c-0.3261719,1.0991211-0.90625,2.8740234-1.9462891,4.8686523c-1.3232422,2.5351562-2.7949219,5.2314453-4.5068359,8.2617188
	c-0.5673828,1.0004883-1.1464844,1.8647461-1.671875,2.5820312c-0.3339844,0.7299805-0.7041016,1.4428711-1.109375,2.1367188
	c-0.3740234,1.003418-0.8164062,1.9926758-1.3271484,2.9633789c-0.0283203,0.1635742-0.2822266,1.6328125-0.2822266,1.6328125
	c-0.3291016,1.8374023-0.6074219,3.8339844-0.9033203,5.9482422l-0.2900391,2.0551758
	c-0.2382812,1.6655273-0.3183594,2.8813477-0.2382812,3.6147461c0.2158203,1.9663086,0.2265625,3.6191406,0.234375,4.8256836
	c0.0009766,0.2060547,0,0.4121094,0.0039062,0.6176758c0.2539062,2.0571289,0.5751953,4.1953125,0.9150391,6.453125
	c0.1767578,1.1738281,0.3525391,2.3481445,0.5224609,3.5229492c0.0810547,0.5678711,0.1484375,1.144043,0.2099609,1.7207031
	l0.0126953,0.1196289l0.0429688,0.2446289c0.2011719,1.1435547,0.3916016,2.2231445,0.5810547,3.050293
	c1.7705078,7.7138519,1.8222656,14.6689301,0.1572266,21.2656097c-0.0771484,0.3081055-0.140625,0.6162109-0.2080078,0.9233398
	c-0.3740234,1.7202148-0.9404297,4.3198242-2.1425781,7.2646484c-2.3134766,5.6640625-5.4072266,9.9521484-7.8935547,13.3979492
	c-0.3945312,0.5463867-0.7890625,1.0927734-1.1777344,1.6435547c-1.0830078,1.5375977-2.1289062,2.9228516-3.1396484,4.262207
	c-0.7695312,1.0195312-1.5048828,1.9936523-2.1455078,2.8925781c-0.0742188,0.1772461-0.3701172,0.8955078-0.3701172,0.8955078
	c-0.8974609,2.1538086-1.6337891,4.0488281-2.2529297,5.7954102c-0.2617188,0.7373047-0.5458984,1.6499023-0.8476562,2.6162109
	c-0.4423828,1.4189453-0.9443359,3.0268555-1.5761719,4.7568359c-0.6767578,1.8554688-1.2207031,4.4584961-1.796875,7.2143555
	c-0.5458984,2.6176758-1.1621094,5.5673828-2.0449219,8.6743164c-0.1513672,0.7128906-0.3828125,1.7661133-0.7861328,3.0341797
	c-0.2822266,2.4916992-0.8222656,4.4682617-1.1728516,5.753418c-0.0292969,0.1054688-0.0585938,0.2109375-0.0869141,0.3164062
	c-0.2832031,1.6318359-0.6640625,3.8359375-0.6220703,4.5830078c0.2333984,2.7729492-0.0712891,4.9599609-0.3320312,6.3891602
	l-0.1943359,1.1958008c-0.6640625,4.0927734-1.4150391,8.7246094-3.1123047,13.7744141
	c-0.0625,0.2363281-0.1152344,0.4765625-0.171875,0.715332c-0.3769531,1.5942383-0.9462891,4.003418-2.0966797,6.722168
	c-2.6357422,6.2255859-6.3173828,11.5366211-10.9453125,15.7885742c-0.7832031,0.7192383-1.6835938,1.6279297-2.6376953,2.5898438
	c-0.8720703,0.8798828-1.7460938,1.7592773-2.6376953,2.6191406l-0.2431641,0.2382812
	c-1.2519531,1.2290039-3.5810547,3.5161133-7.0742188,5.418457c-0.359375,0.1958008-0.7021484,0.4067383-1.0478516,0.612793
	c-1.9394531,1.1552734-4.9453125,2.9467773-8.8925781,4.2163086c-0.5546875,0.2617188-1.2021484,0.5439453-1.9287109,0.8168945
	c-5.3486328,2.0087891-10.2636719,2.2412109-13.4960938,2.2412109c-0.7011719,0-1.4072266-0.0117188-2.1181641-0.0268555
	c-2.5927734-0.0556641-4.8212891-0.3623047-6.4492188-0.5864258c-0.5605469-0.0771484-1.2587891-0.1733398-1.5400391-0.1933594
	c-5.8222656-0.4116211-10.4902344-2.3105469-14.3203125-4.2124023c0.1611328,2.4536133,0.1650391,5.0234375-0.0458984,7.6870117
	c-0.2998047,3.8037109-0.8720703,7.7216797-1.7480469,11.9746094c-0.6914062,3.3466797-1.8837891,5.9179688-2.5302734,7.3076172
	c-0.9648438,3.0068359-2.1123047,5.4970703-3.0498047,7.5332031c-0.1894531,0.4111328-0.3808594,0.8222656-0.5654297,1.234375
	c-1.2451172,3.9121094-2.8779297,7.2304688-4.2089844,9.9355469c-0.2304688,0.4677734-0.4599609,0.9345703-0.6865234,1.4033203
	c-1.1611328,2.4072266-2.3662109,4.4541016-3.4287109,6.2607422c-0.2998047,0.5087891-0.5996094,1.0175781-0.8925781,1.5292969
	c-0.3007812,0.5234375-0.5908203,1.0517578-0.8818359,1.5800781c-1.0527344,1.9091797-2.3632812,4.2851562-4.1064453,6.7607422
	c-0.9228516,1.3115234-1.7128906,2.5693359-2.4140625,3.8447266c-0.8964844,1.6318359-1.7900391,3.0136719-2.5078125,4.125
	c-0.1933594,0.2978516-0.4277344,0.6611328-0.6171875,0.9609375c-0.0742188,0.3574219-0.4208984,2.1376953-0.5205078,2.6259766
	l-0.0595703,0.2890625c-0.2539062,1.2548828-0.6572266,3.2480469-1.5185547,5.5927734
	c-0.3007812,2.2734375-0.9121094,4.4277344-1.8291016,6.4462891c-0.1376953,0.5996094-0.2822266,1.1982422-0.4423828,1.7949219
	c-0.9003906,3.3398438-1.9667969,6.4638672-2.9072266,9.2197266c-0.2509766,0.7363281-0.5029297,1.4716797-0.7490234,2.2089844
	c-0.4501953,1.3417969-0.9492188,2.4511719-1.3515625,3.2646484c-0.2744141,0.8544922-0.6689453,2.0449219-1.2314453,3.3837891
	c-0.7861328,1.8730469-1.6152344,3.7382812-2.4443359,5.6025391l-0.7900391,1.7773438
	c-0.2441406,0.5507812-0.4853516,1.0830078-0.7275391,1.6152344l-0.2255859,0.4990234
	c-0.4736328,1.2675781-1.4326172,3.6025391-3.2539062,6.0791016c-0.0478516,0.1083984-0.1015625,0.2333984-0.1572266,0.3671875
	c0.4130859,1.2109375,0.8261719,2.53125,1.1914062,3.9482422c1.0488281,4.0644531,1.6865234,8.0068359,2.1728516,11.3261719
	c0.4726562,3.2255859,0.7919922,6.6025391,0.9492188,10.0371094c0.1376953,3.0234375,0.1757812,5.9150391,0.2128906,8.7119141
	c0.0126953,0.9921875,0.0263672,1.984375,0.0439453,2.9765625c0.015625,0.8818359,0.0419922,1.765625,0.0683594,2.6484375
	c0.0722656,2.4746094,0.1542969,5.2802734,0.0507812,8.2607422c-0.0566406,1.6337891,0.5009766,4.3535156,1.0908203,7.2324219
	l0.1777344,0.8681641c0.2363281,1.1582031,0.4570312,2.3193359,0.6777344,3.4804688
	c0.3076172,1.6240234,0.5986328,3.1572266,0.9121094,4.5244141c0.3886719,1.6972656,0.8808594,3.5263672,1.4013672,5.4628906
	c0.2177734,0.8095703,0.4345703,1.6181641,0.6474609,2.4287109c0.2431641,0.9189453,0.4765625,1.8476562,0.7089844,2.7753906
	c0.4414062,1.7548828,0.8574219,3.4121094,1.2841797,4.7177734c0.5205078,1.5908203,1.1875,3.34375,1.8945312,5.2001953
	c0.5917969,1.5556641,1.1826172,3.1123047,1.7392578,4.6806641c1.5224609,4.2900391,3.1318359,8.8662109,4.640625,13.5849609
	c0.9892578,3.0986328,1.2373047,5.7246094,1.3857422,7.2939453l0.0380859,0.3867188
	c0.5380859,3.5703125,1.0810547,7.1357422,1.6396484,10.6982422c0.109375,0.6982422,0.2265625,1.3935547,0.3457031,2.0888672
	c0.5400391,0.5380859,1.1279297,1.1064453,1.7314453,1.6904297c0.46875,0.4521484,0.9375,0.9052734,1.4023438,1.3613281
	c0.5117188,0.5009766,1.0458984,0.9775391,1.5761719,1.4570312c1.8447266,1.6699219,4.140625,3.7490234,6.4091797,6.5458984
	c0.1884766,0.2333984,0.3808594,0.4609375,0.5732422,0.6914062c1.8544922,2.2128906,5.0039062,5.9707031,6.9794922,11.4570312
	c1.2089844,2.2753906,2.0292969,4.3496094,2.6367188,5.8857422c0.1923828,0.4863281,0.3779297,0.9755859,0.5917969,1.4521484
	c0.4570312,1.0234375,0.9326172,2.0283203,1.4072266,3.0341797c0.2441406,0.5166016,0.4873047,1.0332031,0.7294922,1.5507812
	c4.8125,8.1474609,5.5947266,18.0673828,2.0898438,27.6591797c-3.1308594,8.5595703-9.6572266,15.4365234-17.9804688,18.984375
	c-0.4736328,0.2460938-0.9521484,0.4853516-1.4355469,0.7099609c-1.5449219,0.7177734-5.6318359,2.6162109-11.1298828,2.6162109
	c-1.1435547,0-2.2851562-0.0820312-3.4150391-0.2451172c-2.3037109,0.4091797-5.4023438,0.9404297-9.0039062,0.9404297
	l-0.2949219-0.0009766c-4.6416016-0.0371094-9.3867188-0.5771484-14.0986328-1.6064453
	c-4.4179688-0.9658203-7.9804688-2.5478516-10.5810547-3.703125c-0.5849609-0.2597656-1.1679688-0.5214844-1.7587891-0.7636719
	c-4.8955078-2.0058594-9.3339844-5.2734375-12.8349609-9.4492188c-3.5927734-4.2890625-5.8681641-8.7324219-7.5439453-12.7978516
	c-0.9238281,9.4501953-6.5839844,17.1669922-15.1669922,20.8115234c-0.0302734,0.0185547-0.0605469,0.0380859-0.0908203,0.0576172
	c-1.6337891,1.0341797-4.6748047,2.9599609-8.8115234,4.1220703l-0.6337891,0.1787109
	c-3.8164062,1.078125-9.0439453,2.5537109-15.2548828,2.5537109c-1.5400391,0.0009766-3.0830078-0.0917969-4.5917969-0.2734375
	c-0.1132812-0.0009766-0.2255859-0.0009766-0.3388672-0.0019531c-0.7919922-0.0058594-1.5839844-0.0175781-2.3720703-0.0566406
	l-0.1445312-0.0029297c-1.4814453-0.0292969-4.7216797-0.09375-8.5615234-1.3671875
	c-6.5048828-1.0927734-12.1879883-3.6748047-16.9335938-7.6894531c-0.0776367-0.0517578-0.1552734-0.1035156-0.2329102-0.1552734
	c-1.046875-0.703125-2.6289062-1.765625-4.3574219-3.3066406c-0.8378906-0.7480469-1.6347656-1.5283203-2.390625-2.3408203
	c-0.1308594,0.2998047-0.2680664,0.6025391-0.4111328,0.90625l-0.1108398,0.265625
	c-0.777832,1.8291016-2.3964844,5.6357422-5.8618164,9.3164062
	C282.7418213,740.5475464,276.2852783,743.3786011,269.3961182,743.3786011z M365.9439697,677.1911011
	c0.6708984,1.3984375,1.1425781,2.6240234,1.4960938,3.5449219l0.0390625,0.0996094
	c0.359375,0.9375,0.6904297,1.8242188,0.9951172,2.6728516c0.0800781-0.4394531,0.1679688-0.8759766,0.2646484-1.3125
	C367.8873291,680.2887573,366.9644775,678.6383667,365.9439697,677.1911011z M288.6124268,618.8043823
	c0.4042969,1.421875,0.8066406,2.8447266,1.1748047,4.2773438c0.1225586,0.4765625,0.2573242,0.9453125,0.3901367,1.4150391
	c0.3837891,1.3544922,0.8481445,2.9941406,1.2348633,4.8837891c1.3120117-2.9658203,2.6591797-5.8535156,3.9658203-8.6542969
	c1.7036133-3.6503906,3.3125-7.0986328,4.7578125-10.5214844l0.4443359-1.0498047
	c1.4526367-3.4277344,2.824707-6.6660156,3.4389648-9.3125c0.4926758-2.125,1.0830078-3.9462891,1.5571289-5.4101562
	c0.2231445-0.6884766,0.4536133-1.4013672,0.5576172-1.8007812c0.3818359-1.4736328,0.7392578-3.1376953,1.1171875-4.9003906
	l0.5966797-2.7382812c0.0996094-0.4443359,0.2353516-1.0527344,0.2700195-1.2666016
	c0.1508789-1.1005859,0.2758789-2.25,0.4033203-3.3994141c0.1040039-0.9394531,0.2089844-1.8798828,0.3232422-2.8193359
	c0.1181641-0.9746094,0.2695312-1.7861328,0.3779297-2.3369141c0.0454102-0.4482422,0.0844727-0.9003906,0.1254883-1.3515625
	c0.1635742-1.8291016,0.3686523-4.1044922,0.8374023-6.6259766l0.3466797-1.8837891
	c0.7568359-4.1416016,1.6152344-8.8359375,3.0517578-13.6767578c1.1513672-3.8847656,2.6748047-7.2792969,3.8994141-10.0078125
	c0.2783203-0.6201172,0.5576172-1.2392578,0.828125-1.8613281l-0.8691406-1.2705078
	c-1.6269531-2.3759766-3.3085938-4.8330078-4.9726562-7.3554688c-1.6289062-2.4697266-3.0537109-4.7646484-4.3583984-7.0185547
	c-0.1645508-0.2841797-0.3271484-0.5673828-0.4887695-0.8496094c-1.409668,0.2333984-2.9077148,0.4677734-4.4506836,0.6650391
	c-2.4946289,0.3203125-4.7724609,0.4130859-6.6025391,0.4882812c-0.559082,0.0224609-1.1186523,0.0449219-1.6767578,0.0761719
	l-0.3686523,0.0214844c-2.3862305,0.1347656-4.7724609,0.2705078-7.159668,0.3886719
	c-0.0112305,0.0009766-0.0219727,0.0009766-0.0327148,0.0019531c-0.8222656,0.9658203-1.6420898,1.9335938-2.4550781,2.9072266
	c-1.9926758,2.3857422-3.7421875,4.5488281-5.3491211,6.6132812l-1.0927734,1.3974609
	c-1.5625,1.9951172-3.0390625,3.8798828-4.1762695,5.5830078c-2.2836914,3.4189453-3.5527344,5.765625-4.2426758,7.8476562
	c-0.4458008,1.3457031-0.6274414,2.0117188-0.7001953,2.3398438c0.1630859,3.7822266,0.3964844,7.1191406,0.7124023,10.1875
	c0.2553711,2.4785156,0.6601562,5.125,1.2026367,7.8681641c0.0678711,0.3056641,0.362793,1.2294922,0.578125,1.9033203
	c0.2836914,0.8886719,0.5654297,1.7783203,0.8237305,2.6728516c0.1967773,0.6796875,0.3808594,1.3691406,0.5625,2.0595703
	c0.1044922,0.3974609,0.2016602,0.7978516,0.3251953,1.1894531l0.2226562,0.7070312
	c0.6694336,2.1259766,1.3017578,4.1347656,1.9604492,5.9560547c0.246582,0.6826172,0.4770508,1.3642578,0.7050781,2.046875
	c0.1118164,0.3339844,0.2558594,0.7646484,0.3515625,1.03125c1.7045898,3.1757812,2.4941406,6.0664062,2.9741211,7.8251953
	c0.0400391,0.1464844,0.0786133,0.2939453,0.1201172,0.4404297c0.2167969,0.5146484,0.5410156,1.2060547,0.8813477,1.9316406
	c0.5014648,1.0703125,0.9990234,2.1425781,1.4628906,3.2285156c0.6665039,1.5585938,1.0732422,2.9521484,1.3208008,3.9033203
	c0.440918,1.0820312,0.8881836,2.1572266,1.3349609,3.2333984c0.6391602,1.5380859,1.277832,3.0761719,1.8994141,4.6210938
	c0.8305664,2.0625,1.2163086,3.8261719,1.4160156,4.8300781
	C288.3140869,617.7555542,288.463501,618.2799683,288.6124268,618.8043823z"/>
<path class="st0" d="M128.6134491,491.2649536c-1.1311646,2.7035217-2.1987762,5.4360657-3.4163055,8.1000977
	c-0.7884598,1.7253418-1.8019867,3.3473206-2.702301,5.0222473c-0.3207779,0.5967712-0.6011887,1.2150879-0.906723,1.8201904
	c-1.1358871,2.2496033-2.1481094,4.5600586-3.6681213,6.6072083c-0.6532059,0.8796997-1.0172882,1.9680176-1.5994949,2.9077759
	c-1.0386963,1.6765137-2.141243,3.3135376-3.2229233,4.9632568c-0.134903,0.2057495-0.3617859,0.3653564-0.4507675,0.5849609
	c-1.6934891,4.1791992-5.0116882,7.312561-7.188797,11.1975098c-1.5297012,2.7296753-3.5337601,5.1956787-5.3535843,7.7598877
	c-1.8186264,2.562439-3.6661606,5.1045532-5.5115356,7.6479492c-0.9778595,1.3476562-1.965126,2.6889648-2.9714203,4.0155029
	c-1.3031387,1.7177124-2.5845261,3.4550171-3.9555359,5.1176758c-2.5482559,3.0903931-5.0261154,6.2543945-7.7726593,9.161499
	c-2.788559,2.9517212-5.8744736,5.6217041-8.8128052,8.4332275c-1.1142731,1.0661621-2.1571198,2.2073364-3.2781982,3.2659912
	c-0.5223923,0.4932861-1.1580811,0.8654785-1.7345886,1.3029175c-1.5103455,1.1459961-2.9846039,2.3431396-4.5363541,3.4297485
	c-0.9014091,0.6312256-1.9244652,1.0886841-2.8927917,1.6243286c-0.5405731,0.2990112-1.0992317,0.569519-1.6186676,0.9015503
	c-2.3291473,1.4887695-4.6449699,2.9983521-6.9711761,4.4917603c-0.4148254,0.2662964-0.8317413,0.5588379-1.2893143,0.723877
	c-2.1420479,0.7728271-4.2884064,1.5368652-6.4540672,2.2397461c-1.2295113,0.3991089-2.4704094,0.585144-3.8112526,0.3360596
	c-1.0732803-0.1993408-2.2179794,0.0056763-3.3305626-0.0065308c-1.7357445-0.019043-3.067791-1.2838135-3.3191147-3.0048828
	c-0.3503418-2.399231,0.3529892-4.5767212,0.9806137-6.8656616c0.9356766-3.4125366,3.2656822-6.0566406,4.4999924-9.2716675
	c0.2806511-0.7310181,0.9392891-1.3084717,1.2927132-2.0217285c0.6773758-1.3668823,1.2875748-2.7692261,1.8721809-4.1790161
	c0.3154564-0.7606812,0.2197456-1.737915,1.2818642-2.0524292c0.1832314-0.0542603,0.2938004-0.3796387,0.4223099-0.5893555
	c2.4069672-3.9273682,4.6567154-7.9294434,6.1847687-12.3041382c0.5675316-1.6248169,1.3531532-3.1721802,1.9564018-4.7859497
	c1.6154747-4.3214722,3.248394-8.6381226,4.7595215-12.996521c2.1360703-6.1608887,4.0859261-12.387146,6.2800636-18.5266113
	c1.1453094-3.2047119,1.9963341-6.4694214,2.8372803-9.7542725c0.8672028-3.3874207,1.9504471-6.7188721,2.8800888-10.0911255
	c1.0323181-3.744751,2.0288925-7.5000305,2.9832153-11.2654114c0.8476791-3.3446045,1.6651459-6.6984558,2.406189-10.0679932
	c0.7681503-3.4927368,1.371315-7.0219116,2.1495514-10.512207c1.0954056-4.9126892,2.2613602-9.8100586,3.4446793-14.7025452
	c0.6786804-2.8059998,1.4781799-5.5826111,2.1747284-8.3845215c0.8021927-3.2268677,1.5358047-6.4706726,2.327095-9.7003174
	c0.7322159-2.9885254,1.5060425-5.9668274,2.2525177-8.9518738c0.5523758-2.2089844,1.0291824-4.4388123,1.6464691-6.6292419
	c1.6362228-5.8061218,3.1756287-11.6467896,5.0582504-17.3735352c1.169632-3.5579224,2.7643051-6.9963684,4.4022598-10.375
	c2.0913391-4.3138733,4.3746185-8.5372009,6.6579132-12.7547913c1.9338455-3.5721436,3.9055786-7.1288147,6.0059662-10.6044617
	c2.3868408-3.9496155,4.7302017-7.953125,7.4673309-11.6561584c3.1454773-4.2554626,6.7882156-8.1252441,10.6483231-11.7727966
	c1.2968292-1.2254333,2.3302612-2.7527771,3.7082977-3.8641052c2.5399933-2.0484009,3.6436005-4.9855347,5.1944733-7.6582642
	c0.4924622-0.8486938,1.0742035-1.6450195,1.5926819-2.479248c2.509201-4.037384,5.3246918-7.8656921,8.5235596-11.3629761
	c2.5315704-2.7677002,5.0747986-5.5686951,8.1432953-7.7969971c2.3418427-1.700592,4.6112518-3.5118103,7.0350342-5.0857544
	c2.5211639-1.6371765,5.2781677-2.916626,7.7654877-4.5987854c2.1176605-1.4321289,4.5299683-1.8504333,6.8450623-2.6392517
	c0.6859589-0.2337646,1.444931-0.51474,1.9355011-1.0078125c1.1513672-1.1572571,2.594162-1.6296692,4.0819855-1.9685364
	c2.8786774-0.6556396,5.7957001-1.1444397,8.6704865-1.8152466c3.6923218-0.8616028,7.46698-0.992157,11.2049103-1.0662537
	c3.3665161-0.0667419,6.7457428,0.506897,10.1192169,0.7998047c0.0605621,0.005249,0.1321869,0.0154724,0.1769714,0.0508423
	c1.6374969,1.2930603,3.3398132,0.651062,5.0936432,0.2746582c3.1266479-0.6710205,6.2654266-1.3637085,9.4357758-1.7290955
	c2.745224-0.3164062,5.5411072-0.2021484,8.3149872-0.2572327c1.2958374-0.0257568,2.6068268-0.1244812,3.8863068,0.0232239
	c3.4272766,0.3956299,6.8294678,1.046936,10.2635803,1.3348999c4.0049896,0.3357849,7.6686249,1.8597412,11.4210358,3.0231323
	c3.3998718,1.0540771,6.6593018,2.5700989,9.9595032,3.9335938c2.5042725,1.034668,4.9795837,2.1399536,7.4597473,3.2320862
	c1.9204102,0.8456726,3.8466187,1.6818542,5.7354126,2.5943604c1.2402649,0.5991516,2.189209,0.4039917,3.1279297-0.6070251
	c1.7181396-1.8504944,3.4873962-3.6559448,5.2852783-5.4295654c4.9361267-4.8695984,10.4931946-8.951355,16.2826538-12.7332153
	c1.3276367-0.8672791,2.63797-1.7621155,3.9848022-2.5983276c0.4557495-0.282959,1.0149231-0.3932495,1.5003967-0.635498
	c2.2567749-1.125946,4.503479-2.2720642,6.7553101-3.4078979c1.6470032-0.8307495,3.2392883-1.8105164,4.9581604-2.4485779
	c2.5336304-0.9404907,4.8346863-2.4808655,7.5762329-2.9066467c0.4745789-0.0737305,0.9787598-0.5418396,1.293396-0.9601135
	c1.3718872-1.823761,2.6981506-3.6829529,4.0029297-5.5557556c0.9482117-1.3609924,1.8176575-2.7765808,2.7559204-4.1446838
	c2.0525208-2.9928589,4.0871887-5.9993896,6.206604-8.9445343c1.2580872-1.7481995,2.6510315-3.4004517,4.0059204-5.0776367
	c2.0084229-2.4861755,4.0057678-4.9824371,6.0653992-7.4258728c2.1028748-2.4947205,4.1131287-5.098587,6.4507446-7.3579407
	c5.0018311-4.8343811,10.1337585-9.5388641,15.3221436-14.1737061c2.7505798-2.4571381,5.6653137-4.7454224,8.6283569-6.9450378
	c2.3198547-1.722168,4.8299255-3.1876984,7.2511597-4.7738953c0.6686401-0.4380493,1.3111267-0.9163818,1.9841309-1.3473511
	c1.2946777-0.8291779,2.5501099-1.7409973,3.9153137-2.4345703c3.4559326-1.7557068,6.8771362-3.6295929,10.4742126-5.0442047
	c3.8283691-1.5055847,7.4515686-3.546814,11.5182495-4.4720917c1.2355347-0.2811127,2.3328552-1.1356506,3.5625-1.4835968
	c3.0837708-0.8726196,6.2813721-1.3936615,9.2948914-2.4504242c3.4844666-1.2218628,7.072937-1.5357513,10.6651306-2.0514832
	c2.7634888-0.3967438,5.5116882-0.5999298,8.2976685-0.5992737c1.4710388,0.0003357,2.9390564-0.3324432,4.414032-0.4174957
	c1.7131042-0.0987549,3.4327393-0.0801086,5.1489258-0.1323395c1.6646729-0.0506744,3.3282471-0.1390381,4.9929504-0.1880341
	c1.7859192-0.0525665,3.5730286-0.1191254,5.3588562-0.1008606c1.0634766,0.0108795,1.9375916-0.2846985,2.6128845-1.108017
	c1.2519836-1.5263977,2.508728-3.0491486,3.7418213-4.590744c1.0306091-1.2884064,1.9476013-2.6773224,3.059021-3.8896179
	c3.3762512-3.6827087,6.79776-7.3248596,10.2547302-10.9319916c1.187439-1.2390289,2.5117798-2.3505707,3.8081665-3.4806671
	c1.9896851-1.7344971,3.893219-3.6004944,6.0456848-5.1072388c2.6564636-1.8595276,5.4654541-3.5636597,8.7792664-4.0561981
	c0.7225342-0.1073914,1.4904175-0.1167908,2.2092285,0.0009155c1.5697021,0.2570496,2.5586548,1.4149628,2.5550537,3.0625763
	c-0.0037842,1.714859-0.1328735,3.4313507-0.2634888,5.1428223c-0.0363159,0.4755707-0.2069092,0.9699402-0.4284058,1.3974457
	c-1.1119385,2.146698-1.7803345,4.427475-2.3845215,6.7640076c-0.6009521,2.324295-1.2915649,4.619751-1.5030518,7.0181274
	c-0.2845459,3.2255249,0.4585571,6.1718292,2.151123,8.9807587c1.5084839,2.503418,3.663147,3.2337952,6.3602905,3.1282806
	c1.4787598-0.0578613,2.9680786,0.0624542,4.4398804-0.0560455c1.8064575-0.1454468,3.6049194-0.4246979,5.3942871-0.7216492
	c0.3745728-0.0621643,0.7357178-0.4109802,1.0335083-0.6994019c3.1884766-3.0875549,6.505249-6.0445557,9.239563-9.579834
	c2.4123535-3.1189575,5.019104-6.0892639,7.3884277-9.2391968c2.0311279-2.7002258,3.8621216-5.5521698,5.7521362-8.3568573
	c0.7645264-1.1345978,3.6004028-2.5137634,4.7000122-1.8913574c0.9454956,0.5351868,1.6828613,1.5602264,2.3171997,2.5003052
	c1.9976196,2.960495,2.1003418,6.2879028,1.666626,9.690033c-0.4361572,3.421875-0.7718506,6.8603821-1.3428955,10.2594757
	c-0.2508545,1.4937439-0.9170532,2.9319-1.4984131,4.3528748c-1.0316772,2.5214233-2.1582642,5.0038452-3.2105713,7.5170898
	c-0.331543,0.7916412-0.4494629,1.6833191-0.8426514,2.4365845c-1.3380737,2.5638885-2.7340088,5.0984802-4.1573486,7.6162567
	c-0.3587036,0.6344757-0.9119873,1.1570129-1.3569336,1.7452698c-0.3338013,0.4413757-0.8967285,0.9000549-0.9065552,1.3606262
	c-0.0308228,1.4435577-0.8664551,2.2270508-2.0708008,2.8682098c0.5498657,0.9860077,0.2150879,1.8389587-0.2835083,2.6208344
	c-1.4689941,2.3033905-1.7653198,4.9545593-2.2283936,7.5401001c-0.5197144,2.901886-0.895752,5.8299255-1.3137207,8.749527
	c-0.428772,2.9948425-0.6596069,5.9898224-0.328064,9.0242462c0.1940308,1.7758789,0.0147705,3.5939331,0.2279663,5.3660126
	c0.4335938,3.6040192,1.0222168,7.1893005,1.5400391,10.7832947c0.1052856,0.7311401,0.1470947,1.4724579,0.2753906,2.1989746
	c0.2768555,1.5684204,0.5429688,3.1412354,0.899231,4.6925964c0.8499146,3.7014771,1.2136841,7.3880005,0.2653809,11.1461487
	c-0.447937,1.7752686-0.6983032,3.5764465-1.4053345,5.308136c-1.6287231,3.9888306-4.2922363,7.3036194-6.7300415,10.7645874
	c-1.9142456,2.7176514-4.0245361,5.298645-5.9032593,8.0393982c-0.8616333,1.2570496-1.4417114,2.7246399-2.0335083,4.14505
	c-0.9471436,2.2729187-1.8511353,4.5671387-2.6741943,6.8875427c-0.8415527,2.3723755-1.4897461,4.8140869-2.3528442,7.1779175
	c-2.1035156,5.7612305-2.7217407,11.8861084-4.4302368,17.7412415c-0.3392334,1.1628113-0.3521729,2.4408264-1.2642212,3.4017944
	c-0.147522,0.155426-0.2213745,0.485321-0.1762695,0.7028198c0.475769,2.2939758-0.5762329,4.35849-0.9511719,6.5221558
	c-0.6002197,3.4640503-1.227478,6.9233398-0.9199829,10.467926c0.0251465,0.2900696-0.0515137,0.5918579-0.0999756,0.8850403
	c-0.65979,3.9910278-1.218689,7.9980164-2.531189,11.8570557c-0.6455078,1.8977051-0.8722534,3.9546814-1.6480103,5.7874451
	c-1.3200073,3.1184998-3.1227417,5.9623718-5.666687,8.2995605c-1.948761,1.7903748-3.7557068,3.7341309-5.6610718,5.5730591
	c-0.8313293,0.8023376-1.655365,1.6889954-2.6498108,2.2303467c-2.3182373,1.2618713-4.4661255,2.886261-7.1254272,3.4821472
	c-0.7007751,0.1570129-1.3182983,0.6529236-2.0049744,0.9108276c-2.4489746,0.9197998-4.9642334,0.8956909-7.5617981,0.8403931
	c-2.3502197-0.0500488-4.6061096-0.5662842-6.9197388-0.7302246c-2.4304199-0.1722412-4.6289062-1.1879883-6.7764587-2.2813721
	c-0.489624-0.2492676-0.9750366-0.5066833-1.4624634-0.7602234c-0.21521-0.111908-0.5921936-0.1919861-0.6209412-0.3399048
	c-0.2927551-1.5059814-1.7904358-1.7434082-2.6584778-2.6268921c-1.4232483-1.4485168-2.7212524-3.0213623-4.0517273-4.5593567
	c-1.1378784-1.3153381-1.8874207-2.8375549-2.5828552-4.4382019c-1.6377869-3.7695618-2.5338745-7.697876-2.7954407-11.7642517
	c-0.2037659-3.1678467,0.408783-6.2281189,1.5717163-9.2020264c0.5791626-1.4812622,0.9406433-3.0583496,1.2866211-4.6173706
	c0.4660645-2.1001892,1.0254517-4.2107849,1.1721191-6.3425293c0.1684875-2.4483337,0.1057739-4.9448853-0.1742554-7.3840027
	c-0.4000549-3.4839478-1.0885315-6.9347534-1.6549377-10.3995667c-0.0298462-0.1826477-0.0466919-0.3721313-0.1090393-0.5441589
	c-1.3586426-3.7504883-2.7153015-7.50177-4.0960083-11.2441711c-0.1642456-0.4451294-0.4655457-0.8397217-0.7330627-1.3100891
	c-2.6492615,0.9548035-4.0154419,3.0635986-5.2912903,5.2176208c-1.0296021,1.7383118-1.9316711,3.5524597-2.8803711,5.3382568
	c-0.202301,0.3808899-0.450592,0.7684937-0.5256042,1.1806641c-0.3991699,2.1949768-1.2005615,4.2478638-1.9792786,6.3287659
	c-0.9692688,2.5899353-1.6982727,5.2717896-2.4848938,7.9276123c-1.0849915,3.6632385-2.1256714,7.3395996-3.1888428,11.0093689
	c-0.1029968,0.3553162-0.2077332,0.7132263-0.3510132,1.0533752c-2.0204163,4.7960815-3.0087585,9.9059753-4.4538879,14.8738708
	c-0.7181702,2.4691467-0.9122009,5.0909729-1.3384705,7.6445312c-0.0606079,0.3629456,0.0254517,0.8121338-0.1596069,1.0820618
	c-0.8862,1.2929688-0.4122009,2.5260925-0.0984192,3.8693848c1.4203491,6.0799866,3.7043457,11.8565369,5.8777466,17.6858215
	c2.1447144,5.7519836,3.6243286,11.7022705,3.1324158,17.9179382c-0.247406,3.1263733-0.7395935,6.2496643-1.3726501,9.3225403
	c-0.3291626,1.598114-1.3334961,3.0453491-1.8056335,4.6285095c-0.8490601,2.847229-2.2660522,5.4391479-3.4090881,8.1529541
	c-0.0717468,0.1703796-0.1290283,0.3477478-0.1813049,0.5253296c-0.938324,3.1876831-2.5084839,6.1076965-3.9414062,9.076355
	c-1.067749,2.2121887-2.3869934,4.3038025-3.6107178,6.4396667c-1.2782593,2.2310486-2.4334412,4.5513611-3.9078674,6.6457825
	c-1.3381348,1.9007874-2.5629272,3.8394165-3.6809998,5.8743286c-1.3022766,2.3702698-3.0386047,4.5287476-4.1230469,6.9838562
	c-0.9317627,2.1095276-1.2807922,4.4928894-1.7515564,6.7831116c-0.2606812,1.2683105-0.470459,2.4964294-1.0895996,3.6800842
	c-0.4388428,0.8390198-0.4801941,1.8898315-0.6744995,2.8510437c-0.0854797,0.422821,0.0202026,0.9368286-0.1842957,1.2739868
	c-0.9497375,1.56604-1.1382141,3.3349304-1.6004333,5.050293c-0.927063,3.4406433-2.1482849,6.802887-3.2814941,10.1863098
	c-0.2137756,0.6382446-0.6303711,1.2064514-0.8694153,1.8387146c-0.4117737,1.0888367-0.6942749,2.229187-1.1439514,3.3005066
	c-0.9880371,2.354187-2.0445862,4.6796875-3.0775757,7.0148926c-0.3712769,0.8393555-0.7575989,1.6719971-1.1322021,2.5098267
	c-0.2488403,0.5565186-0.3856506,1.1985474-0.7511902,1.6611938c-1.4738464,1.8654175-2.3553162,4.0227661-3.224884,6.1939087
	c-0.090271,0.2254028-0.1786804,0.4668579-0.3292542,0.6506348c-1.6043091,1.9580688-2.1218262,4.2091675-1.810791,6.6798096
	c0.0607605,0.4827271,0.1576538,0.9711914,0.3166809,1.4296265c0.8683777,2.5039062,1.9399109,4.9532471,2.5992126,7.5095825
	c0.7663269,2.9717407,1.2715149,6.0211182,1.7166748,9.0621948c0.3826599,2.6140137,0.6230164,5.2591553,0.7435913,7.8988647
	c0.1685486,3.6912231,0.1709595,7.3901367,0.2376709,11.0858765c0.0587769,3.2567749,0.2419128,6.5184326,0.129303,9.7695923
	c-0.1557922,4.4981079,0.8047791,8.8182373,1.6902161,13.1651001c0.5777588,2.8365479,1.0540161,5.6954956,1.7003784,8.5158691
	c0.6585999,2.8739624,1.4641113,5.7144775,2.2157288,8.5668945c0.7666016,2.9094238,1.4179993,5.8574829,2.3522644,8.7125244
	c1.1465149,3.5038452,2.5733643,6.914856,3.8074341,10.3914185c1.5238953,4.2932129,3.0336609,8.5936279,4.4205933,12.9321289
	c0.4238586,1.3258667,0.4082642,2.7897949,0.6188965,4.1867065c0.5513306,3.6561279,1.1070251,7.3117676,1.6800537,10.9645386
	c0.296051,1.8873291,0.6413879,3.7668457,0.9487915,5.6524658c0.3494568,2.144104,1.4405518,3.970459,2.8023682,5.5397949
	c1.8482971,2.1298218,3.9354248,4.0553589,5.9550476,6.0327759c2.1068726,2.0629883,4.4780579,3.9029541,6.3203125,6.1755371
	c1.7146912,2.1152344,3.7454834,4.1522217,4.3312988,7.0131836c0.0244141,0.1191406,0.0697327,0.2427979,0.1369934,0.3431396
	c1.5201721,2.2674561,2.2736511,4.8855591,3.373291,7.34552c0.776947,1.7379761,1.6074829,3.4519043,2.4106445,5.1782837
	c0.1293945,0.2780762,0.1917114,0.6000977,0.3672485,0.8421631c2.2872009,3.1549072,2.0745239,6.7159424,0.8774414,9.9908447
	c-1.0820923,2.9603882-3.2745056,5.3828735-6.4149475,6.6304932c-0.6246948,0.24823-1.2054138,0.6049194-1.8169556,0.8887939
	c-1.1247864,0.5220337-2.1509094,0.9610596-3.471344,0.173584c-0.660614-0.3939819-1.7884216-0.0977173-2.6877136,0.0189209
	c-2.8067932,0.3640747-5.6081238,1.1281738-8.4064026,1.1057129c-3.2207642-0.0258789-6.4573669-0.4099121-9.6624451-1.1099854
	c-3.1180725-0.6810913-5.8797913-2.1706543-8.7573242-3.3500366c-1.63974-0.6721191-3.2237854-1.8478394-4.4745178-3.340271
	c-2.3822632-2.8428345-3.8046875-6.1461182-5.0618591-9.5682983c-0.7215881-1.9643555-1.68927-3.8433228-2.3360596-5.8291016
	c-1.0041809-3.0830688-1.4274597-6.2252197-0.6065063-9.4736328c0.4049072-1.6020508,0.6397095-3.2836914,0.6663818-4.9338989
	c0.0235596-1.456665-0.0904541-3.0162964-0.5935669-4.3623047c-1.6799316-4.4945068-3.7984924-8.7788086-6.6161194-12.7063599
	c-1.2164612-1.6956787-2.1720276-3.5787354-3.2428284-5.37854c-0.3776855-0.6348877-0.7406921-1.2783813-1.118988-1.9129028
	c-2.2267151-3.7348022-3.8764954-7.708252-4.7588196-11.9674683c-0.6990967-3.374939-1.3361816-6.7662354-1.8729858-10.1703491
	c-0.5656128-3.5865479-0.966217-7.1989746-1.4674988-10.7961426c-0.152832-1.0965576-0.4176636-2.177124-0.6012878-3.2700806
	c-0.7665405-4.5630493-1.4367371-9.1442871-2.3087158-13.6869507c-0.6605835-3.4414673-1.5768433-6.8336792-2.3694458-10.250061
	c-0.1235962-0.5326538-0.1945801-1.0775146-0.3208923-1.7921143c-0.3397217,0.2111816-0.6418152,0.2999268-0.781311,0.5013428
	c-1.1575317,1.6715698-2.2550964,3.3851318-3.4303894,5.0437622c-1.1034546,1.557312-2.1852417,3.0780029-2.8258667,4.9388428
	c-0.532196,1.5458984-1.6176147,2.8919678-2.3138733,4.3933716c-0.7707214,1.6618652-1.3930359,3.3937988-2.052124,5.105896
	c-1.0172729,2.6426392-2.2825623,5.2283325-2.9464722,7.9588013c-0.8514099,3.5015869-2.3053589,6.7935181-3.1281433,10.3057251
	c-0.7552185,3.2237549-1.5072021,6.4311523-2.1499939,9.6832275c-0.5641785,2.8544922-0.7208557,5.7302246-1.0497437,8.5776978
	c-0.2533875,2.1939087-0.513855,4.3504028-1.0693054,6.4857178c-0.3235168,1.2435913-0.5200195,2.5203857-0.7702332,3.7828979
	c-0.0957947,0.4835205-0.2225342,0.965332-0.2658081,1.4540405c-0.2113953,2.3855591-0.4328613,4.7709351-0.5874329,7.1605225
	c-0.2153931,3.329895-0.2207642,6.6294556,1.6334839,9.6247559c0.3172302,0.5124512,0.4624023,1.1450806,0.6194153,1.7400513
	c0.3009644,1.1401978,0.7280884,2.1709595,1.4459229,3.1584473c0.7416382,1.0202637,1.2098083,2.2637329,1.669281,3.4589233
	c0.7251282,1.8863525,1.4119568,3.7931519,1.993103,5.7279663c1.5413208,5.1315918,3.3434448,10.2124023,3.0438843,15.713562
	c-0.0951233,1.746521-0.9010925,2.9282837-2.6322632,3.4750977c-0.4532166,0.1431274-0.8675537,0.4174194-1.2895203,0.6500854
	c-1.5007324,0.8275757-2.9074097,1.9820557-4.5126343,2.4329224c-3.9975891,1.1229248-8.014801,2.362793-12.2905579,1.7786865
	c-1.3311157-0.1818237-2.6979065-0.0893555-4.0464172-0.1599121c-1.2147217-0.0635986-2.4455872,0.0731812-3.5940552-0.5977783
	c-0.5039368-0.2943726-1.1885071-0.3081055-1.7991028-0.3865356c-2.785553-0.3579102-5.3175659-1.2392578-7.4822693-3.1398926
	c-1.2373352-1.0863037-2.7618103-1.84729-3.9897156-2.9422607c-2.3110352-2.0609131-3.7691345-4.6605835-4.3578796-7.7310791
	c-0.3934021-2.0516357-0.9456787-4.0784302-1.2316284-6.1434326c-0.2785645-2.0119019-0.6159363-4.0952759-0.3763428-6.0806885
	c0.3658752-3.0324097,1.1255798-6.027832,1.880249-8.9978027c0.3439331-1.3536377,1.1234131-2.5907593,1.6212158-3.9124146
	c1.1546021-3.0655518,2.0066528-6.2133789,2.4140625-9.4730835c0.2097473-1.6786499-0.0275879-3.2696533-0.5106506-4.9067993
	c-1.0802917-3.6609497-2.0829468-7.3571167-1.8371277-11.2493896c0.1241455-1.9656372,0.1908875-3.9351196,0.2761841-5.9031372
	c0.1197205-2.7601318,1.1155701-5.3154907,2.1879578-7.7675781c2.987854-6.8321533,6.3474731-13.5040894,9.2477722-20.3712769
	c1.9109192-4.5245361,3.9043274-9.048645,5.0263672-13.8838501c0.5235901-2.2563477,1.400238-4.428772,1.9820862-6.6741333
	c0.6620178-2.5544434,1.1812134-5.1463013,1.7472229-7.7252808c0.2634888-1.2005615,0.5541077-2.4003906,0.7209167-3.6157837
	c0.3005981-2.1901855,0.507782-4.3930054,0.7746887-6.5880737c0.0812683-0.668396,0.2650757-1.3245239,0.3421021-1.9931641
	c0.268158-2.3274536,0.3651733-4.6849365,0.7927551-6.9815063c0.8346558-4.4833374,1.5784302-9.0135498,2.8711853-13.3726807
	c1.0963135-3.6967773,2.9264221-7.1743164,4.4060974-10.7595825c1.1701355-2.8352661,2.305542-5.6849365,3.4472351-8.5318604
	c0.385498-0.9611816,0.4466858-1.828186-0.276062-2.7637939c-1.2684937-1.6420288-2.382843-3.40271-3.5710754-5.1071777
	c-0.6588745-0.9451904-1.3529968-1.8659668-2.0028687-2.8171997c-1.9420776-2.8425903-3.8985291-5.6760254-5.7937317-8.5497437
	c-1.2844849-1.9477539-2.5270996-3.9272461-3.6953125-5.9464111c-1.6030273-2.7706299-3.117218-5.5926514-4.6708984-8.3918762
	c-0.9533386-1.7176514-1.9093628-3.4338074-2.9059143-5.2256165c-3.0742798,0.4259644-6.1142578,0.8142395-9.1430969,1.2758484
	c-3.2236328,0.4912109-6.4256287,1.1380615-9.6581421,1.5525513c-2.2319336,0.2862244-4.4995117,0.2967834-6.7515259,0.4239807
	c-2.4605713,0.1390381-4.9211426,0.2794495-7.3825378,0.4022827c-1.9659119,0.098114-3.9325867,0.1946411-5.900116,0.2394409
	c-0.5392151,0.0122681-1.082489-0.1656189-1.6243286-0.25354c-0.9386902-0.1523438-1.6173096,0.1717834-2.2443542,0.9267273
	c-2.7126465,3.2658081-5.5054626,6.4649353-8.2270508,9.7234802c-1.9756165,2.3654175-3.9217529,4.7576294-5.8146362,7.1895142
	c-2.1118469,2.7132568-4.2799683,5.3972168-6.186615,8.2521362c-2.7307434,4.0888672-5.2135162,8.3108521-6.7841034,13.0498047
	c-1.0403442,3.1390991-1.9338989,6.2620239-1.7981262,9.5640869c0.1643372,3.9967041,0.4173126,7.9962158,0.8273315,11.9743652
	c0.3400116,3.2990723,0.8556519,6.590332,1.4989929,9.8444214c0.4280548,2.1651611,1.2262268,4.2563477,1.842041,6.385498
	c0.3595734,1.243103,0.6471558,2.5080566,1.0360565,3.7414551c0.7933655,2.5161743,1.575531,5.0385742,2.4726105,7.5184937
	c0.7081451,1.9577026,1.2279205,3.961792,2.2758331,5.8347168c0.9733276,1.739563,1.221344,3.8692017,1.9612122,5.7595825
	c0.8036499,2.0533447,1.8384705,4.0150757,2.7060242,6.045166c0.3337708,0.7810669,0.4133911,1.6689453,0.7310486,2.4589844
	c1.1937561,2.96875,2.4546509,5.9104614,3.6494141,8.8787842c0.2486572,0.6178589,0.3022766,1.3115845,0.4802856,1.9608765
	c0.5513306,2.0113525,1.1531982,4.0095215,1.6720276,6.0290527c0.625824,2.4359131,1.4932251,4.8643188,1.6893616,7.3408813
	c0.1965027,2.480896,1.0409241,4.9041748,0.4974976,7.5026245c-0.3558044,1.7012329,0.0536499,3.5507202-0.000946,5.3300781
	c-0.0527344,1.7181396-0.2913818,3.4296265-0.394104,5.1472778c-0.1719971,2.8757935-0.7945862,5.7579956-0.240509,8.6306152
	c0.3242493,1.6810913,0.934021,3.312561,1.4817505,4.9440308c1.0181274,3.0328369,2.1779175,6.0210571,3.1081543,9.0797729
	c1.209259,3.9761353,1.4958191,8.1040649,1.8649597,12.2306519c0.3816223,4.2663574-0.4317017,8.4727783-0.2864075,12.6897583
	c0.0899658,2.6089478-0.0044556,5.0791016-0.572998,7.6369019c-0.5726013,2.5760498-0.8544312,5.1804199-2.0088501,7.6292725
	c-0.6507263,1.3803101-1.0713806,2.8287354-2.162384,3.9884644c-1.0517273,1.117981-2.2221069,1.4179688-3.6422424,0.9713135
	c-0.2914734-0.0916748-0.5793762-0.2201538-0.8783875-0.258667c-2.5575867-0.3295288-5.1324768-0.5540161-7.6717834-0.9879761
	c-2.0499268-0.3502808-4.0002289-1.0388794-5.7726898-2.2336426c-2.9552765-1.9919434-6.0493011-3.7824707-8.9593811-5.8356934
	c-2.102417-1.4833374-4.2485657-3.0405273-5.9172363-4.9623413c-1.4890137-1.7150269-3.0644684-3.5494385-3.6244659-5.9172974
	c-0.0840149-0.3552246-0.2734375-0.6888428-0.4355927-1.0219116c-1.6575165-3.4050903-1.7323914-7.0115356-1.4603271-10.6912842
	c0.3056946-4.1343384,2.0563507-7.5178223,5.0947266-10.2616577c3.2663422-2.949646,4.1369019-6.8434448,4.5113678-10.9822388
	c0.2316742-2.5606689-0.577713-4.6056519-2.2846985-6.545105c-1.9983215-2.2703857-3.3562164-4.991394-4.5654449-7.7824707
	c-2.4612274-5.6809082-3.401123-11.65625-3.7695465-17.7787476c-0.1849365-3.0732422-0.5450745-6.1378784-0.9024048-9.1975708
	c-0.1131897-0.9692993-0.4946747-1.9049072-0.7142944-2.8648682c-0.1767883-0.7728882-0.2950439-1.559082-0.4385223-2.3395996
	c-0.0778046-0.4233398-0.0912933-0.8706055-0.2408905-1.2666016c-1.2164917-3.2210693-2.3589935-6.4750977-3.7149963-9.637207
	c-2.2032623-5.1379395-4.4786682-10.2481079-6.8708344-15.300354c-1.0993805-2.3218384-2.5358276-4.4853516-3.8407745-6.7081909
	c-1.5244598-2.5967407-3.0594177-5.187561-4.6163483-7.7649536c-0.6055908-1.0024414-1.261734-1.9765015-1.932373-2.9372559
	c-2.4664001-3.5333252-4.844696-7.1029053-6.5436707-11.1036987c-1.0299072-2.4251709-2.3860626-4.7106323-3.5637665-7.074707
	c-0.9898224-1.9869385-1.9507904-3.9888306-2.8840485-6.0028687c-0.2015381-0.4349365-0.2476501-0.9469604-0.3345184-1.4290771
	c-0.2394867-1.3287964-0.5240326-2.6538696-0.6699219-3.9937134c-0.0915985-0.8413086-0.0089264-1.7105713,0.0721588-2.5599365
	c0.1637573-1.7153931,0.4430237-3.4067993,1.4682465-4.8671265c-0.0763855-2.6079712,1.721344-4.4127197,2.849884-6.4812012
	c2.474762-4.5357666,5.1160889-8.9805298,7.6137238-13.5041504c2.230896-4.0405884,4.4112854-8.1134033,6.0506744-12.443512
	c1.2632904-3.3367004,2.5071411-6.6808472,3.7375183-10.0298157c0.1673431-0.4554749,0.2060089-0.9581909,0.3383484-1.6058655
	c-0.6787567-0.3911438-1.3201294-0.8745422-2.0407715-1.1525269c-1.539856-0.5939331-3.1619263-0.986908-4.6710815-1.6441345
	c-1.1039581-0.4807434-2.0777283-1.2578735-3.1161804-1.8919983c-2.93927-1.7949524-5.8817596-3.5846252-8.8235931-5.3753967
	c-0.4686279-0.2852478-0.9403687-0.5653381-1.5689697-0.9429321c-1.1188354,2.000885-2.2000732,3.9102783-3.2585449,5.8322754
	c-2.5555725,4.6404724-5.1050415,9.2842712-7.6447906,13.9334412c-0.3842163,0.7032776-0.712738,1.4377747-1.0506439,2.1654663
	c-1.11409,2.3991089-2.2466583,4.7901917-3.3231354,7.2061462c-1.1791077,2.6463013-2.2864838,5.3245239-3.4595032,7.9735718
	c-0.5731964,1.2944336-1.1741638,2.581604-1.8504639,3.8242798c-1.5462341,2.8410645-2.5157166,5.9017944-3.1889648,9.0228271
	c-0.8165741,3.7854614-1.5236816,7.614563-1.9380798,11.4614258c-0.4750671,4.4102783-0.593277,8.8598022-0.8298798,13.2942505
	c-0.0593262,1.1119995-0.0044403,2.2244873-0.6407013,3.2155762c-0.0980682,0.152771-0.1659241,0.3374634-0.2004852,0.5165405
	c-0.6405334,3.3183594-1.2746582,6.6380615-1.9073639,9.9578857c-0.0578461,0.3035278-0.0379028,0.635437-0.1540985,0.9121704
	c-0.8782349,2.0914307-1.7709808,4.1768799-2.6795349,6.2554321c-1.1804199,2.7004395-2.6339264,5.3130493-3.5090332,8.1078491
	c-1.2063599,3.8526001-2.0422211,7.8265381-2.9281769,11.7729492c-1.3282013,5.9161377-1.5543671,11.927063-1.3729401,17.9677124
	c0.0572052,1.9047852-0.0926819,3.8162842-0.0195465,5.7199097c0.1789856,4.6582642,0.3593445,9.3123779,0.3253326,13.9783936
	c-0.0336761,4.6220703,0.2565765,9.2467041,0.2125397,13.8684082c-0.027298,2.8669434-0.0732269,5.7349854-1.0767517,8.5492554
	c-0.7117462,1.9960327-0.7794647,4.2171631-1.1941681,6.3261108c-0.1457062,0.7409668,0.0246735,1.5107422-0.5201416,2.2462158
	c-0.3194733,0.4312744-0.2675629,1.3299561-0.0730743,1.9155273c0.7470398,2.2492676,1.3085632,4.6425171,3.5546112,6.0176392
	c2.4062653,3.3867188,5.4886932,6.2730103,7.2180634,10.1681519c1.3612823,3.06604,2.1002502,6.2755127,2.7550201,9.5276489
	c0.4039154,2.0061646,0.4193878,4.020813,0.3885803,6.0645752c-0.0380402,2.5231323,0.2305756,5.0497437,0.3262024,7.576355
	c0.0520782,1.3757935-0.3979797,1.78479-1.764328,1.9575195c-0.5178833,0.0654297-1.1521149,0.2114258-1.4827881,0.559082
	c-0.8122559,0.8536377-1.811554,1.2468872-2.8814087,1.5715332c-0.2933502,0.0889282-0.5651245,0.2466431-0.8544464,0.3516235
	c-1.2663116,0.4597778-1.9269867,1.8872681-3.6300964,1.8278809c-1.2603455-0.0440063-2.6445923,0.5805664-3.8040161,1.2164917
	c-1.6516266,0.9058838-3.4546051,0.7049561-5.165451,1.0988159c-4.0303497,0.9280396-7.817627-0.2802124-11.6247711-1.2897949
	c-1.8329315-0.486145-3.6471863-1.0435791-5.4647827-1.5858765c-0.4093323-0.1221313-0.8401947-0.2525635-1.1873779-0.4879761
	c-1.3438263-0.911499-3.0346375-1.2362061-4.1659927-2.5270386c-0.2447128-0.2791138-0.7846298-0.2947388-1.1841125-0.4436646
	c-2.3147736-0.8630981-2.9519043-2.2142334-2.7141571-4.5717773c0.1033859-1.0253296,0.313942-2.0646362,0.2346725-3.0787964
	c-0.2435226-3.1156006-0.7527924-6.2161865-0.8768845-9.3338013c-0.1266403-3.1817627-0.6671143-6.371582-0.1283112-9.562439
	c0.2665634-1.5786743,0.6513214-3.0333252,1.7803268-4.3602905c1.6004639-1.8812256,2.0568924-4.3413086,2.2876358-6.7494507
	c0.2575607-2.6881104,0.3682938-5.394165,0.4367752-8.0950928c0.043663-1.722229-0.4307022-3.3590088-0.9467316-5.0211182
	c-0.7018204-2.2605591-1.060997-4.6329956-1.483223-6.9725952c-0.2503738-1.3873901-0.3384857-2.8039551-0.5013962-4.2071533
	c-0.0356598-0.3071289-0.1623154-0.6294556-0.1065445-0.9175415c0.7238235-3.7389526,0.6263123-7.5800781,1.6764984-11.2981567
	c1.050972-3.7207642,2.0906143-7.4840088,2.365448-11.3724976c0.299202-4.2332153,0.4831314-8.4746704,0.7129898-12.7127686
	c0.0467834-0.8627319,0.0467987-1.7286987,0.1151733-2.5894775c0.415802-5.2339478,0.0883789-10.463562-0.0912781-15.6931763
	c-0.0567017-1.6503296-0.2421722-3.2960815-0.3068085-4.9463501c-0.0262756-0.6708984,0.124115-1.34729,0.1728973-2.0227661
	c0.0568085-0.7862549,0.2664337-1.612915,0.103241-2.3546143c-0.6729584-3.0583496-1.5420456-6.074646-2.1792374-9.1395874
	c-0.3975296-1.9122314-0.634819-3.8781128-0.7235718-5.8299561c-0.1874619-4.1231689-0.2260666-8.2529907-0.33461-12.3799438
	c-0.0387878-1.4744873-0.0053024-2.9598999-0.1775436-4.4199829c-0.3024292-2.5635376,0.7666245-4.8043213,1.5770798-7.081543
	c1.0598068-2.9779053,2.6116104-5.7645264,3.1511917-8.9475708c0.4590302-2.7080078,1.2972565-5.3532715,1.723053-8.0646973
	c0.3709869-2.3624878,0.3360291-4.7856445,0.5970917-7.1692505c0.3069916-2.8031006-0.2853851-5.5202637-0.6538849-8.2540283
	c-0.4356079-3.2316284-1.0180664-6.4434509-1.5376587-9.6637573c-0.0393829-0.2440186-0.110199-0.4855652-0.1241913-0.7307129
	c-0.1965942-3.447113-0.3843384-6.8947754-0.5775452-10.3420715c-0.0858307-1.531311-0.1791382-3.0621948-0.2690582-4.5932312
	C128.9122925,491.3234863,128.7628784,491.29422,128.6134491,491.2649536z"/>
</svg>
