<?xml version="1.0" encoding="utf-8"?>
<!-- Generator: Adobe Illustrator 27.0.1, SVG Export Plug-In . SVG Version: 6.00 Build 0)  -->
<svg version="1.1" id="Layer_1" xmlns="http://www.w3.org/2000/svg" xmlns:xlink="http://www.w3.org/1999/xlink" x="0px" y="0px"
	 viewBox="0 0 595.2755737 841.8898315" style="enable-background:new 0 0 595.2755737 841.8898315;" xml:space="preserve">
<style type="text/css">
	.st0{fill:none;stroke:#000000;stroke-width:3;stroke-miterlimit:10;}
</style>
<path class="st0" d="M286.7895508,630.6984253c-1.2250977-1.1601562-2.6923828-2.1572266-4.1108398-3.1220703
	c-1.2363281-0.8398438-2.5097656-1.7050781-3.6723633-2.6992188c-12.065918-10.3183594-26.5170898-15.5498047-42.9516602-15.5498047
	l-0.4448242,0.0009766c-4.4428711,0.0244141-9.6201172,0.1064453-14.5927734,0.7773438
	c-1.2416992,0.1669922-2.4853516,0.3271484-3.7294922,0.4882812c-6.6000977,0.8515625-13.4257812,1.7324219-19.7841797,3.6357422
	c-5.5205078,1.6523438-10.9873047,3.9042969-16.2739258,6.0820312c-3.7587891,1.5488281-7.6367188,3.1455078-11.5258789,4.5283203
	c-7.2270508,2.5673828-14.7138672,4.7314453-21.9545898,6.8242188l-2.3540039,0.6806641
	c-1.9282227,0.5595703-3.9379883,0.8476562-5.8813477,1.1259766c-0.7543945,0.1083984-1.5039062,0.2158203-2.2490234,0.3388672
	l-0.4848633,0.0800781h-6.137207c0,0-1.4448242-0.7119141-1.4458008-0.7119141
	c-10.7636719-0.3154297-20.722168-4.8671875-29.5810547-13.5263672
	c-6.3759766-6.2333984-11.9296875-13.4521484-17.300293-20.4335938l-1.8935547-2.4570312
	c-1.440918-1.8652344-2.9819336-2.7705078-5.3139648-3.1201172c-1.690918-0.2519531-3.4667969-0.4433594-5.0336914-0.6123047
	c-3.5302734-0.3837891-7.1567383-0.7773438-10.5888672-1.7851562c-14.4643555-4.2529297-24.7587891-10.5488281-32.3989258-19.8125
	c-7.9746094-9.6728516-10.2548828-20.2636719-6.9716797-32.3779297c1.2124023-4.4755859,2.4892578-9.0009766,3.7241211-13.3779297
	c2.4482422-8.6816406,4.9799805-17.6582031,7.1088867-26.5664062c1.765625-7.3886719,1.7294922-14.5644531-0.1079102-21.3271484
	c-2.6367188-9.7060547-8.0541992-17.7910156-17.0483398-25.4443359l-5.1025391-4.3408203l4.8754883-4.5947266
	c2.6557617-2.5029297,5.4604492-5.3007812,8.5742188-8.5527344c8.3549805-8.7265625,11.3295898-20.3349609,8.8417969-34.5029297
	c-1.1162109-6.359375-3.3564453-12.6723633-5.5224609-18.7773438c-1.190918-3.3554688-2.4057617-6.7788086-3.4360352-10.1918945
	c-0.2753906-0.9130859-0.5581055-1.8271484-0.8413086-2.7426758l-0.0507812-0.1640625
	c-1.6333008-5.2783203-3.1748047-10.2592773-3.7631836-15.5424805c-1.109375-9.965332,2.6977539-19.5673828,11.0097656-27.769043
	c9.8608398-9.7285156,22.824707-16.6298828,39.6313477-21.0991211c5.9775391-1.5898438,11.6240234-3.0908203,14.8691406-9.4501953
	c3.5063477-6.8706055,8.6552734-13.1176758,15.7407227-19.0991211c6.1904297-5.2255859,12.4648438-8.5825195,19.1806641-10.262207
	c2.565918-0.6416016,5.081543-1.1108398,7.7446289-1.6079102c1.0366211-0.1933594,2.0424805-0.3813477,3.0458984-0.578125
	l0.5717773-0.1118164h7.6831055l1.1347656,0.2705078c0.7475586,0.1796875,1.5053711,0.3618164,2.2446289,0.4726562
	c1.0991211,0.1650391,2.2016602,0.300293,3.3041992,0.4350586c1.7788086,0.2182617,3.6171875,0.4433594,5.4228516,0.7954102
	c10.0234375,1.956543,19.0654297,5.6796875,28.6386719,9.6220703c3.2509766,1.3383789,6.5766602,2.7080078,9.8725586,3.9697266
	c18.9589844,7.2592773,34.6625977,10.6401367,49.421875,10.6401367c4.2666016,0,8.5356445-0.2885742,12.6879883-0.8583984
	c12.206543-1.6748047,22.3813477-6.4677734,30.2412109-14.2456055c1.4477539-1.4321289,2.8237305-2.9086914,4.4438477-4.6855469
	l3.8115234-4.1787109l4.3964844,3.5585938c0.3740234,0.3027344,0.7387695,0.5668945,1.0737305,0.8115234
	c0.5302734,0.3867188,1.0795898,0.7875977,1.5976562,1.2475586c10.8417969,9.6142578,23.453125,15.1298828,38.5546875,16.8618164
	c3.3164062,0.3808594,6.7529297,0.5737305,10.2138672,0.5737305c7.3193359,0,15.1015625-0.8486328,23.7910156-2.5942383
	c12.7041016-2.5517578,24.8222656-7.5351562,36.5419922-12.3544922c2.9472656-1.2119141,5.8955078-2.4233398,8.8554688-3.6010742
	c10.28125-4.0878906,19.5410156-6.074707,28.3105469-6.074707c4.6962891,0,9.3427734,0.5839844,13.8105469,1.7358398
	c14.6152344,3.7680664,27.3144531,12.5981445,39.9658203,27.7890625c0.5292969,0.6347656,1.046875,1.277832,1.5625,1.9179688
	l0.0625,0.078125c3.7021484,4.5981445,6.8994141,8.5693359,13.0605469,9.4501953
	c13.1865234,1.8847656,24.8320312,7.2504883,34.4853516,12.2504883c7.1269531,3.6904297,12.421875,8.5136719,15.7363281,14.3349609
	c5.2255859,9.1762695,3.6054688,18.5893555,1.0751953,27.3950195c-1.5917969,5.5395508-3.6835938,10.706543-5.8984375,16.1772461
	c-3.5,8.6474609-7.1181641,17.5854492-8.0253906,27.1621094c-0.7744141,8.1674805-0.9150391,18.6425781,4.9169922,27.2250977
	c2.7539062,4.0537109,6.4746094,7.6113281,10.0732422,11.0517578c1.3193359,1.2607422,2.6826172,2.5654297,3.9990234,3.8945312
	l4.1074219,3.8867188l-3.6113281,4.3554688l-1.2070312,1.4355469c-2.9882812,3.5585938-6.078125,7.2382812-9.0712891,10.8876953
	c-5.6083984,6.8369141-11.0400391,15.2841797-8.8076172,26.1064453l0.9101562,4.4326172
	c1.6787109,8.2089844,3.4130859,16.6933594,5.5292969,24.9853516c1.0322266,4.0458984,2.3398438,8.1113281,3.6044922,12.0429688
	c1.5039062,4.671875,2.9160156,9.0605469,4.0214844,13.6943359c3.5400391,14.8496094-3.1416016,28.0126953-17.4394531,34.3535156
	c-11.0986328,4.9228516-22.4970703,9.2558594-33.1601562,13.2050781c-4.578125,1.6943359-7.9072266,3.7119141-10.3613281,8.5234375
	c-6.6191406,12.9755859-15.8945312,22.2841797-27.5693359,27.6669922c-2.9580078,1.3632812-6.1552734,2.2089844-9.2470703,3.0283203
	c-1.1923828,0.3154297-2.3632812,0.6240234-3.5371094,0.9667969l-0.8232422,0.2402344h-20.4482422l-1.1523438-0.5058594
	c-0.2001953-0.0878906-0.4599609-0.1933594-0.6904297-0.2294922c-2.3671875-0.3710938-4.7617188-0.6611328-7.0771484-0.9404297
	c-5.2089844-0.6298828-10.1279297-1.2246094-15.0019531-2.6347656
	c-11.1162109-3.2148438-22.2363281-7.0654297-32.9912109-10.7890625c-2.5029297-0.8681641-4.9648438-1.7207031-7.4296875-2.5664062
	c-9.3505859-3.2099609-18.5732422-4.8378906-27.4111328-4.8378906c-5.2910156,0-10.5839844,0.5820312-15.7304688,1.7304688
	c-12.6035156,2.8115234-24.6210938,8.6152344-36.7402344,17.7421875l-4.4536133,3.2949219L286.7895508,630.6984253z"/>
</svg>
