<?xml version="1.0" encoding="utf-8"?>
<!-- Generator: Adobe Illustrator 27.0.1, SVG Export Plug-In . SVG Version: 6.00 Build 0)  -->
<svg version="1.1" id="cutter" xmlns="http://www.w3.org/2000/svg" xmlns:xlink="http://www.w3.org/1999/xlink" x="0px" y="0px"
	 viewBox="0 0 595.2755737 841.8898315" style="enable-background:new 0 0 595.2755737 841.8898315;" xml:space="preserve">
<style type="text/css">
	.st0{fill:none;}
</style>
<g>
	<path class="st0" d="M202.7954102,517.225769c-9.6655273,0-19.0039062-6.4365234-27.7636719-19.1347656
		c-16.2768555-3.8935547-25.7363281-8.9824219-29.7460938-15.9970703
		c-4.2260742-7.3925781-1.7133789-15.4912109,0.9472656-24.0654297c3.746582-12.0732422,7.6201172-24.5576172-7.8330078-36.1992188
		l-1.5205078-1.1455078l1.5336914-1.1279297c15.4931641-11.3925781,11.6191406-22.1860352,7.5180664-33.6132812
		c-3.4438477-9.5947266-7.0043945-19.5166016,2.137207-29.0625c4.5600586-5.4858398,10.8173828-7.5551758,16.3393555-9.3813477
		c5.4077148-1.7880859,10.078125-3.3325195,12.402832-7.5214844c6.4638672-10.1293945,14.6464844-15.0170898,25.0600586-15.0170898
		c8.6630859,0,17.6665039,3.1948242,27.1987305,6.5771484c9.4101562,3.3388672,19.140625,6.7915039,28.3242188,6.7915039
		c9.5444336,0,17.4682617-3.8398438,24.2241211-11.7392578l1.0224609-1.1953125l1.0830078,1.1411133
		c6.7958984,7.1640625,16.730957,11.109375,27.9760742,11.109375c3.7900391,0,7.625-0.4501953,11.3994141-1.3383789
		c5.5703125-0.9414062,10.9511719-3.1918945,16.1552734-5.3681641c6.9804688-2.9194336,14.1982422-5.9379883,21.9462891-5.9379883
		c1.78125,0,3.5595703,0.1616211,5.2851562,0.4804688c8.4824219,1.6279297,15.8242188,6.4130859,23.1123047,15.0600586
		c0.3505859,0.4169922,0.6875,0.84375,1.0224609,1.2695312c1.5097656,1.9194336,2.8144531,3.5776367,5.3613281,4.0400391
		c14.8427734,3.2094727,23.3583984,7.6435547,26.8447266,13.9628906c3.8105469,6.90625,0.9609375,14.7299805-2.0576172,23.0126953
		c-4.4667969,12.2617188-9.0869141,24.940918,6.6904297,36.8925781l1.3339844,1.0102539l-1.2158203,1.1494141
		c-14.4628906,13.6767578-11.546875,22.8720703-7.1347656,36.7900391c1.2900391,4.0664062,2.7509766,8.6757812,3.8291016,13.7568359
		l0.0205078,0.1230469c1.6259766,13.3857422-8.6982422,16.8994141-17.8066406,20
		c-6.2509766,2.1269531-12.1552734,4.1367188-14.5957031,8.8369141
		c-4.9550781,10.3164062-14.7763672,15.7910156-28.3828125,15.7910156c-5.0283203,0-10.5722656-0.7890625-16.0341797-2.2822266
		c-1.5273438-0.5224609-2.9589844-1.0214844-4.3828125-1.5185547c-11.0068359-3.8417969-21.4033203-7.4716797-31.5771484-7.4716797
		c-9.2080078,0-17.4194336,3.0947266-25.1030273,9.4589844c-0.7583008,0.5712891-1.6367188,1.2314453-2.7475586,1.2314453
		c-0.8710938,0-1.6904297-0.3964844-2.5053711-1.2138672c-7.2583008-7.2792969-15.887207-10.8173828-26.3793945-10.8173828
		c-11.6689453,0-23.9282227,4.2763672-35.7836914,8.4121094c-3.3901367,1.1826172-6.5917969,2.2998047-9.7958984,3.3261719
		C207.034668,516.9191284,204.8950195,517.225769,202.7954102,517.225769z"/>
	<path class="st0" d="M139.2529144,420.6973877c29.8985443-21.98526-9.0500031-43.187561,9.8734589-62.8727417
		c8.620163-10.4222107,23.7453156-7.8280029,28.9235992-17.1600952
		c26.5772705-41.6272583,72.1659698,24.8210449,104.6449738-13.1533813
		c10.3049927,10.8627014,26.2931213,13.5712585,40.7274475,10.1749878
		c14.6239319-2.4638977,27.4646606-13.6465759,42.8052063-10.8117371
		c9.3871765,1.8014221,16.3081665,7.4874878,22.2857361,14.5800781c2.0079956,2.3825684,3.5114136,5.1174316,7.2149963,5.7901306
		c62.0547485,13.4224548-5.6465759,45.9383545,30.8748779,73.6035767
		c-19.6282043,18.5617981-8.3363342,30.1017151-3.7189026,51.8707581
		c2.5223694,20.7562256-25.661377,15.3210449-32.2521057,28.0128174
		c-7.9191284,16.4851379-27.2935181,17.0314026-42.7852783,12.7950134
		c-22.0003967-7.5621948-41.8953857-16.1917419-62.3413391,0.7442627c-1.2059937,0.9057007-2.0267639,1.4301147-3.345459,0.1083374
		c-21.2877197-21.3493958-49.4788055-7.0911865-73.394989,0.5723877
		c-14.3473053,4.0933838-25.4611816-7.225647-32.873764-18.1134644
		C108.6954269,481.0180969,175.9953766,448.3779907,139.2529144,420.6973877z"/>
</g>
</svg>
