<?xml version="1.0" encoding="utf-8"?>
<!-- Generator: Adobe Illustrator 27.0.1, SVG Export Plug-In . SVG Version: 6.00 Build 0)  -->
<svg version="1.1" id="base" xmlns="http://www.w3.org/2000/svg" xmlns:xlink="http://www.w3.org/1999/xlink" x="0px" y="0px"
	 viewBox="0 0 595.2755737 841.8898315" style="enable-background:new 0 0 595.2755737 841.8898315;" xml:space="preserve">
<style type="text/css">
	.st0{fill:none;}
</style>
<g>
	<path class="st0" d="M202.7954102,532.8165894c-13.6044922,0-26.0400391-7.0703125-37.0336914-21.0322266
		c-17.4287109-4.9335938-28.3129883-11.9863281-34.0107422-21.9521484
		c-7.590332-13.2773438-3.4394531-26.65625-0.4082031-36.4248047c4.0024414-12.8984375,3.8071289-14.5068359-2.3237305-19.1259766
		l-18.2509766-13.7490234l18.4091797-13.5371094c6.0136719-4.421875,6.0522461-4.7172852,2.0795898-15.7856445
		c-3.5600586-9.9199219-10.1586914-28.3085938,5.184082-44.7246094c7.3642578-8.59375,16.7929688-11.7124023,23.0722656-13.7885742
		c1.4760742-0.487793,3.3950195-1.1225586,4.4682617-1.5986328c9.2348633-14.2172852,22.3266602-21.7280273,37.8891602-21.7280273
		c11.347168,0,22.0561523,3.7998047,32.4121094,7.4741211c8.5424805,3.03125,16.6113281,5.894043,23.1108398,5.894043
		c4.2036133,0,7.9169922-1.0678711,12.3759766-6.2817383l12.2709961-14.347168l12.9931641,13.6962891
		c5.1577148,5.4370117,12.6557617,6.2485352,16.6655273,6.2485352c2.5898438,0,5.2236328-0.3105469,7.828125-0.9233398
		l0.53125-0.125l0.5380859-0.0908203c3.7119141-0.6254883,8.0498047-2.4394531,12.6416016-4.3598633
		c8.0087891-3.3491211,17.0849609-7.1455078,27.9619141-7.1455078c2.7294922,0,5.4599609,0.2490234,8.1171875,0.7402344
		l0.1162109,0.0214844c12.0068359,2.3046875,22.5019531,8.9521484,32.0849609,20.3222656
		c0.2138672,0.2539062,0.4238281,0.5097656,0.6308594,0.7666016c11.9746094,2.8334961,27.2470703,8.1889648,34.3271484,21.0214844
		c7.2363281,13.1137695,2.4414062,26.2729492-1.0595703,35.8818359
		c-4.8603516,13.3398438-4.4003906,14.6914062,1.4560547,19.1279297L452.875,419.4127808l-14.5859375,13.793457
		c-3.6660156,3.4667969-5.6210938,6.3076172-5.8105469,8.4423828c-0.2363281,2.6513672,1.1826172,7.1259766,2.8261719,12.3076172
		c1.3974609,4.4082031,2.9814453,9.4042969,4.2177734,15.2333984l0.1552734,0.7333984l0.0908203,0.7451172
		c1.3613281,11.203125-2.3544922,21.0791016-10.4638672,27.8066406c-5.6689453,4.7041016-12.3925781,6.9931641-17.7958984,8.8320312
		c-2.0273438,0.6894531-4.9443359,1.6826172-6.375,2.4267578c-7.8017578,14.6650391-22.8642578,23.0322266-41.6259766,23.0332031
		c-6.4892578,0-13.2675781-0.953125-20.1474609-2.8349609l-0.5263672-0.1435547l-0.515625-0.1777344
		c-1.4638672-0.5029297-2.9199219-1.0107422-4.3662109-1.515625c-9.7236328-3.3945312-18.9082031-6.6005859-26.4394531-6.6005859
		c-5.6533203,0-10.1875,1.7568359-15.1582031,5.8740234l-0.3085938,0.2558594l-0.3208008,0.2412109
		c-1.5712891,1.1816406-5.7451172,4.3193359-12.0625,4.3193359c-5.0068359,0-9.8168945-2.0576172-13.5444336-5.7949219
		c-4.3598633-4.3720703-8.9472656-6.2373047-15.3408203-6.2373047c-9.027832,0-20.019043,3.8349609-30.6484375,7.5429688
		c-3.3334961,1.1630859-6.7802734,2.3652344-10.1738281,3.453125l-0.2602539,0.0830078l-0.2631836,0.0751953
		C209.9208984,532.3087769,206.3422852,532.8165894,202.7954102,532.8165894z"/>
	<path class="st0" d="M139.2529144,420.6973877c29.8985443-21.98526-9.0500031-43.187561,9.8734589-62.8727417
		c8.620163-10.4222107,23.7453156-7.8280029,28.9235992-17.1600952
		c26.5772705-41.6272583,72.1659698,24.8210449,104.6449738-13.1533813
		c10.3049927,10.8627014,26.2931213,13.5712585,40.7274475,10.1749878
		c14.6239319-2.4638977,27.4646606-13.6465759,42.8052063-10.8117371
		c9.3871765,1.8014221,16.3081665,7.4874878,22.2857361,14.5800781c2.0079956,2.3825684,3.5114136,5.1174316,7.2149963,5.7901306
		c62.0547485,13.4224548-5.6465759,45.9383545,30.8748779,73.6035767
		c-19.6282043,18.5617981-8.3363342,30.1017151-3.7189026,51.8707581
		c2.5223694,20.7562256-25.661377,15.3210449-32.2521057,28.0128174
		c-7.9191284,16.4851379-27.2935181,17.0314026-42.7852783,12.7950134
		c-22.0003967-7.5621948-41.8953857-16.1917419-62.3413391,0.7442627c-1.2059937,0.9057007-2.0267639,1.4301147-3.345459,0.1083374
		c-21.2877197-21.3493958-49.4788055-7.0911865-73.394989,0.5723877
		c-14.3473053,4.0933838-25.4611816-7.225647-32.873764-18.1134644
		C108.6954269,481.0180969,175.9953766,448.3779907,139.2529144,420.6973877z"/>
</g>
</svg>
