<?xml version="1.0" encoding="utf-8"?>
<!-- Generator: Adobe Illustrator 26.5.0, SVG Export Plug-In . SVG Version: 6.00 Build 0)  -->
<svg version="1.1" id="Layer_1" xmlns="http://www.w3.org/2000/svg" xmlns:xlink="http://www.w3.org/1999/xlink" x="0px" y="0px"
	 viewBox="0 0 595.2755737 841.8898315" style="enable-background:new 0 0 595.2755737 841.8898315;" xml:space="preserve">
<style type="text/css">
	.st0{fill:none;}
</style>
<path class="st0" d="M332.4013672,776.5068359c-27.7949219-0.4746094-45.4262695-10.671875-55.3066406-23.9511719
	c-9.0683594,12.7421875-22.081543,16.1123047-26.8549805,17.2900391
	c-5.9379883,1.6640625-12.0581055,2.4736328-18.6767578,2.4736328c-6.9960938,0-13.3188477-0.9335938-18.3989258-1.6835938
	c-1.6230469-0.2402344-3.1884766-0.4716797-4.5859375-0.6435547c-1.2919922,0.0644531-2.5742188,0.0976562-3.8383789,0.0976562
	c-22.2299805,0-40.6728516-10.2138672-49.3344727-27.3232422c-2.9208984-5.7695312-7.5419922-18.3505859-3.2387695-34.4570312
	c-16.0551758-18.1464844-31.5805664-40.1611328-38.5200195-68.2226562
	c-7.2197266-20.4423828-7.8486328-40.5566406-7.7817383-61.0488281c-0.621582-16.515625,3.5424805-31.0849609,6.9023438-42.8398438
	c1.0458984-3.6582031,2.0336914-7.1132812,2.7915039-10.296875l0.2841797-1.1933594l0.3671875-1.1708984
	c3.7075195-11.8261719,7.9213867-23.2324219,11.996582-34.2626953c3.5952148-9.7324219,6.9946289-18.9335938,9.9858398-28.1865234
	c1.1660156-4.0400391,1.3012695-10.1708984,1.1420898-18.1083984l-0.015625-0.7900391l0.059082-2.359375
	c0.4916992-19.7700195,1.0478516-42.1186523,8.6074219-64.4643555c4.9301758-18.3515625,16.2114258-33.949707,26.203125-47.7641602
	c3.9038086-5.3979492,10.3637695-14.3305664,13.4980469-20.4145508c-0.003418-0.0024414-0.0073242-0.0043945-0.0107422-0.0068359
	c-6.0024414-3.7670898-12.8007812-8.0336914-19.2890625-13.4438477
	c-21.8979492-17.9794922-39.7182617-40.6674805-51.6586914-65.7451172
	c-4.5327148-7.4951172-13.675293-25.5893555-9.9770508-44.6191406l0.059082-0.3525391
	c1.0458984-6.3027344,3.2080078-14.6723633,10.6459961-23.9311523c2.1586914-2.9780273,7.0239258-9.5551758,15.4370117-14.1977539
	l1.0366211-0.5786133c3.3300781-1.8730469,5.9643555-3.1733398,10.1132812-4.5913086l2.0483398-0.8818359
	c10.2456055-4.4199219,20.840332-8.9902344,34.2807617-12.4731445c8.6210938-2.2338867,17.644043-4.0493164,27.2211914-5.4697266
	c2.5947266-10.737793,6.9907227-22.1166992,14.2099609-32.9370117C231.0556641,72.453125,248.53125,56.425293,270.9257812,56.425293
	c14.3022461,0,27.3334961,6.5024414,36.6933594,18.309082l3.4824219,4.3920898l1.9355469,5.2602539
	c2.3847656,6.4785156,3.2822266,12.418457,3.8955078,16.9331055c4.8564453-4.1401367,10.4316406-7.8603516,16.0986328-10.6875
	c6.5332031-3.2607422,12.1601562-5.7216797,20.0009766-7.90625c10.8193359-3.0151367,19.1386719-4.2451172,28.7128906-4.2451172
	c2.3144531,0,4.5175781,0.0673828,6.6484375,0.1323242l0.984375,0.0297852
	c35.8496094,1.0703125,56.1123047,17.9892578,66.7988281,31.9941406
	c21.3623047,27.9960938,18.5429688,52.0454102,16.484375,69.605957c-0.5146484,4.390625-1.0039062,8.5678711-1.21875,13.0078125
	c1.3955078,16.0634766,2.828125,35.8022461-5.1894531,56.5668945l-0.6425781,1.6645508l-0.8076172,1.5898438
	c-11.0791016,21.7919922-30.203125,38.3818359-53.3671875,47.3496094
	c17.9609375,29.7651367,29.2490234,59.4960938,33.5556641,88.3833008l0.1845703,1.2368164l0.0957031,1.246582
	c0.9404297,12.2617188-0.0458984,23.7480469-0.9169922,33.8823242c-0.9130859,10.6220703-1.7021484,19.7958984-0.2070312,27.2509766
	l0.0986328,0.5097656c2.6220703,14.1582031,7.0537109,28.4765625,11.7460938,43.6347656
	c1.7392578,5.6201172,3.5380859,11.4306641,5.2568359,17.2880859l0.1162109,0.3984375l0.1074219,0.4013672
	c11.1103516,41.4931641,11.3046875,81.9023438,0.5761719,116.96875c-0.5966797,2.3925781-1.4404297,5.2070312-2.5244141,8.4091797
	c0.5683594,2.1552734,1.0449219,4.4873047,1.3876953,7.0097656c2.4375,17.9541016-3.5019531,36.8359375-16.296875,51.8066406
	c-10.6855469,12.5019531-25.4091797,21.4003906-40.7744141,24.7314453c-0.1181641,1.1835938-0.2910156,2.40625-0.5302734,3.6611328
	c-2.3085938,15.3193359-10.4541016,28.1660156-23.6523438,37.2519531
	c-15.6669922,10.7822266-31.3251953,11.4140625-41.6865234,11.8310547
	c-1.0371094,0.0419922-2.0771484,0.0830078-3.1191406,0.1386719l-1.2246094,0.0644531L332.4013672,776.5068359z"/>
<path class="st0" d="M147.2258606,630.0125732c-6.1713257-16.3710938-6.4300385-34.3070679-6.3583069-51.663208
	c-0.7619476-15.2808228,5.2555084-29.708313,8.7391815-44.34198c6.6125641-21.0895996,15.2375031-41.5037537,22.0167542-62.5491028
	c2.7223816-8.9780579,2.9174805-18.5224304,2.7039948-29.1799316c0.4786987-19.0479736,0.7983246-38.6894531,7.2003479-56.8198547
	c7.3608246-30.3085938,50.0445251-60.5218506,41.9094696-90.4885864c-1.2691956-4.6752625-3.7633667-8.3709717-7.205719-10.8867493
	c-7.2871857-5.3257141-17.6504974-10.7160034-25.521637-17.303894
	c-18.321991-15.0144043-33.3726959-34.2146606-43.2130737-55.6119995
	c-3.4972687-4.9386444-7.6004486-14.9605103-6.3840942-21.1425781c0.5631561-2.8622437,0.4609375-5.2131195,3.9020538-9.3494263
	c0.8040619-0.9665222,2.563858-3.9129181,4.786972-5.1394653c2.9690247-1.6380768,3.3162994-1.9968719,6.6712036-3.0608063
	c10.6962585-4.5826874,20.5172729-9.0769043,32.6776276-12.2281189c15.5856018-4.0388336,31.783844-6.1981812,47.8463593-7.3014679
	c1.7180939-0.1100464,2.2184601-0.7237091,2.1945648-2.4686432c-0.0383301-15.2071686,3.5337524-31.2252579,12.2472382-43.8610687
	c5.5292511-9.771759,19.0578461-22.3684845,28.7530365-10.1384048c2.2134705,6.0129547,1.9856567,12.7990723,3.7394714,18.9688797
	c3.692749,11.4488068,9.8476562,21.9801941,15.9698486,32.2731781c1.7839355,1.9716187,9.9616089,5.8362274,12.0388794,7.9490356
	c1.9048157,1.4642944,1.914093,1.3123474,3.4177246-0.5178223c6.5027466-8.4511871,13.2486267-16.6349182,20.9449463-23.975296
	c3.0370178-3.3988266,7.944397-7.0244293,12.3531189-9.2242508c4.87677-2.4333801,8.4527588-4.0274429,13.769989-5.5091858
	c12.1408386-3.3832855,17.2731934-3.0719528,25.9104004-2.8142014c16.894104,0.5041428,30.6927795,6.0236053,40.0151062,18.2409058
	c17.1453857,22.4696808,8.7988892,35.9924927,8.0333557,62.2412262c1.2778015,14.6339874,2.6473083,29.0392151-2.7823486,43.1018066
	c-11.4255066,22.4750519-35.3008423,34.9727631-60.5116272,35.6603241
	c-0.6615906,15.1107788-2.0503845,28.4617004,7.9510193,44.927887
	c14.0987854,23.2120972,25.2730103,48.936615,29.3327026,76.1664124
	c1.6785583,21.8781738-4.8955688,43.6351624-0.5431824,65.3373413
	c4.0610352,21.9347534,11.5658569,43.0417786,17.8325806,64.4035034
	c8.5657654,31.9886475,10.6192017,66.873291,0.5978394,98.7028809c-0.7936401,3.8267212-4.4371948,13.817627-5.2327881,15.0333862
	c-1.1092834,1.6951904-1.4020081,3.1369629-0.2305603,5.0817871c1.6968689,2.8170166,2.9000244,5.3081665,3.4322815,9.227356
	c2.357666,17.3608398-13.8909607,34.9598999-31.1745605,37.8858032c-3.8817749,0.5857544-7.8958435-0.7671509-10.9386597,2.6184692
	c-5.6867676,5.1992798-10.6737976,10.9797363-15.5022278,16.9445801c-2.5198364,3.621582,1.3604736,7.8005371,0.197998,11.9788818
	c-0.6963501,6.0582275-3.2411804,10.5182495-9.000885,14.4824219c-8.4140015,5.7910156-17.5333252,5.3567505-26.8136902,5.848938
	c-12.305542-0.2098389-29.2078552-3.1541748-30.9712219-17.8600464
	c-2.2203064-12.2674561-36.1587524-4.4466553-45.4483643-3.4910278c-3.0088348,0.9505005-3.2207642,3.9830322-4.7182007,6.3762817
	c-0.7304535,1.6303101-2.0141602,3.7189941-2.9100494,5.1517334c-1.7753448,2.9934082-4.8305817,3.6118774-7.727356,4.3323364
	c-10.6768341,3.1598511-21.4623413-0.3358154-32.1585541-1.1517334
	c-19.918457,1.9732666-31.1822815-9.4783325-17.9223328-27.5336304c7.4346466-6.40625,1.2818451-7.182251-4.4341736-13.1791992
	C168.8595123,675.4303589,152.9567108,655.1761475,147.2258606,630.0125732z"/>
</svg>
