<?xml version="1.0" encoding="utf-8"?>
<!-- Generator: Adobe Illustrator 26.5.0, SVG Export Plug-In . SVG Version: 6.00 Build 0)  -->
<svg version="1.1" id="Layer_1" xmlns="http://www.w3.org/2000/svg" xmlns:xlink="http://www.w3.org/1999/xlink" x="0px" y="0px"
	 viewBox="0 0 595.2755737 841.8898315" style="enable-background:new 0 0 595.2755737 841.8898315;" xml:space="preserve">
<style type="text/css">
	.st0{fill:none;}
</style>
<path class="st0" d="M332.9560547,744.0117188c-20.2792969-0.3466797-31.8261719-7.2539062-33.4003906-19.9775391
	c-0.7753906-3.8896484-7.7177734-4.7080078-13.421875-4.7080078c-7.5332031,0-16.3378906,1.3779297-22.7670898,2.3847656
	c-2.4804688,0.3886719-4.6435547,0.7265625-6.2285156,0.9033203c-0.7998047,0.3320312-1.1743164,1.0478516-1.8813477,2.6835938
	c-0.3227539,0.7480469-0.6865234,1.5908203-1.184082,2.4150391c-0.7602539,1.6552734-1.940918,3.6035156-3.0024414,5.3007812
	c-2.1923828,3.6972656-5.8676758,4.6015625-8.8203125,5.328125l-0.3740234,0.0927734
	c-3.1704102,0.9316406-6.5449219,1.3847656-10.3139648,1.3847656c-4.6079102,0-9.2041016-0.6787109-13.6489258-1.3349609
	c-2.9086914-0.4296875-5.9135742-0.8740234-8.824707-1.1054688c-1.480957,0.1396484-2.9428711,0.2109375-4.3486328,0.2109375
	c-9.8681641,0-17.28125-3.4638672-20.3388672-9.5029297c-3.0522461-6.0292969-1.3735352-13.9248047,4.7270508-22.2304688
	l0.1679688-0.2294922l0.2148438-0.1845703c2.5380859-2.1875,2.5571289-2.9873047,2.5571289-2.9951172
	c-0.0800781-0.4873047-1.6850586-1.7773438-2.7475586-2.6308594c-1.2773438-1.0273438-2.8676758-2.3046875-4.4213867-3.9355469
	c-16.362793-17.1660156-33.9116211-38.3261719-40.0722656-65.1464844
	c-6.0883789-16.2607422-6.5336914-34.0322266-6.4594727-52.328125c-0.5615234-11.5507812,2.5952148-22.5947266,5.6484375-33.2753906
	c1.0981445-3.8408203,2.2329102-7.8115234,3.1591797-11.7021484l0.046875-0.1689453
	c3.4638672-11.0498047,7.534668-22.0673828,11.4707031-32.7216797c3.5991211-9.7431641,7.3212891-19.8173828,10.5517578-29.8466797
	c2.7275391-8.9960938,2.7724609-18.9462891,2.5839844-28.3632812l0.0395508-1.6884766
	c0.4638672-18.6450195,0.9433594-37.9238281,7.2607422-55.8945312c3.1728516-12.9038086,12.4355469-25.7109375,21.394043-38.0976562
	c12.8452148-17.7607422,24.9780273-34.5361328,20.5024414-51.0229492c-1.1108398-4.0908203-3.2202148-7.2949219-6.2685547-9.5234375
	c-2.8671875-2.0952148-6.2368164-4.2099609-9.8041992-6.4487305c-5.4169922-3.3994141-11.0185547-6.9145508-15.8466797-10.9560547
	c-18.7294922-15.3486328-33.8725586-34.8105469-43.784668-56.2783203
	c-3.5581055-5.1308594-8.0581055-15.7749023-6.6611328-22.8759766c0.0805664-0.4086914,0.1464844-0.8066406,0.2119141-1.2011719
	c0.4067383-2.453125,0.8686523-5.234375,4.2211914-9.2641602c0.1494141-0.1796875,0.3344727-0.4404297,0.5566406-0.7470703
	c1.0825195-1.4951172,2.7182617-3.7543945,4.9448242-4.9829102c0.4853516-0.2680664,0.8999023-0.5009766,1.2685547-0.7084961
	c1.9042969-1.0708008,2.7871094-1.5673828,5.7353516-2.5083008l3.3662109-1.4487305
	c9.5356445-4.1137695,18.5419922-7.9995117,29.5595703-10.8540039c14.300293-3.7060547,30.0566406-6.1157227,48.1674805-7.3666992
	c-0.0341797-17.2392578,4.4487305-33.265625,12.6269531-45.1733398c3.4936523-6.125,11.9106445-16.3618164,21.6074219-16.3618164
	c4.2929688,0,8.0698242,2.0180664,11.2250977,5.9985352l0.2490234,0.3139648l0.1381836,0.3754883
	c1.3168945,3.5786133,1.8217773,7.3339844,2.3100586,10.965332c0.3862305,2.8764648,0.7514648,5.59375,1.487793,8.184082
	c3.409668,10.5654297,8.8300781,20.0991211,15.5595703,31.418457c0.8320312,0.7626953,3.3623047,2.2407227,5.2402344,3.3383789
	c2.5175781,1.4716797,4.9082031,2.8681641,6.2578125,4.0825195l0.03125-0.0380859
	c5.7099609-7.4223633,12.7216797-16.1455078,21.0820312-24.1303711c3.1962891-3.5507812,8.2998047-7.3579102,13.0332031-9.7197266
	c5.1748047-2.5825195,8.7939453-4.1699219,14.2148438-5.6801758c9.1220703-2.5419922,14.4121094-3.0527344,19.9902344-3.0527344
	c1.8183594,0,3.6826172,0.0566406,5.6552734,0.1171875l1.0097656,0.0302734
	c18.5107422,0.5527344,32.6171875,7.0205078,41.9287109,19.2236328
	c13.390625,17.5493164,11.9140625,30.1513672,10.0429688,46.1069336c-0.6376953,5.4394531-1.296875,11.0625-1.4941406,17.5791016
	l0.0507812,0.5727539c1.2509766,14.3203125,2.5458984,29.1279297-3.0039062,43.5009766l-0.0458984,0.1191406l-0.0576172,0.1132812
	c-10.9111328,21.4633789-33.8945312,35.4667969-60.3476562,36.9311523c-0.0107422,0.222168-0.0214844,0.4448242-0.03125,0.6665039
	c-0.65625,13.8583984-1.2226562,25.8266602,7.7265625,40.5600586
	c15.9824219,26.3134766,25.9638672,52.2519531,29.6679688,77.0957031l0.0195312,0.1772461
	c0.7392578,9.6259766-0.0908203,19.2783203-0.8925781,28.612793c-1.0800781,12.5576172-2.0986328,24.4199219,0.3085938,36.4248047
	c2.9755859,16.0683594,7.9003906,31.9785156,12.6630859,47.3652344c1.7050781,5.5058594,3.4677734,11.2001953,5.1171875,16.8251953
	c9.6503906,36.0371094,9.859375,70.6064453,0.6201172,100.0429688c-0.8613281,3.9912109-4.5322266,14.1923828-5.5605469,15.765625
	c-0.7548828,1.1523438-0.7197266,1.53125-0.1826172,2.4248047c1.9013672,3.1542969,3.1953125,5.9580078,3.7685547,10.1796875
	c2.6630859,19.6152344-15.3496094,37.6591797-33.2353516,40.6875c-1.3486328,0.2041016-2.5878906,0.2109375-3.7871094,0.2177734
	c-2.7382812,0.0166016-4.3535156,0.0986328-5.7089844,1.6064453l-0.0820312,0.0917969l-0.0908203,0.0820312
	c-5.9033203,5.3984375-10.9824219,11.4091797-15.1777344,16.5888672c-0.6503906,1.0009766-0.3730469,2.2402344,0.1669922,4.3144531
	c0.5146484,1.9755859,1.0957031,4.2080078,0.4824219,6.6425781c-0.8378906,6.9101562-3.9414062,11.8730469-10.0449219,16.0751953
	c-7.9306641,5.4570312-16.3886719,5.7988281-24.5693359,6.1279297c-1.1728516,0.0478516-2.3496094,0.0947266-3.5292969,0.1572266
	l-0.0878906,0.0048828L332.9560547,744.0117188z"/>
<path class="st0" d="M147.2258606,630.0125732c-6.1713257-16.3710938-6.4300385-34.3070679-6.3583069-51.663208
	c-0.7619476-15.2808228,5.2555084-29.708313,8.7391815-44.34198c6.6125641-21.0895996,15.2375031-41.5037537,22.0167542-62.5491028
	c2.7223816-8.9780579,2.9174805-18.5224304,2.7039948-29.1799316c0.4786987-19.0479736,0.7983246-38.6894531,7.2003479-56.8198547
	c7.3608246-30.3085938,50.0445251-60.5218506,41.9094696-90.4885864c-1.2691956-4.6752625-3.7633667-8.3709717-7.205719-10.8867493
	c-7.2871857-5.3257141-17.6504974-10.7160034-25.521637-17.303894
	c-18.321991-15.0144043-33.3726959-34.2146606-43.2130737-55.6119995
	c-3.4972687-4.9386444-7.6004486-14.9605103-6.3840942-21.1425781c0.5631561-2.8622437,0.4609375-5.2131195,3.9020538-9.3494263
	c0.8040619-0.9665222,2.563858-3.9129181,4.786972-5.1394653c2.9690247-1.6380768,3.3162994-1.9968719,6.6712036-3.0608063
	c10.6962585-4.5826874,20.5172729-9.0769043,32.6776276-12.2281189c15.5856018-4.0388336,31.783844-6.1981812,47.8463593-7.3014679
	c1.7180939-0.1100464,2.2184601-0.7237091,2.1945648-2.4686432c-0.0383301-15.2071686,3.5337524-31.2252579,12.2472382-43.8610687
	c5.5292511-9.771759,19.0578461-22.3684845,28.7530365-10.1384048c2.2134705,6.0129547,1.9856567,12.7990723,3.7394714,18.9688797
	c3.692749,11.4488068,9.8476562,21.9801941,15.9698486,32.2731781c1.7839355,1.9716187,9.9616089,5.8362274,12.0388794,7.9490356
	c1.9048157,1.4642944,1.914093,1.3123474,3.4177246-0.5178223c6.5027466-8.4511871,13.2486267-16.6349182,20.9449463-23.975296
	c3.0370178-3.3988266,7.944397-7.0244293,12.3531189-9.2242508c4.87677-2.4333801,8.4527588-4.0274429,13.769989-5.5091858
	c12.1408386-3.3832855,17.2731934-3.0719528,25.9104004-2.8142014c16.894104,0.5041428,30.6927795,6.0236053,40.0151062,18.2409058
	c17.1453857,22.4696808,8.7988892,35.9924927,8.0333557,62.2412262c1.2778015,14.6339874,2.6473083,29.0392151-2.7823486,43.1018066
	c-11.4255066,22.4750519-35.3008423,34.9727631-60.5116272,35.6603241
	c-0.6615906,15.1107788-2.0503845,28.4617004,7.9510193,44.927887
	c14.0987854,23.2120972,25.2730103,48.936615,29.3327026,76.1664124
	c1.6785583,21.8781738-4.8955688,43.6351624-0.5431824,65.3373413
	c4.0610352,21.9347534,11.5658569,43.0417786,17.8325806,64.4035034
	c8.5657654,31.9886475,10.6192017,66.873291,0.5978394,98.7028809c-0.7936401,3.8267212-4.4371948,13.817627-5.2327881,15.0333862
	c-1.1092834,1.6951904-1.4020081,3.1369629-0.2305603,5.0817871c1.6968689,2.8170166,2.9000244,5.3081665,3.4322815,9.227356
	c2.357666,17.3608398-13.8909607,34.9598999-31.1745605,37.8858032c-3.8817749,0.5857544-7.8958435-0.7671509-10.9386597,2.6184692
	c-5.6867676,5.1992798-10.6737976,10.9797363-15.5022278,16.9445801c-2.5198364,3.621582,1.3604736,7.8005371,0.197998,11.9788818
	c-0.6963501,6.0582275-3.2411804,10.5182495-9.000885,14.4824219c-8.4140015,5.7910156-17.5333252,5.3567505-26.8136902,5.848938
	c-12.305542-0.2098389-29.2078552-3.1541748-30.9712219-17.8600464
	c-2.2203064-12.2674561-36.1587524-4.4466553-45.4483643-3.4910278c-3.0088348,0.9505005-3.2207642,3.9830322-4.7182007,6.3762817
	c-0.7304535,1.6303101-2.0141602,3.7189941-2.9100494,5.1517334c-1.7753448,2.9934082-4.8305817,3.6118774-7.727356,4.3323364
	c-10.6768341,3.1598511-21.4623413-0.3358154-32.1585541-1.1517334
	c-19.918457,1.9732666-31.1822815-9.4783325-17.9223328-27.5336304c7.4346466-6.40625,1.2818451-7.182251-4.4341736-13.1791992
	C168.8595123,675.4303589,152.9567108,655.1761475,147.2258606,630.0125732z"/>
</svg>
